Pfont-Bold.ufo
<glyph name="exclam" format="1">
  <advance width="585"/>
  <unicode hex="0021"/>
  <outline>
    <contour>
      <point x="360" y="449" type="line"/>
      <point x="356" y="1352" type="line"/>
      <point x="142" y="1301" type="line"/>
      <point x="192" y="382" type="line"/>
    </contour>
    <component base="period" xOffset="38" yOffset="-25" xScale="0.803" yScale="0.803"/>
  </outline>
</glyph>
<glyph name="quotesingle" format="1">
  <advance width="386"/>
  <unicode hex="0027"/>
  <outline>
    <contour>
      <point x="254" y="1113" type="line"/>
      <point x="286" y="1586" type="line"/>
      <point x="102" y="1590" type="line"/>
      <point x="100" y="1118" type="line"/>
    </contour>
  </outline>
</glyph>
<glyph name="parenleft" format="1">
  <advance width="701"/>
  <unicode hex="0028"/>
  <outline>
    <contour>
      <point x="574" y="-269" type="line"/>
      <point x="504" y="-153"/>
      <point x="330" y="89"/>
      <point x="330" y="500" type="curve" smooth="yes"/>
      <point x="330" y="927"/>
      <point x="523" y="1157"/>
      <point x="581" y="1264" type="curve"/>
      <point x="415" y="1289" type="line"/>
      <point x="218" y="1019"/>
      <point x="120" y="752"/>
      <point x="120" y="485" type="curve" smooth="yes"/>
      <point x="120" y="224"/>
      <point x="214" y="-36"/>
      <point x="403" y="-295" type="curve"/>
    </contour>
  </outline>
</glyph>
<glyph name="parenright" format="1">
  <advance width="701"/>
  <unicode hex="0029"/>
  <outline>
    <contour>
      <point x="487" y="-36"/>
      <point x="581" y="224"/>
      <point x="581" y="485" type="curve" smooth="yes"/>
      <point x="581" y="752"/>
      <point x="483" y="1019"/>
      <point x="286" y="1289" type="curve"/>
      <point x="120" y="1264" type="line"/>
      <point x="158" y="1157"/>
      <point x="371" y="927"/>
      <point x="371" y="500" type="curve" smooth="yes"/>
      <point x="371" y="89"/>
      <point x="177" y="-153"/>
      <point x="127" y="-269" type="curve"/>
      <point x="298" y="-295" type="line"/>
    </contour>
  </outline>
</glyph>
<glyph name="asterisk" format="1">
  <advance width="891"/>
  <unicode hex="002A"/>
  <outline>
    <contour>
      <point x="538" y="168" type="line"/>
      <point x="532" y="293" type="line"/>
      <point x="615" y="202" type="line"/>
      <point x="739" y="321" type="line"/>
      <point x="740" y="320" type="line"/>
      <point x="641" y="410" type="line"/>
      <point x="771" y="405" type="line"/>
      <point x="770" y="573" type="line"/>
      <point x="641" y="567" type="line"/>
      <point x="740" y="657" type="line"/>
      <point x="615" y="776" type="line"/>
      <point x="536" y="689" type="line"/>
      <point x="542" y="810" type="line"/>
      <point x="367" y="809" type="line"/>
      <point x="371" y="686" type="line"/>
      <point x="286" y="778" type="line"/>
      <point x="162" y="660" type="line"/>
      <point x="264" y="567" type="line"/>
      <point x="120" y="567" type="line"/>
      <point x="121" y="410" type="line"/>
      <point x="259" y="410" type="line"/>
      <point x="160" y="320" type="line"/>
      <point x="284" y="202" type="line"/>
      <point x="367" y="293" type="line"/>
      <point x="362" y="167" type="line"/>
    </contour>
    <contour>
      <point x="399" y="388"/>
      <point x="354" y="436"/>
      <point x="354" y="491" type="curve" smooth="yes"/>
      <point x="354" y="545"/>
      <point x="399" y="593"/>
      <point x="450" y="593" type="curve" smooth="yes"/>
      <point x="502" y="593"/>
      <point x="547" y="546"/>
      <point x="547" y="491" type="curve" smooth="yes"/>
      <point x="547" y="438"/>
      <point x="500" y="388"/>
      <point x="450" y="388" type="curve" smooth="yes"/>
    </contour>
  </outline>
</glyph>
<glyph name="plus" format="1">
  <advance width="1225"/>
  <unicode hex="002B"/>
  <outline>
    <contour>
      <point x="719" y="29" type="line"/>
      <point x="712" y="404" type="line"/>
      <point x="1105" y="404" type="line"/>
      <point x="1105" y="600" type="line"/>
      <point x="716" y="600" type="line"/>
      <point x="713" y="951" type="line"/>
      <point x="505" y="950" type="line"/>
      <point x="512" y="600" type="line"/>
      <point x="120" y="600" type="line"/>
      <point x="120" y="404" type="line"/>
      <point x="512" y="404" type="line"/>
      <point x="519" y="27" type="line"/>
    </contour>
  </outline>
</glyph>
<glyph name="comma" format="1">
  <advance width="487"/>
  <unicode hex="002C"/>
  <outline>
    <contour>
      <point x="120" y="-14" type="line"/>
      <point x="229" y="-14" type="line"/>
      <point x="221" y="-54"/>
      <point x="200" y="-89"/>
      <point x="161" y="-126" type="curve"/>
      <point x="232" y="-207" type="line"/>
      <point x="342" y="-116"/>
      <point x="366" y="6"/>
      <point x="367" y="249" type="curve"/>
      <point x="120" y="250" type="line"/>
    </contour>
  </outline>
</glyph>
<glyph name="hyphen" format="1">
  <advance width="792"/>
  <unicode hex="002D"/>
  <outline>
    <contour>
      <point x="672" y="406" type="line"/>
      <point x="672" y="572" type="line"/>
      <point x="120" y="572" type="line"/>
      <point x="120" y="406" type="line"/>
    </contour>
  </outline>
</glyph>
<glyph name="period" format="1">
  <advance width="642"/>
  <unicode hex="002E"/>
  <outline>
    <contour>
      <point x="361" y="-84" type="line"/>
      <point x="522" y="156" type="line"/>
      <point x="282" y="319" type="line"/>
      <point x="120" y="78" type="line"/>
    </contour>
  </outline>
</glyph>
<glyph name="semicolon" format="1">
  <advance width="582"/>
  <unicode hex="003B"/>
  <outline>
    <contour>
      <point x="190" y="341" type="line"/>
      <point x="242" y="311"/>
      <point x="291" y="266"/>
      <point x="291" y="228" type="curve" smooth="yes"/>
      <point x="291" y="198"/>
      <point x="278" y="160"/>
      <point x="252" y="115" type="curve" smooth="yes"/>
      <point x="190" y="5" type="line"/>
      <point x="313" y="-55" type="line"/>
      <point x="364" y="43" type="line" smooth="yes"/>
      <point x="407" y="126"/>
      <point x="462" y="227"/>
      <point x="462" y="323" type="curve" smooth="yes"/>
      <point x="462" y="405"/>
      <point x="392" y="489"/>
      <point x="311" y="538" type="curve"/>
    </contour>
    <component base="period" xOffset="25" yOffset="837" xScale="0.795" yScale="0.795"/>
  </outline>
</glyph>
<glyph name="equal" format="1">
  <advance width="1225"/>
  <unicode hex="003D"/>
  <outline>
    <contour>
      <point x="1105" y="592" type="line"/>
      <point x="1105" y="788" type="line"/>
      <point x="120" y="788" type="line"/>
      <point x="120" y="592" type="line"/>
    </contour>
    <contour>
      <point x="1105" y="190" type="line"/>
      <point x="1105" y="386" type="line"/>
      <point x="120" y="386" type="line"/>
      <point x="120" y="190" type="line"/>
    </contour>
  </outline>
</glyph>
<glyph name="greater" format="1">
  <advance width="1174"/>
  <unicode hex="003E"/>
  <outline>
    <contour>
      <point x="1054" y="414" type="line"/>
      <point x="1054" y="565" type="line"/>
      <point x="120" y="1033" type="line"/>
      <point x="120" y="856" type="line"/>
      <point x="851" y="490" type="line"/>
      <point x="120" y="122" type="line"/>
      <point x="120" y="-55" type="line"/>
    </contour>
  </outline>
</glyph>
<glyph name="bracketleft" format="1">
  <advance width="587"/>
  <unicode hex="005B"/>
  <outline>
    <contour>
      <point x="467" y="-535" type="line"/>
      <point x="467" y="-401" type="line"/>
      <point x="296" y="-401" type="line"/>
      <point x="296" y="1379" type="line"/>
      <point x="467" y="1379" type="line"/>
      <point x="467" y="1514" type="line"/>
      <point x="164" y="1514" type="line" smooth="yes"/>
      <point x="141" y="1514"/>
      <point x="120" y="1495"/>
      <point x="120" y="1474" type="curve" smooth="yes"/>
      <point x="120" y="-495" type="line" smooth="yes"/>
      <point x="120" y="-516"/>
      <point x="141" y="-535"/>
      <point x="164" y="-535" type="curve" smooth="yes"/>
    </contour>
  </outline>
</glyph>
<glyph name="asciicircum" format="1">
  <advance width="1386"/>
  <unicode hex="005E"/>
  <outline>
    <contour>
      <point x="320" y="592" type="line"/>
      <point x="692" y="1469" type="line"/>
      <point x="1066" y="592" type="line"/>
      <point x="1266" y="592" type="line"/>
      <point x="796" y="1710" type="line"/>
      <point x="590" y="1710" type="line"/>
      <point x="120" y="592" type="line"/>
    </contour>
  </outline>
</glyph>
<glyph name="underscore" format="1">
  <advance width="1044"/>
  <unicode hex="005F"/>
  <outline>
    <contour>
      <point x="1044" y="-289" type="line"/>
      <point x="1044" y="-133" type="line"/>
      <point x="0" y="-133" type="line"/>
      <point x="0" y="-289" type="line"/>
    </contour>
  </outline>
</glyph>
<glyph name="braceleft" format="1">
  <advance width="727"/>
  <unicode hex="007B"/>
  <outline>
    <contour>
      <point x="607" y="-537" type="line"/>
      <point x="607" y="-403" type="line"/>
      <point x="443" y="-403" type="line" smooth="yes"/>
      <point x="439" y="-403"/>
      <point x="436" y="-399"/>
      <point x="436" y="-393" type="curve" smooth="yes"/>
      <point x="436" y="225" type="line" smooth="yes"/>
      <point x="436" y="349"/>
      <point x="349" y="427"/>
      <point x="292" y="489" type="curve"/>
      <point x="349" y="551"/>
      <point x="436" y="628"/>
      <point x="436" y="753" type="curve" smooth="yes"/>
      <point x="436" y="1370" type="line" smooth="yes"/>
      <point x="436" y="1376"/>
      <point x="439" y="1380"/>
      <point x="443" y="1380" type="curve" smooth="yes"/>
      <point x="607" y="1380" type="line"/>
      <point x="607" y="1514" type="line"/>
      <point x="421" y="1514" type="line" smooth="yes"/>
      <point x="319" y="1514"/>
      <point x="261" y="1458"/>
      <point x="261" y="1358" type="curve" smooth="yes"/>
      <point x="261" y="783" type="line" smooth="yes"/>
      <point x="261" y="546"/>
      <point x="120" y="552"/>
      <point x="120" y="489" type="curve" smooth="yes"/>
      <point x="120" y="426"/>
      <point x="261" y="424"/>
      <point x="261" y="173" type="curve" smooth="yes"/>
      <point x="261" y="-381" type="line" smooth="yes"/>
      <point x="261" y="-480"/>
      <point x="319" y="-537"/>
      <point x="421" y="-537" type="curve" smooth="yes"/>
    </contour>
  </outline>
</glyph>
<glyph name="braceright" format="1">
  <advance width="727"/>
  <unicode hex="007D"/>
  <outline>
    <contour>
      <point x="408" y="-537"/>
      <point x="466" y="-480"/>
      <point x="466" y="-381" type="curve" smooth="yes"/>
      <point x="466" y="173" type="line" smooth="yes"/>
      <point x="466" y="424"/>
      <point x="607" y="426"/>
      <point x="607" y="489" type="curve" smooth="yes"/>
      <point x="607" y="552"/>
      <point x="466" y="546"/>
      <point x="466" y="783" type="curve" smooth="yes"/>
      <point x="466" y="1358" type="line" smooth="yes"/>
      <point x="466" y="1458"/>
      <point x="408" y="1514"/>
      <point x="306" y="1514" type="curve" smooth="yes"/>
      <point x="120" y="1514" type="line"/>
      <point x="120" y="1380" type="line"/>
      <point x="284" y="1380" type="line" smooth="yes"/>
      <point x="288" y="1380"/>
      <point x="291" y="1376"/>
      <point x="291" y="1370" type="curve" smooth="yes"/>
      <point x="291" y="753" type="line" smooth="yes"/>
      <point x="291" y="628"/>
      <point x="378" y="551"/>
      <point x="435" y="489" type="curve"/>
      <point x="378" y="427"/>
      <point x="291" y="349"/>
      <point x="291" y="225" type="curve" smooth="yes"/>
      <point x="291" y="-393" type="line" smooth="yes"/>
      <point x="291" y="-399"/>
      <point x="288" y="-403"/>
      <point x="284" y="-403" type="curve" smooth="yes"/>
      <point x="120" y="-403" type="line"/>
      <point x="120" y="-537" type="line"/>
      <point x="306" y="-537" type="line" smooth="yes"/>
    </contour>
  </outline>
</glyph>
<glyph name="asciitilde" format="1">
  <advance width="1325"/>
  <unicode hex="007E"/>
  <outline>
    <contour>
      <point x="301" y="437"/>
      <point x="390" y="470"/>
      <point x="476" y="470" type="curve" smooth="yes"/>
      <point x="651" y="470"/>
      <point x="717" y="335"/>
      <point x="928" y="335" type="curve" smooth="yes"/>
      <point x="1027" y="335"/>
      <point x="1122" y="370"/>
      <point x="1205" y="438" type="curve"/>
      <point x="1114" y="572" type="line"/>
      <point x="1043" y="528"/>
      <point x="979" y="507"/>
      <point x="915" y="507" type="curve" smooth="yes"/>
      <point x="733" y="507"/>
      <point x="679" y="635"/>
      <point x="464" y="635" type="curve" smooth="yes"/>
      <point x="337" y="635"/>
      <point x="209" y="587"/>
      <point x="120" y="506" type="curve"/>
      <point x="202" y="368" type="line"/>
    </contour>
  </outline>
</glyph>
<glyph name="guillemetright" format="1">
  <advance width="962"/>
  <unicode hex="00BB"/>
  <outline>
    <contour>
      <point x="842" y="422"/>
      <point x="723" y="619"/>
      <point x="617" y="803" type="curve"/>
      <point x="470" y="736" type="line"/>
      <point x="516" y="642"/>
      <point x="642" y="450"/>
      <point x="642" y="322" type="curve" smooth="yes"/>
      <point x="642" y="248"/>
      <point x="603" y="195"/>
      <point x="514" y="147" type="curve"/>
      <point x="523" y="180"/>
      <point x="528" y="212"/>
      <point x="528" y="247" type="curve" smooth="yes"/>
      <point x="528" y="416"/>
      <point x="416" y="607"/>
      <point x="312" y="786" type="curve"/>
      <point x="167" y="716" type="line"/>
      <point x="219" y="616"/>
      <point x="329" y="442"/>
      <point x="329" y="323" type="curve" smooth="yes"/>
      <point x="329" y="231"/>
      <point x="268" y="169"/>
      <point x="120" y="111" type="curve"/>
      <point x="212" y="-124" type="line"/>
      <point x="257" y="-114"/>
      <point x="381" y="-40"/>
      <point x="430" y="9" type="curve"/>
      <point x="527" y="-123" type="line"/>
      <point x="702" y="-53"/>
      <point x="842" y="89"/>
      <point x="842" y="247" type="curve" smooth="yes"/>
    </contour>
  </outline>
</glyph>
<glyph name="hamza-ar" format="1">
  <advance width="1014"/>
  <unicode hex="0621"/>
  <outline>
    <contour>
      <point x="508" y="311" type="line"/>
      <point x="341" y="465" type="line"/>
      <point x="448" y="542"/>
      <point x="530" y="572"/>
      <point x="630" y="572" type="curve" smooth="yes"/>
      <point x="655" y="572" type="line"/>
      <point x="679" y="602" type="line"/>
      <point x="646" y="764" type="line"/>
      <point x="614" y="772"/>
      <point x="583" y="775"/>
      <point x="549" y="775" type="curve" smooth="yes"/>
      <point x="342" y="775"/>
      <point x="173" y="628"/>
      <point x="173" y="445" type="curve" smooth="yes"/>
      <point x="173" y="368"/>
      <point x="233" y="273"/>
      <point x="329" y="194" type="curve"/>
      <point x="235" y="138" type="line"/>
      <point x="261" y="-62" type="line"/>
      <point x="879" y="288" type="line"/>
      <point x="846" y="513" type="line"/>
    </contour>
    <contour>
      <point x="531" y="960" type="move" name="top"/>
    </contour>
    <contour>
      <point x="582" y="-180" type="move" name="bottom"/>
    </contour>
  </outline>
</glyph>
<glyph name="alef-ar" format="1">
  <advance width="592"/>
  <unicode hex="0627"/>
  <outline>
    <contour>
      <point x="457" y="0" type="line"/>
      <point x="449" y="1501" type="line"/>
      <point x="173" y="1420" type="line"/>
      <point x="231" y="-35" type="line"/>
    </contour>
    <contour>
      <point x="341" y="1716" type="move" name="top"/>
    </contour>
    <contour>
      <point x="344" y="-249" type="move" name="bottom"/>
    </contour>
  </outline>
</glyph>
<glyph name="tehMarbuta-ar" format="1">
  <advance width="1116"/>
  <unicode hex="0629"/>
  <outline>
    <component base="heh-ar"/>
    <component base="twodotshorizontalabove-ar" xOffset="85" yOffset="370"/>
    <contour>
      <point x="495" y="-250" type="move" name="bottom"/>
    </contour>
  </outline>
</glyph>
<glyph name="hah-ar" format="1">
  <advance width="1453"/>
  <unicode hex="062D"/>
  <outline>
    <contour>
      <point x="1290" y="-381" type="line"/>
      <point x="1225" y="-390"/>
      <point x="1064" y="-431"/>
      <point x="863" y="-431" type="curve" smooth="yes"/>
      <point x="561" y="-431"/>
      <point x="392" y="-324"/>
      <point x="392" y="-137" type="curve" smooth="yes"/>
      <point x="392" y="212"/>
      <point x="742" y="462"/>
      <point x="1246" y="467" type="curve"/>
      <point x="1318" y="759" type="line"/>
      <point x="1168" y="763" type="line" smooth="yes"/>
      <point x="847" y="772"/>
      <point x="694" y="915"/>
      <point x="496" y="915" type="curve" smooth="yes"/>
      <point x="419" y="915"/>
      <point x="305" y="845"/>
      <point x="209" y="738" type="curve"/>
      <point x="325" y="538" type="line"/>
      <point x="415" y="615"/>
      <point x="444" y="644"/>
      <point x="491" y="644" type="curve" smooth="yes"/>
      <point x="536" y="644"/>
      <point x="593" y="642"/>
      <point x="727" y="596" type="curve"/>
      <point x="367" y="471"/>
      <point x="173" y="173"/>
      <point x="173" y="-153" type="curve" smooth="yes"/>
      <point x="173" y="-526"/>
      <point x="373" y="-713"/>
      <point x="773" y="-713" type="curve" smooth="yes"/>
      <point x="895" y="-713"/>
      <point x="1125" y="-687"/>
      <point x="1220" y="-653" type="curve"/>
    </contour>
    <contour>
      <point x="857" y="-40" type="move" name="center"/>
    </contour>
    <contour>
      <point x="774" y="-933" type="move" name="bottom"/>
    </contour>
    <contour>
      <point x="497" y="1128" type="move" name="top"/>
    </contour>
  </outline>
</glyph>
<glyph name="dal-ar" format="1">
  <advance width="1225"/>
  <unicode hex="062F"/>
  <outline>
    <contour>
      <point x="628" y="-38"/>
      <point x="904" y="10"/>
      <point x="997" y="76" type="curve" smooth="yes"/>
      <point x="1059" y="120"/>
      <point x="1090" y="194"/>
      <point x="1090" y="296" type="curve" smooth="yes"/>
      <point x="1090" y="504"/>
      <point x="991" y="622"/>
      <point x="725" y="1046" type="curve"/>
      <point x="548" y="821" type="line"/>
      <point x="775" y="481"/>
      <point x="844" y="354"/>
      <point x="869" y="281" type="curve"/>
      <point x="796" y="252"/>
      <point x="685" y="232"/>
      <point x="513" y="231" type="curve" smooth="yes"/>
      <point x="392" y="230"/>
      <point x="390" y="238"/>
      <point x="382" y="392" type="curve"/>
      <point x="179" y="390" type="line"/>
      <point x="178" y="351"/>
      <point x="173" y="308"/>
      <point x="173" y="267" type="curve" smooth="yes"/>
      <point x="173" y="59"/>
      <point x="274" y="-38"/>
      <point x="490" y="-38" type="curve" smooth="yes"/>
    </contour>
    <contour>
      <point x="723" y="1254" type="move" name="top"/>
    </contour>
    <contour>
      <point x="517" y="-237" type="move" name="bottom"/>
    </contour>
    <contour>
      <point x="770" y="-194" type="move" name="ring"/>
    </contour>
  </outline>
</glyph>
<glyph name="reh-ar" format="1">
  <advance width="964"/>
  <unicode hex="0631"/>
  <outline>
    <contour>
      <point x="-43" y="-362" type="line"/>
      <point x="107" y="-413"/>
      <point x="214" y="-435"/>
      <point x="306" y="-435" type="curve" smooth="yes"/>
      <point x="384" y="-435"/>
      <point x="455" y="-418"/>
      <point x="519" y="-383" type="curve" smooth="yes"/>
      <point x="684" y="-293"/>
      <point x="829" y="-13"/>
      <point x="829" y="205" type="curve" smooth="yes"/>
      <point x="829" y="352"/>
      <point x="762" y="552"/>
      <point x="712" y="754" type="curve"/>
      <point x="479" y="607" type="line"/>
      <point x="621" y="153" type="line"/>
      <point x="519" y="-89"/>
      <point x="393" y="-189"/>
      <point x="194" y="-189" type="curve" smooth="yes"/>
      <point x="138" y="-189"/>
      <point x="77" y="-182"/>
      <point x="5" y="-165" type="curve"/>
    </contour>
    <contour>
      <point x="633" y="949" type="move" name="top"/>
    </contour>
    <contour>
      <point x="317" y="-654" type="move" name="bottom"/>
    </contour>
    <contour>
      <point x="669" y="-459" type="move" name="ring"/>
    </contour>
  </outline>
</glyph>
<glyph name="seen-ar" format="1">
  <advance width="2662"/>
  <unicode hex="0633"/>
  <outline>
    <contour>
      <point x="173" y="-338"/>
      <point x="340" y="-506"/>
      <point x="628" y="-506" type="curve" smooth="yes"/>
      <point x="852" y="-506"/>
      <point x="1222" y="-408"/>
      <point x="1348" y="-235" type="curve" smooth="yes"/>
      <point x="1383" y="-187"/>
      <point x="1398" y="-131"/>
      <point x="1398" y="-55" type="curve" smooth="yes"/>
      <point x="1398" y="-33"/>
      <point x="1397" y="-12"/>
      <point x="1396" y="7" type="curve"/>
      <point x="1432" y="2"/>
      <point x="1474" y="-1"/>
      <point x="1516" y="-1" type="curve" smooth="yes"/>
      <point x="1657" y="-1"/>
      <point x="1787" y="30"/>
      <point x="1857" y="81" type="curve"/>
      <point x="1960" y="26"/>
      <point x="2071" y="-3"/>
      <point x="2182" y="-3" type="curve" smooth="yes"/>
      <point x="2435" y="-3"/>
      <point x="2533" y="98"/>
      <point x="2526" y="351" type="curve" smooth="yes"/>
      <point x="2523" y="458"/>
      <point x="2487" y="744"/>
      <point x="2443" y="906" type="curve"/>
      <point x="2213" y="759" type="line"/>
      <point x="2319" y="276" type="line"/>
      <point x="2275" y="269"/>
      <point x="2237" y="266"/>
      <point x="2201" y="266" type="curve" smooth="yes"/>
      <point x="2128" y="266"/>
      <point x="2060" y="279"/>
      <point x="1991" y="306" type="curve"/>
      <point x="2030" y="639" type="line"/>
      <point x="1818" y="661" type="line"/>
      <point x="1780" y="394" type="line" smooth="yes"/>
      <point x="1767" y="305"/>
      <point x="1711" y="272"/>
      <point x="1557" y="272" type="curve" smooth="yes"/>
      <point x="1406" y="272"/>
      <point x="1366" y="290"/>
      <point x="1359" y="350" type="curve" smooth="yes"/>
      <point x="1323" y="666" type="line"/>
      <point x="1066" y="535" type="line"/>
      <point x="1168" y="-98" type="line"/>
      <point x="1082" y="-134"/>
      <point x="869" y="-212"/>
      <point x="654" y="-212" type="curve" smooth="yes"/>
      <point x="481" y="-212"/>
      <point x="397" y="-139"/>
      <point x="397" y="10" type="curve" smooth="yes"/>
      <point x="397" y="64"/>
      <point x="404" y="83"/>
      <point x="444" y="307" type="curve"/>
      <point x="229" y="329" type="line"/>
      <point x="182" y="74"/>
      <point x="173" y="36"/>
      <point x="173" y="-51" type="curve" smooth="yes"/>
    </contour>
    <contour>
      <point x="715" y="698" type="move" name="top"/>
    </contour>
    <contour>
      <point x="631" y="-725" type="move" name="bottom"/>
    </contour>
  </outline>
</glyph>
<glyph name="sheen-ar" format="1">
  <advance width="2662"/>
  <unicode hex="0634"/>
  <outline>
    <component base="seen-ar"/>
    <component base="threedotsupabove-ar" xOffset="1499" yOffset="186"/>
    <contour>
      <point x="675" y="-744" type="move" name="bottom"/>
    </contour>
  </outline>
</glyph>
<glyph name="sad-ar" format="1">
  <advance width="2712"/>
  <unicode hex="0635"/>
  <outline>
    <contour>
      <point x="173" y="-360"/>
      <point x="336" y="-515"/>
      <point x="629" y="-515" type="curve" smooth="yes"/>
      <point x="855" y="-515"/>
      <point x="1224" y="-409"/>
      <point x="1349" y="-246" type="curve" smooth="yes"/>
      <point x="1385" y="-199"/>
      <point x="1399" y="-151"/>
      <point x="1399" y="-68" type="curve" smooth="yes"/>
      <point x="1399" y="-36"/>
      <point x="1398" y="1"/>
      <point x="1395" y="40" type="curve"/>
      <point x="1498" y="3"/>
      <point x="1639" y="-17"/>
      <point x="1793" y="-17" type="curve" smooth="yes"/>
      <point x="2101" y="-17"/>
      <point x="2383" y="61"/>
      <point x="2500" y="179" type="curve"/>
      <point x="2550" y="235"/>
      <point x="2577" y="307"/>
      <point x="2577" y="384" type="curve" smooth="yes"/>
      <point x="2577" y="622"/>
      <point x="2347" y="844"/>
      <point x="2100" y="845" type="curve" smooth="yes"/>
      <point x="1865" y="846"/>
      <point x="1642" y="703"/>
      <point x="1367" y="378" type="curve"/>
      <point x="1353" y="424"/>
      <point x="1353" y="434"/>
      <point x="1337" y="640" type="curve"/>
      <point x="1082" y="535" type="line"/>
      <point x="1171" y="-108" type="line"/>
      <point x="1082" y="-149"/>
      <point x="912" y="-221"/>
      <point x="656" y="-221" type="curve" smooth="yes"/>
      <point x="478" y="-221"/>
      <point x="398" y="-153"/>
      <point x="398" y="-3" type="curve" smooth="yes"/>
      <point x="398" y="46"/>
      <point x="404" y="65"/>
      <point x="445" y="297" type="curve"/>
      <point x="232" y="320" type="line"/>
      <point x="185" y="65"/>
      <point x="173" y="10"/>
      <point x="173" y="-78" type="curve" smooth="yes"/>
    </contour>
    <contour>
      <point x="1738" y="497"/>
      <point x="1868" y="576"/>
      <point x="2024" y="576" type="curve" smooth="yes"/>
      <point x="2179" y="576"/>
      <point x="2303" y="442"/>
      <point x="2356" y="357" type="curve"/>
      <point x="2225" y="287"/>
      <point x="2050" y="250"/>
      <point x="1855" y="250" type="curve" smooth="yes"/>
      <point x="1749" y="250"/>
      <point x="1644" y="261"/>
      <point x="1549" y="281" type="curve"/>
    </contour>
    <contour>
      <point x="744" y="634" type="move" name="top"/>
    </contour>
    <contour>
      <point x="640" y="-724" type="move" name="bottom"/>
    </contour>
  </outline>
</glyph>
<glyph name="tah-ar" format="1">
  <advance width="1759"/>
  <unicode hex="0637"/>
  <outline>
    <contour>
      <point x="865" y="557"/>
      <point x="957" y="618"/>
      <point x="1088" y="618" type="curve" smooth="yes"/>
      <point x="1166" y="618"/>
      <point x="1300" y="527"/>
      <point x="1391" y="416" type="curve"/>
      <point x="1167" y="311"/>
      <point x="892" y="260"/>
      <point x="583" y="271" type="curve"/>
    </contour>
    <contour>
      <point x="214" y="-2" type="line"/>
      <point x="301" y="-11"/>
      <point x="492" y="-21"/>
      <point x="571" y="-21" type="curve" smooth="yes"/>
      <point x="976" y="-21"/>
      <point x="1624" y="82"/>
      <point x="1624" y="456" type="curve" smooth="yes"/>
      <point x="1624" y="682"/>
      <point x="1398" y="902"/>
      <point x="1166" y="904" type="curve" smooth="yes"/>
      <point x="1019" y="905"/>
      <point x="855" y="825"/>
      <point x="686" y="670" type="curve"/>
      <point x="688" y="701"/>
      <point x="689" y="735"/>
      <point x="689" y="774" type="curve"/>
      <point x="668" y="1534" type="line"/>
      <point x="393" y="1426" type="line"/>
      <point x="443" y="592" type="line"/>
      <point x="449" y="431"/>
      <point x="427" y="381"/>
      <point x="305" y="259" type="curve"/>
      <point x="259" y="262"/>
      <point x="252" y="263"/>
      <point x="173" y="273" type="curve"/>
    </contour>
    <contour>
      <point x="1158" y="1119" type="move" name="top"/>
    </contour>
    <contour>
      <point x="745" y="-243" type="move" name="bottom"/>
    </contour>
  </outline>
</glyph>
<glyph name="ain-ar" format="1">
  <advance width="1263"/>
  <unicode hex="0639"/>
  <outline>
    <contour>
      <point x="1268" y="-375" type="line"/>
      <point x="920" y="-432"/>
      <point x="447" y="-486"/>
      <point x="447" y="-118" type="curve" smooth="yes"/>
      <point x="447" y="148"/>
      <point x="707" y="375"/>
      <point x="1125" y="478" type="curve"/>
      <point x="1128" y="766" type="line"/>
      <point x="1060" y="759"/>
      <point x="740" y="616"/>
      <point x="623" y="561" type="curve"/>
      <point x="574" y="587"/>
      <point x="425" y="795"/>
      <point x="409" y="860" type="curve"/>
      <point x="483" y="927"/>
      <point x="562" y="958"/>
      <point x="662" y="958" type="curve" smooth="yes"/>
      <point x="732" y="958"/>
      <point x="806" y="944"/>
      <point x="894" y="914" type="curve"/>
      <point x="888" y="1172" type="line"/>
      <point x="809" y="1209"/>
      <point x="722" y="1229"/>
      <point x="635" y="1229" type="curve" smooth="yes"/>
      <point x="365" y="1229"/>
      <point x="163" y="1045"/>
      <point x="174" y="806" type="curve" smooth="yes"/>
      <point x="181" y="654"/>
      <point x="254" y="521"/>
      <point x="412" y="370" type="curve"/>
      <point x="292" y="216"/>
      <point x="220" y="18"/>
      <point x="220" y="-162" type="curve" smooth="yes"/>
      <point x="220" y="-519"/>
      <point x="418" y="-716"/>
      <point x="777" y="-716" type="curve" smooth="yes"/>
      <point x="886" y="-716"/>
      <point x="1121" y="-682"/>
      <point x="1177" y="-656" type="curve"/>
    </contour>
    <contour>
      <point x="632" y="1440" type="move" name="top"/>
    </contour>
    <contour>
      <point x="779" y="-926" type="move" name="bottom"/>
    </contour>
  </outline>
</glyph>
<glyph name="kashida-ar" format="1">
  <advance width="449"/>
  <unicode hex="0640"/>
  <outline>
    <contour>
      <point x="-30" y="273" type="line" smooth="yes"/>
      <point x="-102" y="273"/>
      <point x="-160" y="212"/>
      <point x="-160" y="137" type="curve" smooth="yes"/>
      <point x="-160" y="61"/>
      <point x="-102" y="0"/>
      <point x="-30" y="0" type="curve" smooth="yes"/>
      <point x="479" y="0" type="line"/>
      <point x="522" y="39"/>
      <point x="544" y="86"/>
      <point x="544" y="137" type="curve" smooth="yes"/>
      <point x="544" y="188"/>
      <point x="522" y="233"/>
      <point x="479" y="273" type="curve"/>
    </contour>
  </outline>
</glyph>
<glyph name="qaf-ar" format="1">
  <advance width="1685"/>
  <unicode hex="0642"/>
  <outline>
    <component base="qafDotless-ar"/>
    <component base="twodotshorizontalabove-ar" xOffset="771" yOffset="245"/>
    <contour>
      <point x="730" y="-730" type="move" name="bottom"/>
    </contour>
  </outline>
</glyph>
<glyph name="lam-ar" format="1">
  <advance width="1503"/>
  <unicode hex="0644"/>
  <outline>
    <contour>
      <point x="1057" y="1365" type="line"/>
      <point x="1137" y="-141" type="line"/>
      <point x="1056" y="-169"/>
      <point x="856" y="-232"/>
      <point x="641" y="-232" type="curve" smooth="yes"/>
      <point x="483" y="-232"/>
      <point x="396" y="-163"/>
      <point x="396" y="-41" type="curve" smooth="yes"/>
      <point x="396" y="-3"/>
      <point x="404" y="27"/>
      <point x="476" y="334" type="curve"/>
      <point x="269" y="377" type="line"/>
      <point x="186" y="45"/>
      <point x="173" y="-11"/>
      <point x="173" y="-103" type="curve" smooth="yes"/>
      <point x="173" y="-365"/>
      <point x="332" y="-519"/>
      <point x="603" y="-519" type="curve" smooth="yes"/>
      <point x="873" y="-519"/>
      <point x="1361" y="-421"/>
      <point x="1368" y="-110" type="curve"/>
      <point x="1329" y="1500" type="line"/>
    </contour>
    <contour>
      <point x="716" y="603" type="move" name="top"/>
    </contour>
    <contour>
      <point x="605" y="-728" type="move" name="bottom"/>
    </contour>
  </outline>
</glyph>
<glyph name="meem-ar" format="1">
  <advance width="1302"/>
  <unicode hex="0645"/>
  <outline>
    <contour>
      <point x="204" y="-624" type="line"/>
      <point x="465" y="-523" type="line"/>
      <point x="397" y="67" type="line"/>
      <point x="523" y="106"/>
      <point x="677" y="126"/>
      <point x="849" y="126" type="curve" smooth="yes"/>
      <point x="917" y="126"/>
      <point x="986" y="122"/>
      <point x="1060" y="115" type="curve"/>
      <point x="1167" y="447" type="line"/>
      <point x="1107" y="703"/>
      <point x="872" y="932"/>
      <point x="671" y="932" type="curve" smooth="yes"/>
      <point x="407" y="932"/>
      <point x="332" y="646"/>
      <point x="331" y="470" type="curve" smooth="yes"/>
      <point x="330" y="302" type="line"/>
      <point x="225" y="231"/>
      <point x="173" y="113"/>
      <point x="173" y="-52" type="curve" smooth="yes"/>
      <point x="173" y="-54" type="line"/>
    </contour>
    <contour>
      <point x="536" y="544"/>
      <point x="609" y="642"/>
      <point x="651" y="642" type="curve" smooth="yes"/>
      <point x="742" y="642"/>
      <point x="873" y="528"/>
      <point x="938" y="394" type="curve"/>
      <point x="781" y="402"/>
      <point x="711" y="398"/>
      <point x="556" y="373" type="curve"/>
      <point x="522" y="472" type="line"/>
    </contour>
    <contour>
      <point x="673" y="1142" type="move" name="top"/>
    </contour>
    <contour>
      <point x="346" y="-813" type="move" name="bottom"/>
    </contour>
  </outline>
</glyph>
<glyph name="heh-ar" format="1">
  <advance width="1116"/>
  <unicode hex="0647"/>
  <outline>
    <contour>
      <point x="173" y="106"/>
      <point x="305" y="-54"/>
      <point x="490" y="-54" type="curve" smooth="yes"/>
      <point x="727" y="-54"/>
      <point x="981" y="216"/>
      <point x="981" y="465" type="curve" smooth="yes"/>
      <point x="981" y="610"/>
      <point x="840" y="752"/>
      <point x="446" y="1013" type="curve"/>
      <point x="255" y="714"/>
      <point x="173" y="507"/>
      <point x="173" y="327" type="curve" smooth="yes"/>
    </contour>
    <contour>
      <point x="377" y="482"/>
      <point x="405" y="563"/>
      <point x="463" y="655" type="curve"/>
      <point x="767" y="430" type="line"/>
      <point x="700" y="301"/>
      <point x="618" y="239"/>
      <point x="516" y="239" type="curve" smooth="yes"/>
      <point x="435" y="239"/>
      <point x="377" y="308"/>
      <point x="377" y="405" type="curve" smooth="yes"/>
    </contour>
    <contour>
      <point x="440" y="1191" type="move" name="top"/>
    </contour>
    <contour>
      <point x="498" y="-254" type="move" name="bottom"/>
    </contour>
  </outline>
</glyph>
<glyph name="waw-ar" format="1">
  <advance width="1117"/>
  <unicode hex="0648"/>
  <outline>
    <contour>
      <point x="738" y="-478"/>
      <point x="982" y="-159"/>
      <point x="982" y="277" type="curve" smooth="yes"/>
      <point x="982" y="644"/>
      <point x="814" y="924"/>
      <point x="591" y="924" type="curve" smooth="yes"/>
      <point x="333" y="924"/>
      <point x="173" y="577"/>
      <point x="173" y="339" type="curve" smooth="yes"/>
      <point x="173" y="108"/>
      <point x="293" y="-16"/>
      <point x="518" y="-16" type="curve" smooth="yes"/>
      <point x="570" y="-16"/>
      <point x="689" y="-9"/>
      <point x="753" y="4" type="curve"/>
      <point x="655" y="-144"/>
      <point x="466" y="-209"/>
      <point x="276" y="-209" type="curve" smooth="yes"/>
      <point x="210" y="-209"/>
      <point x="134" y="-199"/>
      <point x="43" y="-178" type="curve"/>
      <point x="-15" y="-392" type="line"/>
      <point x="154" y="-450"/>
      <point x="291" y="-478"/>
      <point x="403" y="-478" type="curve" smooth="yes"/>
    </contour>
    <contour>
      <point x="677" y="285"/>
      <point x="616" y="279"/>
      <point x="560" y="279" type="curve" smooth="yes"/>
      <point x="481" y="279"/>
      <point x="421" y="291"/>
      <point x="376" y="317" type="curve"/>
      <point x="377" y="459"/>
      <point x="474" y="629"/>
      <point x="553" y="629" type="curve" smooth="yes"/>
      <point x="629" y="629"/>
      <point x="729" y="457"/>
      <point x="744" y="298" type="curve"/>
    </contour>
    <contour>
      <point x="591" y="1132" type="move" name="top"/>
    </contour>
    <contour>
      <point x="413" y="-680" type="move" name="bottom"/>
    </contour>
  </outline>
</glyph>
<glyph name="alefMaksura-ar" format="1">
  <advance width="1683"/>
  <unicode hex="0649"/>
  <outline>
    <contour>
      <point x="1475" y="712" type="line"/>
      <point x="1437" y="730"/>
      <point x="1359" y="759"/>
      <point x="1285" y="759" type="curve" smooth="yes"/>
      <point x="1040" y="759"/>
      <point x="744" y="323"/>
      <point x="744" y="81" type="curve" smooth="yes"/>
      <point x="744" y="-54"/>
      <point x="836" y="-134"/>
      <point x="1040" y="-145" type="curve" smooth="yes"/>
      <point x="1272" y="-158" type="line"/>
      <point x="1100" y="-243"/>
      <point x="902" y="-298"/>
      <point x="739" y="-298" type="curve" smooth="yes"/>
      <point x="547" y="-298"/>
      <point x="403" y="-222"/>
      <point x="403" y="-29" type="curve" smooth="yes"/>
      <point x="403" y="61"/>
      <point x="414" y="100"/>
      <point x="476" y="339" type="curve"/>
      <point x="267" y="386" type="line"/>
      <point x="192" y="100"/>
      <point x="173" y="27"/>
      <point x="173" y="-108" type="curve" smooth="yes"/>
      <point x="173" y="-418"/>
      <point x="352" y="-583"/>
      <point x="686" y="-583" type="curve" smooth="yes"/>
      <point x="1000" y="-583"/>
      <point x="1548" y="-360"/>
      <point x="1548" y="-56" type="curve" smooth="yes"/>
      <point x="1548" y="54"/>
      <point x="1485" y="100"/>
      <point x="1325" y="113" type="curve" smooth="yes"/>
      <point x="992" y="140"/>
      <point x="966" y="153"/>
      <point x="966" y="181" type="curve" smooth="yes"/>
      <point x="966" y="258"/>
      <point x="1192" y="481"/>
      <point x="1270" y="481" type="curve" smooth="yes"/>
      <point x="1314" y="481"/>
      <point x="1373" y="461"/>
      <point x="1433" y="424" type="curve"/>
    </contour>
    <contour>
      <point x="579" y="710" type="move" name="top"/>
    </contour>
    <contour>
      <point x="688" y="-789" type="move" name="bottom"/>
    </contour>
  </outline>
</glyph>
<glyph name="dammatan-ar" format="1">
  <advance width="0"/>
  <unicode hex="064C"/>
  <outline>
    <contour>
      <point x="325" y="1007"/>
      <point x="283" y="1020"/>
      <point x="283" y="1033" type="curve" smooth="yes"/>
      <point x="283" y="1084"/>
      <point x="309" y="1130"/>
      <point x="335" y="1130" type="curve" smooth="yes"/>
      <point x="355" y="1130"/>
      <point x="386" y="1065"/>
      <point x="386" y="1016" type="curve"/>
      <point x="385" y="1006" type="line"/>
    </contour>
    <contour>
      <point x="540" y="1028" type="line"/>
      <point x="487" y="1022" type="line"/>
      <point x="488" y="1174"/>
      <point x="438" y="1260"/>
      <point x="350" y="1260" type="curve" smooth="yes"/>
      <point x="267" y="1260"/>
      <point x="185" y="1143"/>
      <point x="185" y="1028" type="curve" smooth="yes"/>
      <point x="185" y="948"/>
      <point x="236" y="896"/>
      <point x="318" y="888" type="curve"/>
      <point x="290" y="859"/>
      <point x="233" y="760"/>
      <point x="203" y="731" type="curve"/>
      <point x="200" y="895"/>
      <point x="148" y="975"/>
      <point x="0" y="917" type="curve"/>
      <point x="12" y="778" type="line"/>
      <point x="37" y="787"/>
      <point x="87" y="796"/>
      <point x="96" y="796" type="curve"/>
      <point x="100" y="647" type="line"/>
      <point x="100" y="647"/>
      <point x="100" y="647"/>
      <point x="100" y="646" type="curve"/>
      <point x="230" y="587" type="line"/>
      <point x="300" y="648"/>
      <point x="413" y="817"/>
      <point x="465" y="900" type="curve"/>
      <point x="535" y="911" type="line"/>
    </contour>
    <contour>
      <point x="270" y="1494" type="move" name="top"/>
    </contour>
    <contour>
      <point x="270" y="584" type="move" name="_top"/>
    </contour>
  </outline>
</glyph>
<glyph name="fatha-ar" format="1">
  <advance width="0"/>
  <unicode hex="064E"/>
  <outline>
    <contour>
      <point x="0" y="920" type="line"/>
      <point x="477" y="1073" type="line"/>
      <point x="490" y="1225" type="line"/>
      <point x="12" y="1066" type="line"/>
    </contour>
    <contour>
      <point x="245" y="1394" type="move" name="top"/>
    </contour>
    <contour>
      <point x="245" y="950" type="move" name="_top"/>
    </contour>
  </outline>
</glyph>
<glyph name="sukun-ar" format="1">
  <advance width="0"/>
  <unicode hex="0652"/>
  <outline>
    <contour>
      <point x="296" y="705"/>
      <point x="418" y="850"/>
      <point x="418" y="1011" type="curve" smooth="yes"/>
      <point x="418" y="1150"/>
      <point x="328" y="1259"/>
      <point x="214" y="1259" type="curve" smooth="yes"/>
      <point x="101" y="1259"/>
      <point x="0" y="1098"/>
      <point x="0" y="926" type="curve" smooth="yes"/>
      <point x="0" y="797"/>
      <point x="58" y="719"/>
      <point x="159" y="713" type="curve" smooth="yes"/>
    </contour>
    <contour>
      <point x="141" y="885"/>
      <point x="109" y="917"/>
      <point x="109" y="961" type="curve" smooth="yes"/>
      <point x="109" y="1014"/>
      <point x="159" y="1092"/>
      <point x="194" y="1092" type="curve" smooth="yes"/>
      <point x="231" y="1092"/>
      <point x="304" y="1010"/>
      <point x="304" y="969" type="curve" smooth="yes"/>
      <point x="304" y="936"/>
      <point x="231" y="885"/>
      <point x="183" y="885" type="curve" smooth="yes"/>
    </contour>
    <contour>
      <point x="209" y="1464" type="move" name="top"/>
    </contour>
    <contour>
      <point x="209" y="716" type="move" name="_top"/>
    </contour>
  </outline>
</glyph>
<glyph name="hamzaabove-ar" format="1">
  <advance width="0"/>
  <unicode hex="0654"/>
  <outline>
    <component base="hamzacenter-ar" yOffset="631"/>
    <contour>
      <point x="261" y="1498" type="move" name="top"/>
    </contour>
    <contour>
      <point x="331" y="728" type="move" name="_top"/>
    </contour>
  </outline>
</glyph>
<glyph name="vabove-ar" format="1">
  <advance width="0"/>
  <unicode hex="065A"/>
  <outline>
    <contour>
      <point x="338" y="824" type="line"/>
      <point x="490" y="1200" type="line"/>
      <point x="337" y="1220" type="line"/>
      <point x="250" y="1003" type="line"/>
      <point x="150" y="1218" type="line"/>
      <point x="0" y="1157" type="line"/>
      <point x="162" y="824" type="line"/>
    </contour>
    <contour>
      <point x="245" y="1420" type="move" name="top"/>
    </contour>
    <contour>
      <point x="245" y="824" type="move" name="_top"/>
    </contour>
  </outline>
</glyph>
<glyph name="zero-ar" format="1">
  <advance width="986"/>
  <unicode hex="0660"/>
  <outline>
    <contour>
      <point x="358" y="500" type="line"/>
      <point x="491" y="631" type="line"/>
      <point x="622" y="500" type="line"/>
      <point x="491" y="367" type="line"/>
    </contour>
    <contour>
      <point x="487" y="125" type="line"/>
      <point x="866" y="491" type="line"/>
      <point x="501" y="871" type="line"/>
      <point x="120" y="504" type="line"/>
    </contour>
  </outline>
</glyph>
<glyph name="one-ar" format="1">
  <advance width="672"/>
  <unicode hex="0661"/>
  <outline>
    <contour>
      <point x="552" y="0" type="line"/>
      <point x="553" y="580"/>
      <point x="532" y="920"/>
      <point x="346" y="1272" type="curve"/>
      <point x="120" y="1034" type="line"/>
      <point x="350" y="662"/>
      <point x="336" y="237"/>
      <point x="337" y="-29" type="curve"/>
    </contour>
  </outline>
</glyph>
<glyph name="two-ar" format="1">
  <advance width="1076"/>
  <unicode hex="0662"/>
  <outline>
    <contour>
      <point x="350" y="663"/>
      <point x="336" y="239"/>
      <point x="337" y="-27" type="curve"/>
      <point x="552" y="0" type="line"/>
      <point x="554" y="151" type="line" smooth="yes"/>
      <point x="557" y="346"/>
      <point x="557" y="545"/>
      <point x="517" y="738" type="curve"/>
      <point x="531" y="737"/>
      <point x="547" y="737"/>
      <point x="564" y="737" type="curve" smooth="yes"/>
      <point x="808" y="737"/>
      <point x="942" y="910"/>
      <point x="956" y="1243" type="curve"/>
      <point x="739" y="1262" type="line"/>
      <point x="731" y="1116"/>
      <point x="676" y="1047"/>
      <point x="568" y="1047" type="curve" smooth="yes"/>
      <point x="541" y="1047"/>
      <point x="511" y="1051"/>
      <point x="478" y="1060" type="curve"/>
      <point x="343" y="1274" type="line"/>
      <point x="120" y="1035" type="line"/>
    </contour>
  </outline>
</glyph>
<glyph name="three-ar" format="1">
  <advance width="1330"/>
  <unicode hex="0663"/>
  <outline>
    <contour>
      <point x="552" y="0" type="line"/>
      <point x="552" y="314"/>
      <point x="562" y="441"/>
      <point x="513" y="740" type="curve"/>
      <point x="523" y="739"/>
      <point x="533" y="739"/>
      <point x="544" y="739" type="curve" smooth="yes"/>
      <point x="628" y="739"/>
      <point x="705" y="765"/>
      <point x="757" y="811" type="curve"/>
      <point x="809" y="785"/>
      <point x="862" y="771"/>
      <point x="912" y="771" type="curve" smooth="yes"/>
      <point x="1087" y="771"/>
      <point x="1214" y="920"/>
      <point x="1210" y="1118" type="curve" smooth="yes"/>
      <point x="1207" y="1283" type="line"/>
      <point x="1005" y="1293" type="line"/>
      <point x="1008" y="1111"/>
      <point x="983" y="1055"/>
      <point x="907" y="1055" type="curve" smooth="yes"/>
      <point x="889" y="1055"/>
      <point x="869" y="1058"/>
      <point x="845" y="1063" type="curve"/>
      <point x="849" y="1283" type="line"/>
      <point x="648" y="1284" type="line"/>
      <point x="650" y="1083"/>
      <point x="632" y="1041"/>
      <point x="550" y="1038" type="curve" smooth="yes"/>
      <point x="435" y="1034"/>
      <point x="421" y="1095"/>
      <point x="350" y="1274" type="curve"/>
      <point x="120" y="1034" type="line"/>
      <point x="350" y="662"/>
      <point x="336" y="237"/>
      <point x="337" y="-29" type="curve"/>
    </contour>
  </outline>
</glyph>
<glyph name="four-ar" format="1">
  <advance width="999"/>
  <unicode hex="0664"/>
  <outline>
    <contour>
      <point x="879" y="274" type="line"/>
      <point x="786" y="256"/>
      <point x="685" y="246"/>
      <point x="589" y="246" type="curve" smooth="yes"/>
      <point x="467" y="246"/>
      <point x="330" y="279"/>
      <point x="330" y="296" type="curve" smooth="yes"/>
      <point x="330" y="326"/>
      <point x="528" y="482"/>
      <point x="687" y="568" type="curve"/>
      <point x="674" y="842" type="line"/>
      <point x="611" y="847"/>
      <point x="480" y="865"/>
      <point x="395" y="905" type="curve"/>
      <point x="470" y="973"/>
      <point x="571" y="1037"/>
      <point x="684" y="1103" type="curve"/>
      <point x="638" y="1357" type="line"/>
      <point x="337" y="1236"/>
      <point x="157" y="1031"/>
      <point x="157" y="811" type="curve" smooth="yes"/>
      <point x="157" y="726"/>
      <point x="223" y="664"/>
      <point x="354" y="624" type="curve"/>
      <point x="209" y="499"/>
      <point x="120" y="345"/>
      <point x="120" y="214" type="curve" smooth="yes"/>
      <point x="120" y="57"/>
      <point x="260" y="-26"/>
      <point x="518" y="-26" type="curve" smooth="yes"/>
      <point x="640" y="-26"/>
      <point x="763" y="-8"/>
      <point x="842" y="3" type="curve"/>
    </contour>
  </outline>
</glyph>
<glyph name="five-ar" format="1">
  <advance width="1022"/>
  <unicode hex="0665"/>
  <outline>
    <contour>
      <point x="711" y="113"/>
      <point x="902" y="337"/>
      <point x="902" y="667" type="curve" smooth="yes"/>
      <point x="902" y="893"/>
      <point x="690" y="1138"/>
      <point x="492" y="1138" type="curve" smooth="yes"/>
      <point x="254" y="1138"/>
      <point x="120" y="717"/>
      <point x="120" y="494" type="curve" smooth="yes"/>
      <point x="120" y="239"/>
      <point x="221" y="113"/>
      <point x="427" y="113" type="curve" smooth="yes"/>
    </contour>
    <contour>
      <point x="371" y="414"/>
      <point x="320" y="457"/>
      <point x="320" y="543" type="curve" smooth="yes"/>
      <point x="320" y="698"/>
      <point x="372" y="821"/>
      <point x="443" y="821" type="curve" smooth="yes"/>
      <point x="551" y="821"/>
      <point x="700" y="674"/>
      <point x="700" y="565" type="curve" smooth="yes"/>
      <point x="700" y="508"/>
      <point x="562" y="414"/>
      <point x="472" y="414" type="curve" smooth="yes"/>
    </contour>
  </outline>
</glyph>
<glyph name="six-ar" format="1">
  <advance width="1104"/>
  <unicode hex="0666"/>
  <outline>
    <contour>
      <point x="984" y="106" type="line"/>
      <point x="888" y="339"/>
      <point x="845" y="538"/>
      <point x="845" y="746" type="curve" smooth="yes"/>
      <point x="845" y="843"/>
      <point x="841" y="941"/>
      <point x="867" y="1038" type="curve"/>
      <point x="767" y="1262" type="line"/>
      <point x="539" y="1245"/>
      <point x="349" y="1236"/>
      <point x="138" y="1299" type="curve"/>
      <point x="120" y="991" type="line"/>
      <point x="214" y="946"/>
      <point x="468" y="945"/>
      <point x="646" y="960" type="curve"/>
      <point x="629" y="809"/>
      <point x="621" y="688"/>
      <point x="621" y="578" type="curve" smooth="yes"/>
      <point x="621" y="362"/>
      <point x="646" y="153"/>
      <point x="742" y="-62" type="curve"/>
    </contour>
  </outline>
</glyph>
<glyph name="seven-ar" format="1">
  <advance width="1286"/>
  <unicode hex="0667"/>
  <outline>
    <contour>
      <point x="826" y="17" type="line"/>
      <point x="912" y="357"/>
      <point x="1018" y="769"/>
      <point x="1166" y="1137" type="curve"/>
      <point x="976" y="1328" type="line"/>
      <point x="862" y="1087"/>
      <point x="774" y="774"/>
      <point x="708" y="503" type="curve"/>
      <point x="624" y="805"/>
      <point x="454" y="1129"/>
      <point x="336" y="1301" type="curve"/>
      <point x="120" y="1072" type="line"/>
      <point x="433" y="645"/>
      <point x="498" y="415"/>
      <point x="593" y="-36" type="curve"/>
    </contour>
  </outline>
</glyph>
<glyph name="eight-ar" format="1">
  <advance width="1263"/>
  <unicode hex="0668"/>
  <outline>
    <contour>
      <point x="311" y="-52" type="line"/>
      <point x="419" y="179"/>
      <point x="507" y="459"/>
      <point x="565" y="705" type="curve"/>
      <point x="654" y="431"/>
      <point x="813" y="113"/>
      <point x="927" y="-48" type="curve"/>
      <point x="1143" y="179" type="line"/>
      <point x="926" y="503"/>
      <point x="791" y="781"/>
      <point x="671" y="1313" type="curve"/>
      <point x="445" y="1211" type="line"/>
      <point x="419" y="891"/>
      <point x="293" y="479"/>
      <point x="120" y="139" type="curve"/>
    </contour>
  </outline>
</glyph>
<glyph name="nine-ar" format="1">
  <advance width="1091"/>
  <unicode hex="0669"/>
  <outline>
    <contour>
      <point x="120" y="621"/>
      <point x="238" y="499"/>
      <point x="429" y="499" type="curve" smooth="yes"/>
      <point x="488" y="499"/>
      <point x="553" y="512"/>
      <point x="609" y="535" type="curve"/>
      <point x="620" y="342"/>
      <point x="644" y="150"/>
      <point x="725" y="-58" type="curve"/>
      <point x="971" y="150" type="line"/>
      <point x="885" y="358"/>
      <point x="840" y="545"/>
      <point x="825" y="753" type="curve" smooth="yes"/>
      <point x="809" y="975"/>
      <point x="780" y="1329"/>
      <point x="478" y="1329" type="curve" smooth="yes"/>
      <point x="254" y="1329"/>
      <point x="120" y="1022"/>
      <point x="120" y="818" type="curve" smooth="yes"/>
    </contour>
    <contour>
      <point x="332" y="952"/>
      <point x="387" y="1048"/>
      <point x="464" y="1048" type="curve" smooth="yes"/>
      <point x="523" y="1048"/>
      <point x="584" y="935"/>
      <point x="591" y="806" type="curve"/>
      <point x="537" y="795"/>
      <point x="492" y="786"/>
      <point x="450" y="786" type="curve" smooth="yes"/>
      <point x="413" y="786"/>
      <point x="377" y="793"/>
      <point x="332" y="810" type="curve"/>
    </contour>
  </outline>
</glyph>
<glyph name="decimalseparator-ar" format="1">
  <advance width="834"/>
  <unicode hex="066B"/>
  <outline>
    <contour>
      <point x="284" y="-383" type="line"/>
      <point x="714" y="741" type="line"/>
      <point x="554" y="767" type="line"/>
      <point x="120" y="-358" type="line"/>
    </contour>
  </outline>
</glyph>
<glyph name="thousandseparator-ar" format="1">
  <advance width="682"/>
  <unicode hex="066C"/>
  <outline>
    <contour>
      <point x="277" y="28" type="line"/>
      <point x="562" y="603" type="line"/>
      <point x="407" y="633" type="line"/>
      <point x="120" y="58" type="line"/>
    </contour>
  </outline>
</glyph>
<glyph name="behDotless-ar" format="1">
  <advance width="1870"/>
  <unicode hex="066E"/>
  <outline>
    <contour>
      <point x="173" y="106"/>
      <point x="357" y="-34"/>
      <point x="740" y="-34" type="curve" smooth="yes"/>
      <point x="851" y="-34"/>
      <point x="995" y="-21"/>
      <point x="1167" y="5" type="curve" smooth="yes"/>
      <point x="1555" y="64"/>
      <point x="1735" y="206"/>
      <point x="1735" y="464" type="curve" smooth="yes"/>
      <point x="1735" y="563"/>
      <point x="1660" y="874"/>
      <point x="1618" y="1038" type="curve"/>
      <point x="1388" y="894" type="line"/>
      <point x="1511" y="361" type="line"/>
      <point x="1374" y="303"/>
      <point x="1086" y="239"/>
      <point x="814" y="239" type="curve" smooth="yes"/>
      <point x="526" y="239"/>
      <point x="383" y="315"/>
      <point x="383" y="464" type="curve" smooth="yes"/>
      <point x="383" y="484"/>
      <point x="382" y="497"/>
      <point x="401" y="652" type="curve"/>
      <point x="198" y="670" type="line"/>
      <point x="174" y="490"/>
      <point x="173" y="445"/>
      <point x="173" y="401" type="curve" smooth="yes"/>
    </contour>
    <contour>
      <point x="875" y="876" type="move" name="top"/>
    </contour>
    <contour>
      <point x="947" y="-244" type="move" name="bottom"/>
    </contour>
    <contour>
      <point x="463" y="-198" type="move" name="ring"/>
    </contour>
  </outline>
</glyph>
<glyph name="qafDotless-ar" format="1">
  <advance width="1685"/>
  <unicode hex="066F"/>
  <outline>
    <contour>
      <point x="228" y="334" type="line"/>
      <point x="181" y="51"/>
      <point x="173" y="7"/>
      <point x="173" y="-58" type="curve" smooth="yes"/>
      <point x="173" y="-346"/>
      <point x="355" y="-524"/>
      <point x="650" y="-524" type="curve" smooth="yes"/>
      <point x="848" y="-524"/>
      <point x="1336" y="-458"/>
      <point x="1479" y="-252" type="curve" smooth="yes"/>
      <point x="1540" y="-164"/>
      <point x="1544" y="-46"/>
      <point x="1549" y="87" type="curve" smooth="yes"/>
      <point x="1561" y="413"/>
      <point x="1386" y="855"/>
      <point x="1126" y="855" type="curve" smooth="yes"/>
      <point x="866" y="855"/>
      <point x="719" y="496"/>
      <point x="719" y="260" type="curve" smooth="yes"/>
      <point x="719" y="58"/>
      <point x="843" y="-55"/>
      <point x="1063" y="-55" type="curve" smooth="yes"/>
      <point x="1145" y="-55"/>
      <point x="1236" y="-40"/>
      <point x="1312" y="-13" type="curve"/>
      <point x="1308" y="-125" type="line"/>
      <point x="1223" y="-155"/>
      <point x="1008" y="-230"/>
      <point x="697" y="-230" type="curve" smooth="yes"/>
      <point x="500" y="-230"/>
      <point x="389" y="-136"/>
      <point x="398" y="25" type="curve" smooth="yes"/>
      <point x="399" y="43"/>
      <point x="403" y="62"/>
      <point x="447" y="302" type="curve"/>
    </contour>
    <contour>
      <point x="922" y="400"/>
      <point x="998" y="571"/>
      <point x="1087" y="571" type="curve" smooth="yes"/>
      <point x="1171" y="571"/>
      <point x="1280" y="405"/>
      <point x="1303" y="240" type="curve"/>
      <point x="1242" y="227"/>
      <point x="1179" y="221"/>
      <point x="1105" y="221" type="curve" smooth="yes"/>
      <point x="1033" y="221"/>
      <point x="985" y="228"/>
      <point x="944" y="243" type="curve"/>
    </contour>
    <contour>
      <point x="1126" y="1066" type="move" name="top"/>
    </contour>
    <contour>
      <point x="687" y="-750" type="move" name="bottom"/>
    </contour>
  </outline>
</glyph>
<glyph name="dul-ar" format="1">
  <advance width="1225"/>
  <unicode hex="068E"/>
  <outline>
    <component base="dal-ar"/>
    <component base="threedotsupabove-ar" xOffset="382" yOffset="644"/>
    <contour>
      <point x="521" y="-240" type="move" name="bottom"/>
    </contour>
  </outline>
</glyph>
<glyph name="jeh-ar" format="1">
  <advance width="964"/>
  <unicode hex="0698"/>
  <outline>
    <component base="reh-ar"/>
    <component base="threedotsupabove-ar" xOffset="292" yOffset="339"/>
    <contour>
      <point x="353" y="-650" type="move" name="bottom"/>
    </contour>
  </outline>
</glyph>
<glyph name="fehDotless-ar" format="1">
  <advance width="1893"/>
  <unicode hex="06A1"/>
  <outline>
    <contour>
      <point x="194" y="642" type="line"/>
      <point x="174" y="486"/>
      <point x="173" y="434"/>
      <point x="173" y="396" type="curve" smooth="yes"/>
      <point x="173" y="100"/>
      <point x="356" y="-39"/>
      <point x="741" y="-39" type="curve" smooth="yes"/>
      <point x="956" y="-39"/>
      <point x="1208" y="-7"/>
      <point x="1402" y="44" type="curve" smooth="yes"/>
      <point x="1641" y="107"/>
      <point x="1758" y="250"/>
      <point x="1758" y="480" type="curve" smooth="yes"/>
      <point x="1758" y="753"/>
      <point x="1604" y="1163"/>
      <point x="1363" y="1163" type="curve" smooth="yes"/>
      <point x="1103" y="1163"/>
      <point x="978" y="848"/>
      <point x="978" y="612" type="curve" smooth="yes"/>
      <point x="978" y="435"/>
      <point x="1097" y="335"/>
      <point x="1305" y="335" type="curve" smooth="yes"/>
      <point x="1382" y="335"/>
      <point x="1469" y="351"/>
      <point x="1540" y="378" type="curve"/>
      <point x="1541" y="357" type="line"/>
      <point x="1404" y="303"/>
      <point x="1090" y="234"/>
      <point x="811" y="234" type="curve" smooth="yes"/>
      <point x="526" y="234"/>
      <point x="384" y="310"/>
      <point x="384" y="459" type="curve" smooth="yes"/>
      <point x="384" y="480"/>
      <point x="384" y="508"/>
      <point x="399" y="632" type="curve"/>
    </contour>
    <contour>
      <point x="1187" y="769"/>
      <point x="1245" y="878"/>
      <point x="1324" y="878" type="curve" smooth="yes"/>
      <point x="1388" y="878"/>
      <point x="1477" y="753"/>
      <point x="1516" y="606" type="curve"/>
      <point x="1479" y="599"/>
      <point x="1420" y="591"/>
      <point x="1354" y="591" type="curve" smooth="yes"/>
      <point x="1313" y="591"/>
      <point x="1217" y="606"/>
      <point x="1185" y="613" type="curve"/>
    </contour>
    <contour>
      <point x="1363" y="1368" type="move" name="top"/>
    </contour>
    <contour>
      <point x="743" y="-259" type="move" name="bottom"/>
    </contour>
  </outline>
</glyph>
<glyph name="keheh-ar" format="1">
  <advance width="1753"/>
  <unicode hex="06A9"/>
  <outline>
    <contour>
      <point x="194" y="655" type="line"/>
      <point x="173" y="478"/>
      <point x="173" y="453"/>
      <point x="173" y="405" type="curve" smooth="yes"/>
      <point x="173" y="103"/>
      <point x="354" y="-34"/>
      <point x="751" y="-34" type="curve" smooth="yes"/>
      <point x="1082" y="-34"/>
      <point x="1382" y="54"/>
      <point x="1517" y="114" type="curve" smooth="yes"/>
      <point x="1562" y="134"/>
      <point x="1618" y="296"/>
      <point x="1618" y="394" type="curve" smooth="yes"/>
      <point x="1618" y="593"/>
      <point x="1432" y="864"/>
      <point x="1160" y="1069" type="curve"/>
      <point x="1694" y="1237" type="line"/>
      <point x="1729" y="1521" type="line"/>
      <point x="1032" y="1288" type="line"/>
      <point x="903" y="920" type="line"/>
      <point x="1183" y="742"/>
      <point x="1373" y="531"/>
      <point x="1428" y="337" type="curve"/>
      <point x="1311" y="295"/>
      <point x="1085" y="239"/>
      <point x="811" y="239" type="curve" smooth="yes"/>
      <point x="527" y="239"/>
      <point x="382" y="317"/>
      <point x="382" y="464" type="curve" smooth="yes"/>
      <point x="382" y="475"/>
      <point x="380" y="494"/>
      <point x="398" y="637" type="curve"/>
    </contour>
    <contour>
      <point x="581" y="1007" type="move" name="top"/>
    </contour>
    <contour>
      <point x="751" y="-234" type="move" name="bottom"/>
    </contour>
    <contour>
      <point x="1590" y="1011" type="move" name="ring"/>
    </contour>
  </outline>
</glyph>
<glyph name="ng-ar" format="1">
  <advance width="1491"/>
  <unicode hex="06AD"/>
  <outline>
    <component base="kaf-ar"/>
    <component base="threedotsupabove-ar" xOffset="315" yOffset="431"/>
    <contour>
      <point x="645" y="-240" type="move" name="bottom"/>
    </contour>
  </outline>
</glyph>
<glyph name="noonghunna-ar" format="1">
  <advance width="1557"/>
  <unicode hex="06BA"/>
  <outline>
    <contour>
      <point x="173" y="-345"/>
      <point x="342" y="-512"/>
      <point x="629" y="-512" type="curve" smooth="yes"/>
      <point x="854" y="-512"/>
      <point x="1244" y="-406"/>
      <point x="1368" y="-242" type="curve" smooth="yes"/>
      <point x="1405" y="-193"/>
      <point x="1422" y="-139"/>
      <point x="1422" y="-70" type="curve" smooth="yes"/>
      <point x="1422" y="-11"/>
      <point x="1416" y="28"/>
      <point x="1338" y="632" type="curve"/>
      <point x="1082" y="506" type="line"/>
      <point x="1201" y="-95" type="line"/>
      <point x="1124" y="-136"/>
      <point x="915" y="-218"/>
      <point x="656" y="-218" type="curve" smooth="yes"/>
      <point x="483" y="-218"/>
      <point x="397" y="-145"/>
      <point x="397" y="1" type="curve" smooth="yes"/>
      <point x="397" y="49"/>
      <point x="403" y="72"/>
      <point x="441" y="259" type="curve"/>
      <point x="229" y="298" type="line"/>
      <point x="181" y="58"/>
      <point x="173" y="25"/>
      <point x="173" y="-61" type="curve" smooth="yes"/>
    </contour>
    <contour>
      <point x="730" y="495" type="move" name="top"/>
    </contour>
    <contour>
      <point x="636" y="-715" type="move" name="bottom"/>
    </contour>
    <contour>
      <point x="446" y="-681" type="move" name="ring"/>
    </contour>
  </outline>
</glyph>
<glyph name="hehDoachashmee-ar" format="1">
  <advance width="1410"/>
  <unicode hex="06BE"/>
  <outline>
    <contour>
      <point x="177" y="811"/>
      <point x="67" y="301"/>
      <point x="369" y="137" type="curve"/>
      <point x="173" y="-96" type="line"/>
      <point x="382" y="-191"/>
      <point x="444" y="-186"/>
      <point x="539" y="-49" type="curve" smooth="yes"/>
      <point x="641" y="99" type="line"/>
      <point x="1188" y="-27" type="line"/>
      <point x="1389" y="513"/>
      <point x="1256" y="797"/>
      <point x="623" y="1184" type="curve"/>
      <point x="558" y="974" type="line"/>
    </contour>
    <contour>
      <point x="384" y="613"/>
      <point x="492" y="723"/>
      <point x="597" y="709" type="curve" smooth="yes"/>
      <point x="641" y="703"/>
      <point x="675" y="687"/>
      <point x="699" y="658" type="curve"/>
      <point x="532" y="362" type="line"/>
      <point x="436" y="391"/>
      <point x="384" y="439"/>
      <point x="384" y="494" type="curve" smooth="yes"/>
    </contour>
    <contour>
      <point x="884" y="618" type="line"/>
      <point x="1017" y="513"/>
      <point x="1091" y="393"/>
      <point x="1093" y="277" type="curve"/>
      <point x="795" y="356" type="line"/>
    </contour>
    <contour>
      <point x="633" y="1400" type="move" name="top"/>
    </contour>
    <contour>
      <point x="707" y="-320" type="move" name="bottom"/>
    </contour>
  </outline>
</glyph>
<glyph name="ve-ar" format="1">
  <advance width="1117"/>
  <unicode hex="06CB"/>
  <outline>
    <component base="waw-ar"/>
    <component base="threedotsupabove-ar" xOffset="250" yOffset="522"/>
    <contour>
      <point x="425" y="-680" type="move" name="bottom"/>
    </contour>
  </outline>
</glyph>
<glyph name="yehTail-ar" format="1">
  <advance width="2006"/>
  <unicode hex="06CD"/>
  <outline>
    <contour>
      <point x="346" y="-40" type="line"/>
      <point x="515" y="26" type="line"/>
      <point x="509" y="-25"/>
      <point x="507" y="-69"/>
      <point x="507" y="-108" type="curve" smooth="yes"/>
      <point x="507" y="-435"/>
      <point x="671" y="-593"/>
      <point x="1009" y="-593" type="curve" smooth="yes"/>
      <point x="1323" y="-593"/>
      <point x="1871" y="-369"/>
      <point x="1871" y="-65" type="curve" smooth="yes"/>
      <point x="1871" y="45"/>
      <point x="1808" y="91"/>
      <point x="1648" y="104" type="curve" smooth="yes"/>
      <point x="1333" y="130"/>
      <point x="1288" y="142"/>
      <point x="1288" y="172" type="curve" smooth="yes"/>
      <point x="1288" y="247"/>
      <point x="1515" y="472"/>
      <point x="1593" y="472" type="curve" smooth="yes"/>
      <point x="1616" y="472"/>
      <point x="1637" y="464"/>
      <point x="1671" y="443" type="curve"/>
      <point x="1768" y="696" type="line"/>
      <point x="1730" y="730"/>
      <point x="1671" y="750"/>
      <point x="1609" y="750" type="curve" smooth="yes"/>
      <point x="1362" y="750"/>
      <point x="1068" y="316"/>
      <point x="1068" y="72" type="curve" smooth="yes"/>
      <point x="1068" y="-64"/>
      <point x="1161" y="-134"/>
      <point x="1363" y="-154" type="curve" smooth="yes"/>
      <point x="1556" y="-173" type="line"/>
      <point x="1390" y="-255"/>
      <point x="1204" y="-301"/>
      <point x="1037" y="-301" type="curve" smooth="yes"/>
      <point x="821" y="-301"/>
      <point x="726" y="-219"/>
      <point x="726" y="-36" type="curve" smooth="yes"/>
      <point x="726" y="51"/>
      <point x="741" y="140"/>
      <point x="741" y="207" type="curve" smooth="yes"/>
      <point x="741" y="440"/>
      <point x="570" y="361"/>
      <point x="173" y="202" type="curve"/>
    </contour>
    <contour>
      <point x="910" y="693" type="move" name="top"/>
    </contour>
    <contour>
      <point x="1011" y="-788" type="move" name="bottom"/>
    </contour>
  </outline>
</glyph>
<glyph name="yehbarree-ar" format="1">
  <advance width="1894"/>
  <unicode hex="06D2"/>
  <outline>
    <contour>
      <point x="1759" y="-65" type="line"/>
      <point x="1758" y="110"/>
      <point x="1770" y="212"/>
      <point x="1599" y="212" type="curve" smooth="yes"/>
      <point x="490" y="213" type="line" smooth="yes"/>
      <point x="419" y="213"/>
      <point x="387" y="225"/>
      <point x="384" y="245" type="curve" smooth="yes"/>
      <point x="371" y="331"/>
      <point x="690" y="336"/>
      <point x="822" y="622" type="curve"/>
      <point x="988" y="539" type="line"/>
      <point x="1090" y="782" type="line"/>
      <point x="1036" y="828"/>
      <point x="950" y="901"/>
      <point x="868" y="906" type="curve" smooth="yes"/>
      <point x="733" y="914"/>
      <point x="644" y="702"/>
      <point x="525" y="634" type="curve" smooth="yes"/>
      <point x="374" y="548"/>
      <point x="286" y="490"/>
      <point x="223" y="339" type="curve" smooth="yes"/>
      <point x="189" y="258"/>
      <point x="173" y="197"/>
      <point x="173" y="145" type="curve" smooth="yes"/>
      <point x="173" y="11"/>
      <point x="271" y="-65"/>
      <point x="442" y="-65" type="curve" smooth="yes"/>
    </contour>
    <contour>
      <point x="867" y="1114" type="move" name="top"/>
    </contour>
    <contour>
      <point x="927" y="-270" type="move" name="bottom"/>
    </contour>
  </outline>
</glyph>
<glyph name="sajdah-ar" format="1">
  <advance width="961"/>
  <unicode hex="06E9"/>
  <outline>
    <contour>
      <point x="742" y="657" type="line" smooth="yes"/>
      <point x="802" y="657"/>
      <point x="841" y="697"/>
      <point x="841" y="760" type="curve" smooth="yes"/>
      <point x="841" y="981"/>
      <point x="781" y="977"/>
      <point x="511" y="1179" type="curve"/>
      <point x="505" y="1186"/>
      <point x="492" y="1191"/>
      <point x="481" y="1191" type="curve" smooth="yes"/>
      <point x="470" y="1191"/>
      <point x="458" y="1187"/>
      <point x="450" y="1181" type="curve"/>
      <point x="182" y="979"/>
      <point x="120" y="983"/>
      <point x="120" y="760" type="curve" smooth="yes"/>
      <point x="120" y="699"/>
      <point x="163" y="657"/>
      <point x="227" y="657" type="curve" smooth="yes"/>
    </contour>
    <contour>
      <point x="721" y="6" type="line" smooth="yes"/>
      <point x="745" y="6"/>
      <point x="765" y="24"/>
      <point x="765" y="46" type="curve" smooth="yes"/>
      <point x="765" y="297" type="line" smooth="yes"/>
      <point x="765" y="319"/>
      <point x="745" y="337"/>
      <point x="721" y="337" type="curve" smooth="yes"/>
      <point x="241" y="337" type="line" smooth="yes"/>
      <point x="216" y="337"/>
      <point x="196" y="320"/>
      <point x="196" y="297" type="curve" smooth="yes"/>
      <point x="196" y="46" type="line" smooth="yes"/>
      <point x="196" y="23"/>
      <point x="216" y="6"/>
      <point x="241" y="6" type="curve" smooth="yes"/>
    </contour>
    <contour>
      <point x="721" y="395" type="line" smooth="yes"/>
      <point x="745" y="395"/>
      <point x="765" y="413"/>
      <point x="765" y="435" type="curve" smooth="yes"/>
      <point x="765" y="559" type="line" smooth="yes"/>
      <point x="765" y="581"/>
      <point x="745" y="599"/>
      <point x="721" y="599" type="curve" smooth="yes"/>
      <point x="241" y="599" type="line" smooth="yes"/>
      <point x="216" y="599"/>
      <point x="196" y="582"/>
      <point x="196" y="559" type="curve" smooth="yes"/>
      <point x="196" y="435" type="line" smooth="yes"/>
      <point x="196" y="412"/>
      <point x="216" y="395"/>
      <point x="241" y="395" type="curve" smooth="yes"/>
    </contour>
  </outline>
</glyph>
<glyph name="four-persian" format="1">
  <advance width="1206"/>
  <unicode hex="06F4"/>
  <outline>
    <contour>
      <point x="400" y="911" type="line"/>
      <point x="317" y="1219" type="line"/>
      <point x="120" y="1041" type="line"/>
      <point x="242" y="740"/>
      <point x="341" y="457"/>
      <point x="337" y="-29" type="curve"/>
      <point x="553" y="0" type="line"/>
      <point x="553" y="252"/>
      <point x="547" y="440"/>
      <point x="528" y="615" type="curve"/>
      <point x="572" y="607"/>
      <point x="622" y="602"/>
      <point x="677" y="602" type="curve" smooth="yes"/>
      <point x="778" y="602"/>
      <point x="966" y="628"/>
      <point x="1074" y="657" type="curve"/>
      <point x="1086" y="931" type="line"/>
      <point x="989" y="910"/>
      <point x="818" y="880"/>
      <point x="710" y="882" type="curve" smooth="yes"/>
      <point x="662" y="883" type="line"/>
      <point x="623" y="1096" type="line"/>
      <point x="737" y="1116"/>
      <point x="832" y="1114"/>
      <point x="964" y="1090" type="curve"/>
      <point x="964" y="1334" type="line"/>
      <point x="909" y="1357"/>
      <point x="833" y="1370"/>
      <point x="758" y="1370" type="curve" smooth="yes"/>
      <point x="513" y="1370"/>
      <point x="410" y="1211"/>
      <point x="425" y="913" type="curve"/>
    </contour>
  </outline>
</glyph>
<glyph name="five-persian" format="1">
  <advance width="1125"/>
  <unicode hex="06F5"/>
  <outline>
    <contour>
      <point x="860" y="-30"/>
      <point x="1005" y="157"/>
      <point x="1005" y="368" type="curve" smooth="yes"/>
      <point x="1005" y="654"/>
      <point x="784" y="921"/>
      <point x="490" y="1261" type="curve"/>
      <point x="314" y="1007" type="line"/>
      <point x="382" y="930" type="line"/>
      <point x="273" y="779"/>
      <point x="120" y="537"/>
      <point x="120" y="271" type="curve" smooth="yes"/>
      <point x="120" y="92"/>
      <point x="206" y="-23"/>
      <point x="345" y="-23" type="curve" smooth="yes"/>
      <point x="407" y="-23"/>
      <point x="466" y="5"/>
      <point x="513" y="56" type="curve"/>
      <point x="555" y="0"/>
      <point x="618" y="-30"/>
      <point x="693" y="-30" type="curve" smooth="yes"/>
    </contour>
    <contour>
      <point x="654" y="249"/>
      <point x="628" y="288"/>
      <point x="624" y="364" type="curve"/>
      <point x="461" y="356" type="line"/>
      <point x="465" y="304"/>
      <point x="437" y="256"/>
      <point x="380" y="256" type="curve" smooth="yes"/>
      <point x="340" y="256"/>
      <point x="313" y="287"/>
      <point x="313" y="333" type="curve" smooth="yes"/>
      <point x="313" y="463"/>
      <point x="438" y="667"/>
      <point x="522" y="773" type="curve"/>
      <point x="663" y="608"/>
      <point x="782" y="427"/>
      <point x="812" y="328" type="curve"/>
      <point x="791" y="286"/>
      <point x="745" y="249"/>
      <point x="714" y="249" type="curve" smooth="yes"/>
    </contour>
  </outline>
</glyph>
<glyph name="six-persian" format="1">
  <advance width="1219"/>
  <unicode hex="06F6"/>
  <outline>
    <contour>
      <point x="717" y="1335" type="line"/>
      <point x="668" y="1350"/>
      <point x="616" y="1347"/>
      <point x="561" y="1347" type="curve" smooth="yes"/>
      <point x="315" y="1347"/>
      <point x="120" y="1150"/>
      <point x="120" y="901" type="curve" smooth="yes"/>
      <point x="120" y="756"/>
      <point x="247" y="609"/>
      <point x="441" y="522" type="curve"/>
      <point x="338" y="365"/>
      <point x="252" y="205"/>
      <point x="179" y="80" type="curve"/>
      <point x="358" y="-70" type="line"/>
      <point x="530" y="185"/>
      <point x="718" y="522"/>
      <point x="1099" y="849" type="curve"/>
      <point x="1024" y="1137" type="line"/>
      <point x="850" y="1001"/>
      <point x="696" y="805"/>
      <point x="620" y="724" type="curve"/>
      <point x="348" y="933" type="line"/>
      <point x="405" y="1031"/>
      <point x="511" y="1084"/>
      <point x="623" y="1084" type="curve" smooth="yes"/>
      <point x="663" y="1084"/>
      <point x="690" y="1081"/>
      <point x="714" y="1074" type="curve"/>
    </contour>
  </outline>
</glyph>
<glyph name="bullet" format="1">
  <advance width="1015"/>
  <unicode hex="2022"/>
  <outline>
    <contour>
      <point x="722" y="105"/>
      <point x="895" y="277"/>
      <point x="895" y="490" type="curve" smooth="yes"/>
      <point x="895" y="701"/>
      <point x="721" y="873"/>
      <point x="508" y="873" type="curve" smooth="yes"/>
      <point x="294" y="873"/>
      <point x="120" y="701"/>
      <point x="120" y="490" type="curve" smooth="yes"/>
      <point x="120" y="277"/>
      <point x="293" y="105"/>
      <point x="508" y="105" type="curve" smooth="yes"/>
    </contour>
  </outline>
</glyph>
<glyph name="minus" format="1">
  <advance width="1282"/>
  <unicode hex="2212"/>
  <outline>
    <contour>
      <point x="1162" y="387" type="line"/>
      <point x="1162" y="590" type="line"/>
      <point x="120" y="590" type="line"/>
      <point x="120" y="387" type="line"/>
    </contour>
  </outline>
</glyph>
<glyph name="dottedCircle" format="1">
  <advance width="1093"/>
  <unicode hex="25CC"/>
  <outline>
    <contour>
      <point x="632" y="640"/>
      <point x="675" y="603"/>
      <point x="721" y="603" type="curve" smooth="yes"/>
      <point x="763" y="603"/>
      <point x="805" y="649"/>
      <point x="805" y="692" type="curve" smooth="yes"/>
      <point x="805" y="732"/>
      <point x="761" y="770"/>
      <point x="716" y="770" type="curve" smooth="yes"/>
      <point x="673" y="770"/>
      <point x="632" y="726"/>
      <point x="632" y="681" type="curve" smooth="yes"/>
    </contour>
    <contour>
      <point x="291" y="49"/>
      <point x="334" y="12"/>
      <point x="378" y="12" type="curve" smooth="yes"/>
      <point x="422" y="12"/>
      <point x="461" y="55"/>
      <point x="461" y="102" type="curve" smooth="yes"/>
      <point x="461" y="140"/>
      <point x="418" y="177"/>
      <point x="375" y="177" type="curve" smooth="yes"/>
      <point x="332" y="177"/>
      <point x="291" y="134"/>
      <point x="291" y="88" type="curve" smooth="yes"/>
    </contour>
    <contour>
      <point x="293" y="138"/>
      <point x="339" y="177"/>
      <point x="339" y="218" type="curve" smooth="yes"/>
      <point x="339" y="261"/>
      <point x="299" y="302"/>
      <point x="256" y="302" type="curve" smooth="yes"/>
      <point x="211" y="302"/>
      <point x="164" y="263"/>
      <point x="164" y="223" type="curve" smooth="yes"/>
      <point x="164" y="179"/>
      <point x="202" y="138"/>
      <point x="246" y="138" type="curve" smooth="yes"/>
    </contour>
    <contour>
      <point x="599" y="-31"/>
      <point x="631" y="-2"/>
      <point x="631" y="47" type="curve" smooth="yes"/>
      <point x="631" y="95"/>
      <point x="597" y="126"/>
      <point x="546" y="126" type="curve" smooth="yes"/>
      <point x="493" y="126"/>
      <point x="461" y="97"/>
      <point x="461" y="47" type="curve" smooth="yes"/>
      <point x="461" y="-2"/>
      <point x="493" y="-31"/>
      <point x="546" y="-31" type="curve" smooth="yes"/>
    </contour>
    <contour>
      <point x="259" y="311"/>
      <point x="291" y="340"/>
      <point x="291" y="391" type="curve" smooth="yes"/>
      <point x="291" y="438"/>
      <point x="257" y="469"/>
      <point x="205" y="469" type="curve" smooth="yes"/>
      <point x="152" y="469"/>
      <point x="120" y="440"/>
      <point x="120" y="391" type="curve" smooth="yes"/>
      <point x="120" y="341"/>
      <point x="152" y="311"/>
      <point x="205" y="311" type="curve" smooth="yes"/>
    </contour>
    <contour>
      <point x="162" y="515"/>
      <point x="204" y="479"/>
      <point x="250" y="479" type="curve" smooth="yes"/>
      <point x="293" y="479"/>
      <point x="334" y="523"/>
      <point x="334" y="568" type="curve" smooth="yes"/>
      <point x="334" y="608"/>
      <point x="291" y="645"/>
      <point x="247" y="645" type="curve" smooth="yes"/>
      <point x="204" y="645"/>
      <point x="162" y="601"/>
      <point x="162" y="556" type="curve" smooth="yes"/>
    </contour>
    <contour>
      <point x="758" y="11"/>
      <point x="805" y="50"/>
      <point x="805" y="90" type="curve" smooth="yes"/>
      <point x="805" y="133"/>
      <point x="765" y="175"/>
      <point x="724" y="175" type="curve" smooth="yes"/>
      <point x="678" y="175"/>
      <point x="632" y="136"/>
      <point x="632" y="96" type="curve" smooth="yes"/>
      <point x="632" y="51"/>
      <point x="669" y="11"/>
      <point x="712" y="11" type="curve" smooth="yes"/>
    </contour>
    <contour>
      <point x="758" y="174"/>
      <point x="802" y="136"/>
      <point x="847" y="136" type="curve" smooth="yes"/>
      <point x="890" y="136"/>
      <point x="930" y="180"/>
      <point x="930" y="225" type="curve" smooth="yes"/>
      <point x="930" y="264"/>
      <point x="887" y="301"/>
      <point x="842" y="301" type="curve" smooth="yes"/>
      <point x="799" y="301"/>
      <point x="758" y="257"/>
      <point x="758" y="212" type="curve" smooth="yes"/>
    </contour>
    <contour>
      <point x="413" y="607"/>
      <point x="461" y="647"/>
      <point x="461" y="686" type="curve" smooth="yes"/>
      <point x="461" y="728"/>
      <point x="420" y="770"/>
      <point x="378" y="770" type="curve" smooth="yes"/>
      <point x="331" y="770"/>
      <point x="287" y="731"/>
      <point x="287" y="690" type="curve" smooth="yes"/>
      <point x="287" y="647"/>
      <point x="326" y="607"/>
      <point x="368" y="607" type="curve" smooth="yes"/>
    </contour>
    <contour>
      <point x="942" y="311"/>
      <point x="973" y="341"/>
      <point x="973" y="391" type="curve" smooth="yes"/>
      <point x="973" y="439"/>
      <point x="940" y="469"/>
      <point x="889" y="469" type="curve" smooth="yes"/>
      <point x="836" y="469"/>
      <point x="804" y="440"/>
      <point x="804" y="391" type="curve" smooth="yes"/>
      <point x="804" y="341"/>
      <point x="836" y="311"/>
      <point x="889" y="311" type="curve" smooth="yes"/>
    </contour>
    <contour>
      <point x="599" y="656"/>
      <point x="631" y="685"/>
      <point x="631" y="735" type="curve" smooth="yes"/>
      <point x="631" y="783"/>
      <point x="597" y="814"/>
      <point x="546" y="814" type="curve" smooth="yes"/>
      <point x="493" y="814"/>
      <point x="461" y="785"/>
      <point x="461" y="735" type="curve" smooth="yes"/>
      <point x="461" y="685"/>
      <point x="493" y="656"/>
      <point x="546" y="656" type="curve" smooth="yes"/>
    </contour>
    <contour>
      <point x="884" y="480"/>
      <point x="930" y="519"/>
      <point x="930" y="559" type="curve" smooth="yes"/>
      <point x="930" y="603"/>
      <point x="892" y="642"/>
      <point x="849" y="642" type="curve" smooth="yes"/>
      <point x="802" y="642"/>
      <point x="757" y="604"/>
      <point x="757" y="564" type="curve" smooth="yes"/>
      <point x="757" y="520"/>
      <point x="795" y="480"/>
      <point x="837" y="480" type="curve" smooth="yes"/>
    </contour>
  </outline>
</glyph>
<glyph name="whiteStar.circled" format="1">
  <advance width="1016"/>
  <unicode hex="272A"/>
  <outline>
    <contour>
      <point x="120" y="281"/>
      <point x="294" y="113"/>
      <point x="508" y="113" type="curve" smooth="yes"/>
      <point x="722" y="113"/>
      <point x="896" y="281"/>
      <point x="896" y="488" type="curve" smooth="yes"/>
      <point x="896" y="695"/>
      <point x="721" y="865"/>
      <point x="508" y="865" type="curve" smooth="yes"/>
      <point x="295" y="865"/>
      <point x="120" y="695"/>
      <point x="120" y="488" type="curve" smooth="yes"/>
    </contour>
    <contour>
      <point x="458" y="564" type="line"/>
      <point x="513" y="781" type="line"/>
      <point x="580" y="563" type="line"/>
      <point x="825" y="575" type="line"/>
      <point x="615" y="440" type="line"/>
      <point x="700" y="225" type="line"/>
      <point x="514" y="366" type="line"/>
      <point x="338" y="218" type="line"/>
      <point x="418" y="440" type="line"/>
      <point x="203" y="571" type="line"/>
    </contour>
  </outline>
</glyph>
<glyph name="alefWasla-ar.fina" format="1">
  <advance width="692"/>
  <unicode hex="FB51"/>
  <outline>
    <component base="wasla-ar" xOffset="-42" yOffset="568"/>
    <component base="alef-ar.fina.short"/>
    <contour>
      <point x="303" y="2080" type="move" name="top"/>
    </contour>
  </outline>
</glyph>
<glyph name="veh-ar.init" format="1">
  <advance width="1011"/>
  <unicode hex="FB6C"/>
  <outline>
    <component base="fehDotless-ar.init"/>
    <component base="threedotsupabove-ar" xOffset="137" yOffset="784"/>
    <contour>
      <point x="383" y="-210" type="move" name="bottom"/>
    </contour>
  </outline>
</glyph>
<glyph name="veh-ar.medi" format="1">
  <advance width="1018"/>
  <unicode hex="FB6D"/>
  <outline>
    <component base="fehDotless-ar.medi"/>
    <component base="threedotsupabove-ar" xOffset="229" yOffset="662"/>
    <contour>
      <point x="372" y="-210" type="move" name="bottom"/>
    </contour>
  </outline>
</glyph>
<glyph name="tcheh-ar.init" format="1">
  <advance width="1642"/>
  <unicode hex="FB7C"/>
  <outline>
    <component base="hah-ar.init"/>
    <component base="threedotsdownbelow-ar" xOffset="326" yOffset="-62"/>
    <contour>
      <point x="518" y="1080" type="move" name="top"/>
    </contour>
  </outline>
</glyph>
<glyph name="tcheh-ar.medi" format="1">
  <advance width="1574"/>
  <unicode hex="FB7D"/>
  <outline>
    <component base="hah-ar.medi"/>
    <component base="threedotsdownbelow-ar" xOffset="325" yOffset="-64"/>
    <contour>
      <point x="516" y="1074" type="move" name="top"/>
    </contour>
  </outline>
</glyph>
<glyph name="dul-ar.fina" format="1">
  <advance width="1366"/>
  <unicode hex="FB87"/>
  <outline>
    <component base="dal-ar.fina"/>
    <component base="threedotsupabove-ar" xOffset="545" yOffset="614"/>
    <contour>
      <point x="555" y="-250" type="move" name="bottom"/>
    </contour>
  </outline>
</glyph>
<glyph name="keheh-ar.fina" format="1">
  <advance width="1882"/>
  <unicode hex="FB8F"/>
  <outline>
    <contour>
      <point x="1830" y="273" type="line" smooth="yes"/>
      <point x="1729" y="273"/>
      <point x="1692" y="298"/>
      <point x="1638" y="403" type="curve" smooth="yes"/>
      <point x="1525" y="623"/>
      <point x="1440" y="861"/>
      <point x="1158" y="1063" type="curve"/>
      <point x="1805" y="1265" type="line"/>
      <point x="1818" y="1542" type="line"/>
      <point x="1022" y="1280" type="line"/>
      <point x="879" y="925" type="line"/>
      <point x="1212" y="754"/>
      <point x="1349" y="481"/>
      <point x="1411" y="332" type="curve"/>
      <point x="1280" y="290"/>
      <point x="1072" y="235"/>
      <point x="817" y="235" type="curve" smooth="yes"/>
      <point x="526" y="235"/>
      <point x="382" y="311"/>
      <point x="382" y="459" type="curve" smooth="yes"/>
      <point x="382" y="477"/>
      <point x="383" y="490"/>
      <point x="399" y="648" type="curve"/>
      <point x="196" y="665" type="line"/>
      <point x="173" y="476"/>
      <point x="173" y="449"/>
      <point x="173" y="400" type="curve" smooth="yes"/>
      <point x="173" y="96"/>
      <point x="354" y="-39"/>
      <point x="756" y="-39" type="curve" smooth="yes"/>
      <point x="1047" y="-39"/>
      <point x="1340" y="27"/>
      <point x="1489" y="87" type="curve" smooth="yes"/>
      <point x="1514" y="97"/>
      <point x="1531" y="113"/>
      <point x="1554" y="152" type="curve"/>
      <point x="1637" y="51"/>
      <point x="1730" y="0"/>
      <point x="1830" y="0" type="curve" smooth="yes"/>
      <point x="1912" y="0" type="line"/>
      <point x="1955" y="39"/>
      <point x="1977" y="86"/>
      <point x="1977" y="137" type="curve" smooth="yes"/>
      <point x="1977" y="188"/>
      <point x="1955" y="233"/>
      <point x="1912" y="273" type="curve"/>
    </contour>
    <contour>
      <point x="610" y="1082" type="move" name="top"/>
    </contour>
    <contour>
      <point x="755" y="-244" type="move" name="bottom"/>
    </contour>
    <contour>
      <point x="1700" y="1045" type="move" name="ring"/>
    </contour>
  </outline>
</glyph>
<glyph name="gaf-ar.fina" format="1">
  <advance width="1883"/>
  <unicode hex="FB93"/>
  <outline>
    <contour>
      <point x="1139" y="1579" type="line"/>
      <point x="1098" y="1361" type="line"/>
      <point x="1677" y="1542" type="line"/>
      <point x="1693" y="1752" type="line"/>
    </contour>
    <contour>
      <point x="1830" y="273" type="line" smooth="yes"/>
      <point x="1729" y="273"/>
      <point x="1692" y="298"/>
      <point x="1638" y="403" type="curve" smooth="yes"/>
      <point x="1525" y="623"/>
      <point x="1439" y="862"/>
      <point x="1156" y="1063" type="curve"/>
      <point x="1805" y="1265" type="line"/>
      <point x="1819" y="1542" type="line"/>
      <point x="1022" y="1280" type="line"/>
      <point x="879" y="925" type="line"/>
      <point x="1212" y="755"/>
      <point x="1350" y="481"/>
      <point x="1412" y="332" type="curve"/>
      <point x="1281" y="290"/>
      <point x="1072" y="235"/>
      <point x="818" y="235" type="curve" smooth="yes"/>
      <point x="526" y="235"/>
      <point x="382" y="312"/>
      <point x="382" y="460" type="curve" smooth="yes"/>
      <point x="382" y="472"/>
      <point x="386" y="513"/>
      <point x="399" y="648" type="curve"/>
      <point x="196" y="665" type="line"/>
      <point x="175" y="475"/>
      <point x="173" y="452"/>
      <point x="173" y="401" type="curve" smooth="yes"/>
      <point x="173" y="96"/>
      <point x="353" y="-38"/>
      <point x="760" y="-38" type="curve" smooth="yes"/>
      <point x="987" y="-38"/>
      <point x="1218" y="7"/>
      <point x="1374" y="49" type="curve" smooth="yes"/>
      <point x="1485" y="79"/>
      <point x="1523" y="116"/>
      <point x="1551" y="156" type="curve"/>
      <point x="1633" y="53"/>
      <point x="1727" y="0"/>
      <point x="1830" y="0" type="curve" smooth="yes"/>
      <point x="1913" y="0" type="line"/>
      <point x="1956" y="39"/>
      <point x="1978" y="86"/>
      <point x="1978" y="137" type="curve" smooth="yes"/>
      <point x="1978" y="188"/>
      <point x="1956" y="233"/>
      <point x="1913" y="273" type="curve"/>
    </contour>
    <contour>
      <point x="616" y="1103" type="move" name="top"/>
    </contour>
    <contour>
      <point x="760" y="-235" type="move" name="bottom"/>
    </contour>
  </outline>
</glyph>
<glyph name="gaf-ar.init" format="1">
  <advance width="867"/>
  <unicode hex="FB94"/>
  <outline>
    <contour>
      <point x="239" y="1579" type="line"/>
      <point x="198" y="1361" type="line"/>
      <point x="698" y="1520" type="line"/>
      <point x="714" y="1731" type="line"/>
    </contour>
    <contour>
      <point x="117" y="1279" type="line"/>
      <point x="-18" y="926" type="line"/>
      <point x="325" y="747"/>
      <point x="481" y="499"/>
      <point x="533" y="348" type="curve"/>
      <point x="385" y="284"/>
      <point x="224" y="273"/>
      <point x="44" y="273" type="curve" smooth="yes"/>
      <point x="-30" y="273" type="line" smooth="yes"/>
      <point x="-102" y="273"/>
      <point x="-160" y="212"/>
      <point x="-160" y="137" type="curve" smooth="yes"/>
      <point x="-160" y="61"/>
      <point x="-102" y="0"/>
      <point x="-30" y="0" type="curve" smooth="yes"/>
      <point x="44" y="0" type="line" smooth="yes"/>
      <point x="243" y="0"/>
      <point x="493" y="35"/>
      <point x="635" y="133" type="curve" smooth="yes"/>
      <point x="651" y="144"/>
      <point x="660" y="154"/>
      <point x="667" y="169" type="curve" smooth="yes"/>
      <point x="704" y="247"/>
      <point x="732" y="337"/>
      <point x="732" y="397" type="curve" smooth="yes"/>
      <point x="732" y="653"/>
      <point x="496" y="922"/>
      <point x="265" y="1067" type="curve"/>
      <point x="827" y="1243" type="line"/>
      <point x="837" y="1520" type="line"/>
    </contour>
    <contour>
      <point x="466" y="1924" type="move" name="top"/>
    </contour>
    <contour>
      <point x="312" y="-207" type="move" name="bottom"/>
    </contour>
  </outline>
</glyph>
<glyph name="gaf-ar.medi" format="1">
  <advance width="1013"/>
  <unicode hex="FB95"/>
  <outline>
    <contour>
      <point x="272" y="1579" type="line"/>
      <point x="228" y="1361" type="line"/>
      <point x="810" y="1542" type="line"/>
      <point x="825" y="1753" type="line"/>
    </contour>
    <contour>
      <point x="962" y="273" type="line" smooth="yes"/>
      <point x="864" y="273"/>
      <point x="825" y="300"/>
      <point x="770" y="407" type="curve" smooth="yes"/>
      <point x="657" y="627"/>
      <point x="570" y="861"/>
      <point x="291" y="1063" type="curve"/>
      <point x="937" y="1265" type="line"/>
      <point x="948" y="1543" type="line"/>
      <point x="156" y="1281" type="line"/>
      <point x="11" y="925" type="line"/>
      <point x="347" y="754"/>
      <point x="483" y="482"/>
      <point x="543" y="335" type="curve"/>
      <point x="426" y="294"/>
      <point x="255" y="273"/>
      <point x="44" y="273" type="curve" smooth="yes"/>
      <point x="-30" y="273" type="line" smooth="yes"/>
      <point x="-102" y="273"/>
      <point x="-160" y="212"/>
      <point x="-160" y="137" type="curve" smooth="yes"/>
      <point x="-160" y="61"/>
      <point x="-102" y="0"/>
      <point x="-30" y="0" type="curve" smooth="yes"/>
      <point x="44" y="0" type="line" smooth="yes"/>
      <point x="213" y="0"/>
      <point x="419" y="32"/>
      <point x="568" y="84" type="curve" smooth="yes"/>
      <point x="631" y="106"/>
      <point x="658" y="122"/>
      <point x="684" y="158" type="curve"/>
      <point x="768" y="54"/>
      <point x="862" y="0"/>
      <point x="962" y="0" type="curve" smooth="yes"/>
      <point x="1043" y="0" type="line"/>
      <point x="1086" y="39"/>
      <point x="1108" y="86"/>
      <point x="1108" y="137" type="curve" smooth="yes"/>
      <point x="1108" y="188"/>
      <point x="1086" y="233"/>
      <point x="1043" y="273" type="curve"/>
    </contour>
    <contour>
      <point x="539" y="1933" type="move" name="top"/>
    </contour>
    <contour>
      <point x="363" y="-198" type="move" name="bottom"/>
    </contour>
  </outline>
</glyph>
<glyph name="noonghunna-ar.fina" format="1">
  <advance width="1675"/>
  <unicode hex="FB9F"/>
  <outline>
    <contour>
      <point x="1617" y="273" type="line" smooth="yes"/>
      <point x="1446" y="273"/>
      <point x="1387" y="307"/>
      <point x="1376" y="406" type="curve" smooth="yes"/>
      <point x="1355" y="594" type="line"/>
      <point x="1105" y="454" type="line"/>
      <point x="1192" y="-107" type="line"/>
      <point x="981" y="-188"/>
      <point x="841" y="-216"/>
      <point x="657" y="-216" type="curve" smooth="yes"/>
      <point x="482" y="-216"/>
      <point x="398" y="-147"/>
      <point x="398" y="-4" type="curve" smooth="yes"/>
      <point x="398" y="48"/>
      <point x="404" y="75"/>
      <point x="442" y="255" type="curve"/>
      <point x="229" y="292" type="line"/>
      <point x="183" y="55"/>
      <point x="173" y="16"/>
      <point x="173" y="-77" type="curve" smooth="yes"/>
      <point x="173" y="-355"/>
      <point x="338" y="-510"/>
      <point x="631" y="-510" type="curve" smooth="yes"/>
      <point x="855" y="-510"/>
      <point x="1245" y="-402"/>
      <point x="1370" y="-240" type="curve" smooth="yes"/>
      <point x="1426" y="-167"/>
      <point x="1427" y="-86"/>
      <point x="1417" y="29" type="curve"/>
      <point x="1463" y="8"/>
      <point x="1523" y="0"/>
      <point x="1617" y="0" type="curve" smooth="yes"/>
      <point x="1705" y="0" type="line"/>
      <point x="1748" y="39"/>
      <point x="1770" y="86"/>
      <point x="1770" y="137" type="curve" smooth="yes"/>
      <point x="1770" y="188"/>
      <point x="1748" y="233"/>
      <point x="1705" y="273" type="curve"/>
    </contour>
    <contour>
      <point x="732" y="495" type="move" name="top"/>
    </contour>
    <contour>
      <point x="648" y="-715" type="move" name="bottom"/>
    </contour>
    <contour>
      <point x="463" y="-680" type="move" name="ring"/>
    </contour>
  </outline>
</glyph>
<glyph name="hehgoal-ar.fina" format="1">
  <advance width="1234"/>
  <unicode hex="FBA7"/>
  <outline>
    <contour>
      <point x="1174" y="273" type="line" smooth="yes"/>
      <point x="1071" y="273"/>
      <point x="999" y="314"/>
      <point x="920" y="364" type="curve" smooth="yes"/>
      <point x="833" y="419"/>
      <point x="744" y="494"/>
      <point x="659" y="494" type="curve" smooth="yes"/>
      <point x="553" y="494"/>
      <point x="452" y="404"/>
      <point x="173" y="75" type="curve"/>
      <point x="305" y="-60" type="line"/>
      <point x="414" y="63"/>
      <point x="595" y="245"/>
      <point x="602" y="245" type="curve" smooth="yes"/>
      <point x="648" y="245"/>
      <point x="879" y="0"/>
      <point x="1120" y="0" type="curve" smooth="yes"/>
      <point x="1264" y="0" type="line"/>
      <point x="1307" y="39"/>
      <point x="1329" y="86"/>
      <point x="1329" y="137" type="curve" smooth="yes"/>
      <point x="1329" y="188"/>
      <point x="1307" y="233"/>
      <point x="1264" y="273" type="curve"/>
    </contour>
    <contour>
      <point x="658" y="703" type="move" name="top"/>
    </contour>
    <contour>
      <point x="612" y="-221" type="move" name="bottom"/>
    </contour>
  </outline>
</glyph>
<glyph name="hehgoal-ar.init" format="1">
  <advance width="778"/>
  <unicode hex="FBA8"/>
  <outline>
    <component base="behDotless-ar.init"/>
    <component base="comma-ar" xOffset="-12" yOffset="-734"/>
    <contour>
      <point x="249" y="-980" type="move" name="bottom"/>
    </contour>
  </outline>
</glyph>
<glyph name="hehgoal-ar.medi" format="1">
  <advance width="1222"/>
  <unicode hex="FBA9"/>
  <outline>
    <contour>
      <point x="1192" y="273" type="line" smooth="yes"/>
      <point x="843" y="273"/>
      <point x="671" y="195"/>
      <point x="612" y="-5" type="curve"/>
      <point x="595" y="79"/>
      <point x="587" y="165"/>
      <point x="587" y="255" type="curve" smooth="yes"/>
      <point x="587" y="294"/>
      <point x="590" y="329"/>
      <point x="608" y="566" type="curve"/>
      <point x="400" y="560" type="line"/>
      <point x="381" y="396" type="line" smooth="yes"/>
      <point x="366" y="269"/>
      <point x="175" y="273"/>
      <point x="49" y="273" type="curve" smooth="yes"/>
      <point x="-30" y="273" type="line" smooth="yes"/>
      <point x="-102" y="273"/>
      <point x="-160" y="212"/>
      <point x="-160" y="137" type="curve" smooth="yes"/>
      <point x="-160" y="61"/>
      <point x="-102" y="0"/>
      <point x="-30" y="0" type="curve" smooth="yes"/>
      <point x="42" y="0" type="line" smooth="yes"/>
      <point x="175" y="0"/>
      <point x="282" y="25"/>
      <point x="368" y="78" type="curve"/>
      <point x="389" y="-232"/>
      <point x="582" y="-509"/>
      <point x="652" y="-618" type="curve"/>
      <point x="883" y="-347" type="line"/>
      <point x="831" y="-247"/>
      <point x="790" y="-163"/>
      <point x="776" y="-62" type="curve"/>
      <point x="888" y="-16"/>
      <point x="1000" y="0"/>
      <point x="1192" y="0" type="curve" smooth="yes"/>
      <point x="1252" y="0" type="line"/>
      <point x="1295" y="39"/>
      <point x="1317" y="86"/>
      <point x="1317" y="137" type="curve" smooth="yes"/>
      <point x="1317" y="188"/>
      <point x="1295" y="233"/>
      <point x="1252" y="273" type="curve"/>
    </contour>
    <contour>
      <point x="502" y="773" type="move" name="top"/>
    </contour>
    <contour>
      <point x="671" y="-818" type="move" name="bottom"/>
    </contour>
  </outline>
</glyph>
<glyph name="hehDoachashmee-ar.fina" format="1">
  <advance width="1572"/>
  <unicode hex="FBAB"/>
  <outline>
    <contour>
      <point x="1431" y="273" type="line" smooth="yes"/>
      <point x="1382" y="273"/>
      <point x="1329" y="273"/>
      <point x="1283" y="274" type="curve"/>
      <point x="1347" y="630"/>
      <point x="1178" y="860"/>
      <point x="623" y="1200" type="curve"/>
      <point x="558" y="990" type="line"/>
      <point x="177" y="827"/>
      <point x="67" y="317"/>
      <point x="369" y="153" type="curve"/>
      <point x="173" y="-80" type="line"/>
      <point x="382" y="-175"/>
      <point x="444" y="-170"/>
      <point x="539" y="-33" type="curve" smooth="yes"/>
      <point x="641" y="115" type="line"/>
      <point x="1120" y="16"/>
      <point x="1403" y="0"/>
      <point x="1542" y="0" type="curve" smooth="yes"/>
      <point x="1602" y="0" type="line"/>
      <point x="1645" y="39"/>
      <point x="1667" y="86"/>
      <point x="1667" y="137" type="curve" smooth="yes"/>
      <point x="1667" y="188"/>
      <point x="1645" y="233"/>
      <point x="1602" y="273" type="curve"/>
    </contour>
    <contour>
      <point x="436" y="407"/>
      <point x="384" y="455"/>
      <point x="384" y="510" type="curve" smooth="yes"/>
      <point x="384" y="629"/>
      <point x="492" y="739"/>
      <point x="597" y="725" type="curve" smooth="yes"/>
      <point x="641" y="719"/>
      <point x="675" y="703"/>
      <point x="699" y="674" type="curve"/>
      <point x="532" y="378" type="line"/>
    </contour>
    <contour>
      <point x="884" y="635" type="line"/>
      <point x="979" y="565"/>
      <point x="1093" y="476"/>
      <point x="1093" y="334" type="curve"/>
      <point x="796" y="376" type="line"/>
    </contour>
    <contour>
      <point x="634" y="1407" type="move" name="top"/>
    </contour>
    <contour>
      <point x="690" y="-341" type="move" name="bottom"/>
    </contour>
  </outline>
</glyph>
<glyph name="hehDoachashmee-ar.medi" format="1">
  <advance width="1514"/>
  <unicode hex="FBAD"/>
  <outline>
    <contour>
      <point x="1390" y="273" type="line" smooth="yes"/>
      <point x="1341" y="273"/>
      <point x="1266" y="279"/>
      <point x="1212" y="282" type="curve"/>
      <point x="1277" y="645"/>
      <point x="1098" y="896"/>
      <point x="552" y="1230" type="curve"/>
      <point x="487" y="1020" type="line"/>
      <point x="177" y="888"/>
      <point x="20" y="502"/>
      <point x="177" y="284" type="curve"/>
      <point x="135" y="277"/>
      <point x="85" y="273"/>
      <point x="44" y="273" type="curve" smooth="yes"/>
      <point x="-30" y="273" type="line" smooth="yes"/>
      <point x="-102" y="273"/>
      <point x="-160" y="212"/>
      <point x="-160" y="137" type="curve" smooth="yes"/>
      <point x="-160" y="61"/>
      <point x="-102" y="0"/>
      <point x="-30" y="0" type="curve" smooth="yes"/>
      <point x="44" y="0" type="line" smooth="yes"/>
      <point x="160" y="0"/>
      <point x="351" y="58"/>
      <point x="536" y="148" type="curve"/>
      <point x="1062" y="-7"/>
      <point x="1342" y="0"/>
      <point x="1481" y="0" type="curve" smooth="yes"/>
      <point x="1544" y="0" type="line"/>
      <point x="1587" y="39"/>
      <point x="1609" y="86"/>
      <point x="1609" y="137" type="curve" smooth="yes"/>
      <point x="1609" y="188"/>
      <point x="1587" y="233"/>
      <point x="1544" y="273" type="curve"/>
    </contour>
    <contour>
      <point x="365" y="437"/>
      <point x="313" y="485"/>
      <point x="313" y="540" type="curve" smooth="yes"/>
      <point x="313" y="659"/>
      <point x="421" y="769"/>
      <point x="526" y="755" type="curve" smooth="yes"/>
      <point x="570" y="749"/>
      <point x="604" y="733"/>
      <point x="628" y="704" type="curve"/>
      <point x="461" y="408" type="line"/>
    </contour>
    <contour>
      <point x="813" y="664" type="line"/>
      <point x="944" y="560"/>
      <point x="1020" y="437"/>
      <point x="1022" y="320" type="curve"/>
      <point x="724" y="402" type="line"/>
    </contour>
    <contour>
      <point x="569" y="1448" type="move" name="top"/>
    </contour>
    <contour>
      <point x="498" y="-205" type="move" name="bottom"/>
    </contour>
  </outline>
</glyph>
<glyph name="yehbarree-ar.fina" format="1">
  <advance width="1030"/>
  <unicode hex="FBAF"/>
  <outline>
    <contour>
      <point x="491" y="-220" type="line" smooth="yes"/>
      <point x="420" y="-220"/>
      <point x="384" y="-207"/>
      <point x="384" y="-192" type="curve" smooth="yes"/>
      <point x="384" y="-101"/>
      <point x="578" y="0"/>
      <point x="755" y="0" type="curve" smooth="yes"/>
      <point x="1060" y="0" type="line"/>
      <point x="1103" y="39"/>
      <point x="1125" y="86"/>
      <point x="1125" y="137" type="curve" smooth="yes"/>
      <point x="1125" y="188"/>
      <point x="1103" y="233"/>
      <point x="1060" y="273" type="curve"/>
      <point x="774" y="273" type="line" smooth="yes"/>
      <point x="468" y="273"/>
      <point x="173" y="0"/>
      <point x="173" y="-285" type="curve" smooth="yes"/>
      <point x="173" y="-416"/>
      <point x="270" y="-487"/>
      <point x="443" y="-487" type="curve" smooth="yes"/>
      <point x="1760" y="-487" type="line"/>
      <point x="1759" y="-315"/>
      <point x="1773" y="-221"/>
      <point x="1600" y="-221" type="curve" smooth="yes"/>
    </contour>
    <contour>
      <point x="798" y="483" type="move" name="top"/>
    </contour>
    <contour>
      <point x="742" y="-694" type="move" name="bottom"/>
    </contour>
  </outline>
</glyph>
<glyph name="dotabove-ar" format="1">
  <advance width="0"/>
  <unicode hex="FBB2"/>
  <outline>
    <component base="dotcenter-ar" yOffset="297"/>
    <contour>
      <point x="179" y="1299" type="move" name="top"/>
    </contour>
    <contour>
      <point x="208" y="718" type="move" name="_top"/>
    </contour>
  </outline>
</glyph>
<glyph name="twodotshorizontalabove-ar" format="1">
  <advance width="0"/>
  <unicode hex="FBB4"/>
  <outline>
    <component base="twodotshorizontalbelow-ar" xOffset="8" yOffset="1341"/>
    <contour>
      <point x="345" y="1372" type="move" name="top"/>
    </contour>
    <contour>
      <point x="355" y="821" type="move" name="_top"/>
    </contour>
  </outline>
</glyph>
<glyph name="threedotsdownabove-ar" format="1">
  <advance width="0"/>
  <unicode hex="FBB8"/>
  <outline>
    <component base="threedotsdowncenter-ar" xOffset="7" yOffset="328"/>
    <contour>
      <point x="338" y="1318" type="move" name="top"/>
    </contour>
    <contour>
      <point x="358" y="548" type="move" name="_top"/>
    </contour>
  </outline>
</glyph>
<glyph name="threedotsdownbelow-ar" format="1">
  <advance width="0"/>
  <unicode hex="FBB9"/>
  <outline>
    <component base="threedotsdowncenter-ar" xOffset="7" yOffset="-920"/>
    <contour>
      <point x="339" y="-136" type="move" name="_bottom"/>
    </contour>
    <contour>
      <point x="358" y="-903" type="move" name="bottom"/>
    </contour>
  </outline>
</glyph>
<glyph name="fourdotsbelow-ar" format="1">
  <advance width="0"/>
  <unicode hex="FBBB"/>
  <outline>
    <component base="fourdotsabove-ar" yOffset="-1265"/>
    <contour>
      <point x="289" y="-52" type="move" name="_bottom"/>
    </contour>
    <contour>
      <point x="335" y="-862" type="move" name="bottom"/>
    </contour>
  </outline>
</glyph>
<glyph name="ng-ar.init" format="1">
  <advance width="869"/>
  <unicode hex="FBD5"/>
  <outline>
    <component base="kaf-ar.init"/>
    <component base="threedotsupabove-ar" xOffset="124" yOffset="1085"/>
    <contour>
      <point x="290" y="-200" type="move" name="bottom"/>
    </contour>
  </outline>
</glyph>
<glyph name="ng-ar.medi" format="1">
  <advance width="1023"/>
  <unicode hex="FBD6"/>
  <outline>
    <component base="kaf-ar.medi"/>
    <component base="threedotsupabove-ar" xOffset="181" yOffset="1086"/>
    <contour>
      <point x="306" y="-200" type="move" name="bottom"/>
    </contour>
  </outline>
</glyph>
<glyph name="e-ar.init" format="1">
  <advance width="788"/>
  <unicode hex="FBE6"/>
  <outline>
    <component base="behDotless-ar.init"/>
    <component base="twodotsverticalbelow-ar" xOffset="150" yOffset="-183"/>
    <contour>
      <point x="459" y="1170" type="move" name="top"/>
    </contour>
  </outline>
</glyph>
<glyph name="yeh-farsi.init" format="1">
  <advance width="867"/>
  <unicode hex="FBFE"/>
  <outline>
    <component base="yeh-ar.init"/>
    <contour>
      <point x="535" y="1190" type="move" name="top"/>
    </contour>
  </outline>
</glyph>
<glyph name="parenleft-ar" format="1">
  <advance width="1085"/>
  <unicode hex="FD3E"/>
  <outline>
    <contour>
      <point x="963" y="-326" type="line"/>
      <point x="836" y="-278"/>
      <point x="722" y="-201"/>
      <point x="627" y="-99" type="curve"/>
      <point x="651" y="-73"/>
      <point x="662" y="-52"/>
      <point x="662" y="-31" type="curve" smooth="yes"/>
      <point x="662" y="-13"/>
      <point x="654" y="5"/>
      <point x="638" y="25" type="curve"/>
      <point x="639" y="24" type="line"/>
      <point x="588" y="95"/>
      <point x="564" y="159"/>
      <point x="564" y="227" type="curve" smooth="yes"/>
      <point x="564" y="305"/>
      <point x="598" y="385"/>
      <point x="664" y="468" type="curve" smooth="yes"/>
      <point x="672" y="478"/>
      <point x="676" y="485"/>
      <point x="676" y="493" type="curve" smooth="yes"/>
      <point x="676" y="502"/>
      <point x="672" y="511"/>
      <point x="664" y="521" type="curve" smooth="yes"/>
      <point x="600" y="602"/>
      <point x="569" y="679"/>
      <point x="569" y="755" type="curve" smooth="yes"/>
      <point x="569" y="819"/>
      <point x="592" y="879"/>
      <point x="643" y="951" type="curve"/>
      <point x="642" y="950" type="line"/>
      <point x="657" y="968"/>
      <point x="664" y="987"/>
      <point x="664" y="1005" type="curve" smooth="yes"/>
      <point x="664" y="1026"/>
      <point x="652" y="1048"/>
      <point x="632" y="1067" type="curve"/>
      <point x="618" y="1064" type="line"/>
      <point x="739" y="1189"/>
      <point x="834" y="1258"/>
      <point x="965" y="1305" type="curve"/>
      <point x="863" y="1432" type="line"/>
      <point x="518" y="1286"/>
      <point x="279" y="970"/>
      <point x="245" y="586" type="curve"/>
      <point x="120" y="586" type="line"/>
      <point x="120" y="397" type="line"/>
      <point x="244" y="397" type="line"/>
      <point x="278" y="24"/>
      <point x="515" y="-299"/>
      <point x="857" y="-446" type="curve"/>
    </contour>
    <contour>
      <point x="495" y="396"/>
      <point x="538" y="439"/>
      <point x="538" y="492" type="curve" smooth="yes"/>
      <point x="538" y="544"/>
      <point x="495" y="587"/>
      <point x="443" y="587" type="curve" smooth="yes"/>
      <point x="390" y="587"/>
      <point x="347" y="544"/>
      <point x="347" y="492" type="curve" smooth="yes"/>
      <point x="347" y="439"/>
      <point x="390" y="396"/>
      <point x="443" y="396" type="curve" smooth="yes"/>
    </contour>
  </outline>
</glyph>
<glyph name="parenright-ar" format="1">
  <advance width="1085"/>
  <unicode hex="FD3F"/>
  <outline>
    <contour>
      <point x="570" y="-299"/>
      <point x="807" y="24"/>
      <point x="841" y="397" type="curve"/>
      <point x="965" y="397" type="line"/>
      <point x="965" y="586" type="line"/>
      <point x="840" y="586" type="line"/>
      <point x="806" y="970"/>
      <point x="567" y="1286"/>
      <point x="222" y="1432" type="curve"/>
      <point x="120" y="1305" type="line"/>
      <point x="251" y="1258"/>
      <point x="346" y="1189"/>
      <point x="467" y="1064" type="curve"/>
      <point x="453" y="1067" type="line"/>
      <point x="433" y="1048"/>
      <point x="421" y="1026"/>
      <point x="421" y="1005" type="curve" smooth="yes"/>
      <point x="421" y="987"/>
      <point x="428" y="968"/>
      <point x="443" y="950" type="curve"/>
      <point x="442" y="951" type="line"/>
      <point x="493" y="879"/>
      <point x="516" y="819"/>
      <point x="516" y="755" type="curve" smooth="yes"/>
      <point x="516" y="679"/>
      <point x="485" y="602"/>
      <point x="421" y="521" type="curve" smooth="yes"/>
      <point x="413" y="511"/>
      <point x="409" y="502"/>
      <point x="409" y="493" type="curve" smooth="yes"/>
      <point x="409" y="485"/>
      <point x="413" y="478"/>
      <point x="421" y="468" type="curve" smooth="yes"/>
      <point x="487" y="385"/>
      <point x="521" y="305"/>
      <point x="521" y="227" type="curve" smooth="yes"/>
      <point x="521" y="159"/>
      <point x="497" y="95"/>
      <point x="446" y="24" type="curve"/>
      <point x="447" y="25" type="line"/>
      <point x="431" y="5"/>
      <point x="423" y="-13"/>
      <point x="423" y="-31" type="curve" smooth="yes"/>
      <point x="423" y="-52"/>
      <point x="434" y="-73"/>
      <point x="458" y="-99" type="curve"/>
      <point x="363" y="-201"/>
      <point x="249" y="-278"/>
      <point x="122" y="-326" type="curve"/>
      <point x="228" y="-446" type="line"/>
    </contour>
    <contour>
      <point x="695" y="396"/>
      <point x="738" y="439"/>
      <point x="738" y="492" type="curve" smooth="yes"/>
      <point x="738" y="544"/>
      <point x="695" y="587"/>
      <point x="642" y="587" type="curve" smooth="yes"/>
      <point x="590" y="587"/>
      <point x="547" y="544"/>
      <point x="547" y="492" type="curve" smooth="yes"/>
      <point x="547" y="439"/>
      <point x="590" y="396"/>
      <point x="642" y="396" type="curve" smooth="yes"/>
    </contour>
  </outline>
</glyph>
<glyph name="allah-ar" format="1">
  <advance width="2566"/>
  <unicode hex="FDF2"/>
  <outline>
    <contour>
      <point x="173" y="11"/>
      <point x="391" y="-56"/>
      <point x="758" y="-22" type="curve"/>
      <point x="816" y="74" type="line"/>
      <point x="879" y="-4"/>
      <point x="974" y="-44"/>
      <point x="1096" y="-44" type="curve" smooth="yes"/>
      <point x="1219" y="-44"/>
      <point x="1354" y="-3"/>
      <point x="1441" y="59" type="curve"/>
      <point x="1504" y="-7"/>
      <point x="1601" y="-45"/>
      <point x="1709" y="-45" type="curve" smooth="yes"/>
      <point x="1951" y="-45"/>
      <point x="2111" y="117"/>
      <point x="2111" y="361" type="curve" smooth="yes"/>
      <point x="2111" y="416"/>
      <point x="2105" y="484"/>
      <point x="2090" y="596" type="curve" smooth="yes"/>
      <point x="2024" y="1082" type="line"/>
      <point x="1791" y="927" type="line"/>
      <point x="1906" y="251" type="line"/>
      <point x="1877" y="239"/>
      <point x="1786" y="212"/>
      <point x="1728" y="212" type="curve" smooth="yes"/>
      <point x="1563" y="212"/>
      <point x="1552" y="283"/>
      <point x="1539" y="530" type="curve" smooth="yes"/>
      <point x="1516" y="957" type="line"/>
      <point x="1279" y="887" type="line"/>
      <point x="1331" y="256" type="line"/>
      <point x="1278" y="236"/>
      <point x="1188" y="221"/>
      <point x="1116" y="221" type="curve" smooth="yes"/>
      <point x="943" y="221"/>
      <point x="944" y="255"/>
      <point x="932" y="742" type="curve" smooth="yes"/>
      <point x="924" y="1064" type="line"/>
      <point x="683" y="966" type="line"/>
      <point x="695" y="772" type="line"/>
      <point x="352" y="598"/>
      <point x="173" y="394"/>
      <point x="173" y="172" type="curve" smooth="yes"/>
    </contour>
    <contour>
      <point x="437" y="370"/>
      <point x="569" y="467"/>
      <point x="712" y="534" type="curve"/>
      <point x="739" y="233" type="line"/>
      <point x="654" y="211"/>
      <point x="429" y="242"/>
      <point x="372" y="283" type="curve"/>
    </contour>
    <contour>
      <point x="1109" y="1366" type="line"/>
      <point x="1095" y="1193" type="line"/>
      <point x="1095" y="1083"/>
      <point x="1159" y="1021"/>
      <point x="1274" y="1021" type="curve" smooth="yes"/>
      <point x="1321" y="1021"/>
      <point x="1372" y="1033"/>
      <point x="1411" y="1054" type="curve"/>
      <point x="1441" y="1041"/>
      <point x="1479" y="1034"/>
      <point x="1519" y="1034" type="curve" smooth="yes"/>
      <point x="1645" y="1034"/>
      <point x="1719" y="1104"/>
      <point x="1719" y="1223" type="curve" smooth="yes"/>
      <point x="1719" y="1281"/>
      <point x="1709" y="1291"/>
      <point x="1673" y="1461" type="curve"/>
      <point x="1503" y="1406" type="line"/>
      <point x="1553" y="1243" type="line"/>
      <point x="1497" y="1238" type="line"/>
      <point x="1490" y="1373" type="line"/>
      <point x="1324" y="1367" type="line"/>
      <point x="1325" y="1229" type="line"/>
      <point x="1257" y="1225" type="line"/>
      <point x="1264" y="1369" type="line"/>
    </contour>
    <contour>
      <point x="1319" y="1394" type="line"/>
      <point x="1488" y="1429" type="line"/>
      <point x="1490" y="1758" type="line"/>
      <point x="1299" y="1719" type="line"/>
    </contour>
    <contour>
      <point x="2206" y="-42" type="line"/>
      <point x="2431" y="16" type="line"/>
      <point x="2424" y="1506" type="line"/>
      <point x="2147" y="1346" type="line"/>
    </contour>
  </outline>
</glyph>
<glyph name="rial" format="1">
  <advance width="2664"/>
  <unicode hex="FDFC"/>
  <outline>
    <contour>
      <point x="185" y="395" type="line"/>
      <point x="141" y="212" type="line"/>
      <point x="120" y="70" type="line"/>
      <point x="120" y="-112"/>
      <point x="230" y="-217"/>
      <point x="421" y="-217" type="curve" smooth="yes"/>
      <point x="621" y="-217"/>
      <point x="967" y="-147"/>
      <point x="973" y="66" type="curve"/>
      <point x="910" y="1171" type="line"/>
      <point x="1046" y="1108"/>
      <point x="1143" y="1071"/>
      <point x="1152" y="820" type="curve" smooth="yes"/>
      <point x="1162" y="283" type="line" smooth="yes"/>
      <point x="1167" y="29"/>
      <point x="1291" y="-14"/>
      <point x="1512" y="-14" type="curve" smooth="yes"/>
      <point x="1920" y="-14"/>
      <point x="2065" y="81"/>
      <point x="2065" y="280" type="curve" smooth="yes"/>
      <point x="2065" y="343"/>
      <point x="2022" y="522"/>
      <point x="1992" y="650" type="curve"/>
      <point x="1863" y="547" type="line"/>
      <point x="1946" y="197" type="line"/>
      <point x="1910" y="167"/>
      <point x="1704" y="140"/>
      <point x="1515" y="140" type="curve" smooth="yes"/>
      <point x="1459" y="140"/>
      <point x="1291" y="160"/>
      <point x="1291" y="189" type="curve" smooth="yes"/>
      <point x="1296" y="824" type="line" smooth="yes"/>
      <point x="1296" y="1096"/>
      <point x="1241" y="1178"/>
      <point x="985" y="1313" type="curve"/>
      <point x="754" y="1118" type="line"/>
      <point x="846" y="25" type="line"/>
      <point x="800" y="8"/>
      <point x="632" y="-49"/>
      <point x="450" y="-49" type="curve" smooth="yes"/>
      <point x="318" y="-49"/>
      <point x="242" y="12"/>
      <point x="242" y="117" type="curve" smooth="yes"/>
      <point x="242" y="150"/>
      <point x="249" y="178"/>
      <point x="296" y="373" type="curve"/>
    </contour>
    <contour>
      <point x="2346" y="566" type="line"/>
      <point x="2436" y="254" type="line"/>
      <point x="2350" y="53"/>
      <point x="2251" y="-33"/>
      <point x="2081" y="-33" type="curve" smooth="yes"/>
      <point x="2048" y="-33"/>
      <point x="2012" y="-29"/>
      <point x="1971" y="-22" type="curve"/>
      <point x="1944" y="-127" type="line"/>
      <point x="2028" y="-153"/>
      <point x="2101" y="-170"/>
      <point x="2165" y="-170" type="curve" smooth="yes"/>
      <point x="2220" y="-170"/>
      <point x="2269" y="-158"/>
      <point x="2316" y="-132" type="curve" smooth="yes"/>
      <point x="2437" y="-65"/>
      <point x="2544" y="134"/>
      <point x="2544" y="288" type="curve" smooth="yes"/>
      <point x="2544" y="392"/>
      <point x="2502" y="552"/>
      <point x="2466" y="694" type="curve"/>
    </contour>
    <contour>
      <point x="1465" y="-383" type="line"/>
      <point x="1565" y="-264" type="line"/>
      <point x="1707" y="-383" type="line"/>
      <point x="1826" y="-242" type="line"/>
      <point x="1683" y="-122" type="line"/>
      <point x="1583" y="-241" type="line"/>
      <point x="1441" y="-122" type="line"/>
      <point x="1322" y="-263" type="line"/>
    </contour>
  </outline>
</glyph>
<glyph name="alef-ar.fina" format="1">
  <advance width="702"/>
  <unicode hex="FE8E"/>
  <outline>
    <contour>
      <point x="224" y="425" type="line" smooth="yes"/>
      <point x="238" y="138"/>
      <point x="357" y="0"/>
      <point x="591" y="0" type="curve" smooth="yes"/>
      <point x="732" y="0" type="line"/>
      <point x="775" y="39"/>
      <point x="797" y="86"/>
      <point x="797" y="137" type="curve" smooth="yes"/>
      <point x="797" y="188"/>
      <point x="775" y="233"/>
      <point x="732" y="273" type="curve"/>
      <point x="637" y="273" type="line" smooth="yes"/>
      <point x="583" y="273"/>
      <point x="507" y="292"/>
      <point x="457" y="319" type="curve"/>
      <point x="438" y="1549" type="line"/>
      <point x="173" y="1455" type="line"/>
    </contour>
    <contour>
      <point x="335" y="1758" type="move" name="top"/>
    </contour>
    <contour>
      <point x="591" y="-220" type="move" name="bottom"/>
    </contour>
  </outline>
</glyph>
<glyph name="teh-ar.fina" format="1">
  <advance width="2002"/>
  <unicode hex="FE96"/>
  <outline>
    <component base="behDotless-ar.fina"/>
    <component base="twodotshorizontalabove-ar" xOffset="570" yOffset="-25"/>
    <contour>
      <point x="817" y="-250" type="move" name="bottom"/>
    </contour>
  </outline>
</glyph>
<glyph name="teh-ar.init" format="1">
  <advance width="788"/>
  <unicode hex="FE97"/>
  <outline>
    <component base="behDotless-ar.init"/>
    <component base="twodotshorizontalabove-ar" xOffset="98" yOffset="361"/>
    <contour>
      <point x="359" y="-200" type="move" name="bottom"/>
    </contour>
  </outline>
</glyph>
<glyph name="teh-ar.medi" format="1">
  <advance width="893"/>
  <unicode hex="FE98"/>
  <outline>
    <component base="behDotless-ar.medi"/>
    <component base="twodotshorizontalabove-ar" xOffset="163" yOffset="43"/>
    <contour>
      <point x="327" y="-200" type="move" name="bottom"/>
    </contour>
  </outline>
</glyph>
<glyph name="theh-ar.fina" format="1">
  <advance width="2002"/>
  <unicode hex="FE9A"/>
  <outline>
    <component base="behDotless-ar.fina"/>
    <component base="threedotsupabove-ar" xOffset="584" yOffset="186"/>
    <contour>
      <point x="797" y="-260" type="move" name="bottom"/>
    </contour>
  </outline>
</glyph>
<glyph name="theh-ar.init" format="1">
  <advance width="788"/>
  <unicode hex="FE9B"/>
  <outline>
    <component base="behDotless-ar.init"/>
    <component base="threedotsupabove-ar" xOffset="112" yOffset="572"/>
    <contour>
      <point x="269" y="-210" type="move" name="bottom"/>
    </contour>
  </outline>
</glyph>
<glyph name="theh-ar.medi" format="1">
  <advance width="893"/>
  <unicode hex="FE9C"/>
  <outline>
    <component base="behDotless-ar.medi"/>
    <component base="threedotsupabove-ar" xOffset="177" yOffset="254"/>
    <contour>
      <point x="267" y="-200" type="move" name="bottom"/>
    </contour>
  </outline>
</glyph>
<glyph name="hah-ar.fina" format="1">
  <advance width="1308"/>
  <unicode hex="FEA2"/>
  <outline>
    <contour>
      <point x="1247" y="273" type="line" smooth="yes"/>
      <point x="1104" y="273"/>
      <point x="994" y="335"/>
      <point x="935" y="445" type="curve"/>
      <point x="1032" y="469"/>
      <point x="1136" y="482"/>
      <point x="1246" y="483" type="curve"/>
      <point x="1318" y="775" type="line"/>
      <point x="1168" y="779" type="line" smooth="yes"/>
      <point x="847" y="788"/>
      <point x="694" y="931"/>
      <point x="496" y="931" type="curve" smooth="yes"/>
      <point x="419" y="931"/>
      <point x="305" y="861"/>
      <point x="209" y="754" type="curve"/>
      <point x="325" y="554" type="line"/>
      <point x="415" y="631"/>
      <point x="444" y="660"/>
      <point x="491" y="660" type="curve" smooth="yes"/>
      <point x="536" y="660"/>
      <point x="544" y="659"/>
      <point x="677" y="612" type="curve"/>
      <point x="377" y="487"/>
      <point x="173" y="189"/>
      <point x="173" y="-137" type="curve" smooth="yes"/>
      <point x="173" y="-510"/>
      <point x="373" y="-697"/>
      <point x="773" y="-697" type="curve" smooth="yes"/>
      <point x="895" y="-697"/>
      <point x="1125" y="-671"/>
      <point x="1220" y="-637" type="curve"/>
      <point x="1290" y="-365" type="line"/>
      <point x="1225" y="-374"/>
      <point x="1064" y="-415"/>
      <point x="863" y="-415" type="curve" smooth="yes"/>
      <point x="561" y="-415"/>
      <point x="392" y="-308"/>
      <point x="392" y="-121" type="curve" smooth="yes"/>
      <point x="392" y="84"/>
      <point x="513" y="259"/>
      <point x="729" y="370" type="curve"/>
      <point x="826" y="132"/>
      <point x="1004" y="0"/>
      <point x="1232" y="0" type="curve" smooth="yes"/>
      <point x="1338" y="0" type="line"/>
      <point x="1381" y="39"/>
      <point x="1403" y="86"/>
      <point x="1403" y="137" type="curve" smooth="yes"/>
      <point x="1403" y="188"/>
      <point x="1381" y="233"/>
      <point x="1338" y="273" type="curve"/>
    </contour>
    <contour>
      <point x="753" y="-90" type="move" name="center"/>
    </contour>
    <contour>
      <point x="773" y="-912" type="move" name="bottom"/>
    </contour>
    <contour>
      <point x="494" y="1143" type="move" name="top"/>
    </contour>
  </outline>
</glyph>
<glyph name="hah-ar.init" format="1">
  <advance width="1642"/>
  <unicode hex="FEA3"/>
  <outline>
    <contour>
      <point x="30" y="0" type="line" smooth="yes"/>
      <point x="428" y="0"/>
      <point x="851" y="212"/>
      <point x="1060" y="281" type="curve" smooth="yes"/>
      <point x="1169" y="317"/>
      <point x="1384" y="325"/>
      <point x="1416" y="322" type="curve"/>
      <point x="1507" y="617" type="line"/>
      <point x="1418" y="617" type="line" smooth="yes"/>
      <point x="1061" y="617"/>
      <point x="771" y="862"/>
      <point x="518" y="862" type="curve" smooth="yes"/>
      <point x="438" y="862"/>
      <point x="323" y="805"/>
      <point x="225" y="716" type="curve"/>
      <point x="306" y="454" type="line"/>
      <point x="394" y="543"/>
      <point x="464" y="593"/>
      <point x="498" y="593" type="curve" smooth="yes"/>
      <point x="571" y="593"/>
      <point x="743" y="521"/>
      <point x="901" y="466" type="curve"/>
      <point x="668" y="387"/>
      <point x="357" y="273"/>
      <point x="30" y="273" type="curve" smooth="yes"/>
      <point x="-30" y="273" type="line" smooth="yes"/>
      <point x="-102" y="273"/>
      <point x="-160" y="212"/>
      <point x="-160" y="137" type="curve" smooth="yes"/>
      <point x="-160" y="61"/>
      <point x="-102" y="0"/>
      <point x="-30" y="0" type="curve" smooth="yes"/>
    </contour>
    <contour>
      <point x="518" y="1064" type="move" name="top"/>
    </contour>
    <contour>
      <point x="611" y="-41" type="move" name="bottom"/>
    </contour>
  </outline>
</glyph>
<glyph name="hah-ar.medi" format="1">
  <advance width="1574"/>
  <unicode hex="FEA4"/>
  <outline>
    <contour>
      <point x="1514" y="273" type="line" smooth="yes"/>
      <point x="1435" y="273"/>
      <point x="1374" y="290"/>
      <point x="1325" y="325" type="curve"/>
      <point x="1351" y="325"/>
      <point x="1388" y="323"/>
      <point x="1414" y="320" type="curve"/>
      <point x="1507" y="617" type="line"/>
      <point x="1418" y="617" type="line" smooth="yes"/>
      <point x="1061" y="617"/>
      <point x="771" y="862"/>
      <point x="518" y="862" type="curve" smooth="yes"/>
      <point x="438" y="862"/>
      <point x="323" y="805"/>
      <point x="225" y="716" type="curve"/>
      <point x="306" y="454" type="line"/>
      <point x="394" y="543"/>
      <point x="464" y="593"/>
      <point x="498" y="593" type="curve" smooth="yes"/>
      <point x="571" y="593"/>
      <point x="743" y="521"/>
      <point x="901" y="466" type="curve"/>
      <point x="668" y="387"/>
      <point x="357" y="273"/>
      <point x="30" y="273" type="curve" smooth="yes"/>
      <point x="-30" y="273" type="line" smooth="yes"/>
      <point x="-102" y="273"/>
      <point x="-160" y="212"/>
      <point x="-160" y="137" type="curve" smooth="yes"/>
      <point x="-160" y="61"/>
      <point x="-102" y="0"/>
      <point x="-30" y="0" type="curve" smooth="yes"/>
      <point x="30" y="0" type="line" smooth="yes"/>
      <point x="417" y="0"/>
      <point x="827" y="200"/>
      <point x="1042" y="275" type="curve"/>
      <point x="1134" y="135"/>
      <point x="1260" y="0"/>
      <point x="1514" y="0" type="curve" smooth="yes"/>
      <point x="1604" y="0" type="line"/>
      <point x="1647" y="39"/>
      <point x="1669" y="86"/>
      <point x="1669" y="137" type="curve" smooth="yes"/>
      <point x="1669" y="188"/>
      <point x="1647" y="233"/>
      <point x="1604" y="273" type="curve"/>
    </contour>
    <contour>
      <point x="520" y="1064" type="move" name="top"/>
    </contour>
    <contour>
      <point x="664" y="-200" type="move" name="bottom"/>
    </contour>
  </outline>
</glyph>
<glyph name="dal-ar.fina" format="1">
  <advance width="1366"/>
  <unicode hex="FEAA"/>
  <outline>
    <contour>
      <point x="1290" y="273" type="line" smooth="yes"/>
      <point x="1134" y="273"/>
      <point x="1102" y="312"/>
      <point x="1060" y="564" type="curve" smooth="yes"/>
      <point x="983" y="1029" type="line"/>
      <point x="731" y="905" type="line"/>
      <point x="853" y="267" type="line"/>
      <point x="766" y="245"/>
      <point x="648" y="233"/>
      <point x="514" y="233" type="curve" smooth="yes"/>
      <point x="391" y="233"/>
      <point x="389" y="238"/>
      <point x="382" y="392" type="curve"/>
      <point x="178" y="390" type="line"/>
      <point x="175" y="346"/>
      <point x="173" y="308"/>
      <point x="173" y="268" type="curve" smooth="yes"/>
      <point x="173" y="60"/>
      <point x="275" y="-38"/>
      <point x="490" y="-38" type="curve" smooth="yes"/>
      <point x="628" y="-38"/>
      <point x="878" y="-5"/>
      <point x="972" y="61" type="curve" smooth="yes"/>
      <point x="989" y="73"/>
      <point x="1004" y="88"/>
      <point x="1016" y="106" type="curve"/>
      <point x="1077" y="37"/>
      <point x="1167" y="0"/>
      <point x="1277" y="0" type="curve" smooth="yes"/>
      <point x="1396" y="0" type="line"/>
      <point x="1439" y="39"/>
      <point x="1461" y="86"/>
      <point x="1461" y="137" type="curve" smooth="yes"/>
      <point x="1461" y="188"/>
      <point x="1439" y="233"/>
      <point x="1396" y="273" type="curve"/>
    </contour>
    <contour>
      <point x="886" y="1224" type="move" name="top"/>
    </contour>
    <contour>
      <point x="517" y="-237" type="move" name="bottom"/>
    </contour>
    <contour>
      <point x="760" y="-204" type="move" name="ring"/>
    </contour>
  </outline>
</glyph>
<glyph name="reh-ar.fina" format="1">
  <advance width="1159"/>
  <unicode hex="FEAE"/>
  <outline>
    <contour>
      <point x="1011" y="273" type="line" smooth="yes"/>
      <point x="872" y="273"/>
      <point x="839" y="311"/>
      <point x="788" y="563" type="curve" smooth="yes"/>
      <point x="747" y="764" type="line"/>
      <point x="509" y="621" type="line"/>
      <point x="625" y="149" type="line"/>
      <point x="524" y="-110"/>
      <point x="397" y="-215"/>
      <point x="188" y="-215" type="curve" smooth="yes"/>
      <point x="130" y="-215"/>
      <point x="71" y="-207"/>
      <point x="5" y="-191" type="curve"/>
      <point x="-54" y="-385" type="line"/>
      <point x="119" y="-443"/>
      <point x="215" y="-465"/>
      <point x="296" y="-465" type="curve" smooth="yes"/>
      <point x="362" y="-465"/>
      <point x="423" y="-449"/>
      <point x="488" y="-415" type="curve" smooth="yes"/>
      <point x="626" y="-343"/>
      <point x="764" y="-147"/>
      <point x="818" y="49" type="curve"/>
      <point x="871" y="16"/>
      <point x="936" y="0"/>
      <point x="1011" y="0" type="curve" smooth="yes"/>
      <point x="1189" y="0" type="line"/>
      <point x="1232" y="39"/>
      <point x="1254" y="86"/>
      <point x="1254" y="137" type="curve" smooth="yes"/>
      <point x="1254" y="188"/>
      <point x="1232" y="233"/>
      <point x="1189" y="273" type="curve"/>
    </contour>
    <contour>
      <point x="678" y="974" type="move" name="top"/>
    </contour>
    <contour>
      <point x="320" y="-675" type="move" name="bottom"/>
    </contour>
    <contour>
      <point x="643" y="-495" type="move" name="ring"/>
    </contour>
  </outline>
</glyph>
<glyph name="seen-ar.fina" format="1">
  <advance width="2834"/>
  <unicode hex="FEB2"/>
  <outline>
    <contour>
      <point x="2741" y="273" type="line" smooth="yes"/>
      <point x="2617" y="273"/>
      <point x="2584" y="308"/>
      <point x="2552" y="561" type="curve" smooth="yes"/>
      <point x="2529" y="742" type="line"/>
      <point x="2284" y="637" type="line"/>
      <point x="2343" y="273" type="line"/>
      <point x="2300" y="266"/>
      <point x="2259" y="262"/>
      <point x="2217" y="262" type="curve" smooth="yes"/>
      <point x="2138" y="262"/>
      <point x="2064" y="276"/>
      <point x="1993" y="305" type="curve"/>
      <point x="1993" y="305"/>
      <point x="1994" y="306"/>
      <point x="1994" y="307" type="curve"/>
      <point x="2033" y="634" type="line"/>
      <point x="1819" y="655" type="line"/>
      <point x="1783" y="386" type="line" smooth="yes"/>
      <point x="1771" y="297"/>
      <point x="1721" y="267"/>
      <point x="1569" y="267" type="curve" smooth="yes"/>
      <point x="1408" y="267"/>
      <point x="1367" y="282"/>
      <point x="1360" y="346" type="curve" smooth="yes"/>
      <point x="1324" y="662" type="line"/>
      <point x="1067" y="531" type="line"/>
      <point x="1169" y="-102" type="line"/>
      <point x="1083" y="-138"/>
      <point x="870" y="-216"/>
      <point x="656" y="-216" type="curve" smooth="yes"/>
      <point x="483" y="-216"/>
      <point x="398" y="-143"/>
      <point x="398" y="5" type="curve" smooth="yes"/>
      <point x="398" y="55"/>
      <point x="404" y="68"/>
      <point x="445" y="291" type="curve"/>
      <point x="231" y="316" type="line"/>
      <point x="185" y="77"/>
      <point x="173" y="29"/>
      <point x="173" y="-57" type="curve" smooth="yes"/>
      <point x="173" y="-342"/>
      <point x="342" y="-510"/>
      <point x="629" y="-510" type="curve" smooth="yes"/>
      <point x="853" y="-510"/>
      <point x="1223" y="-412"/>
      <point x="1349" y="-239" type="curve" smooth="yes"/>
      <point x="1384" y="-191"/>
      <point x="1399" y="-135"/>
      <point x="1399" y="-59" type="curve" smooth="yes"/>
      <point x="1399" y="-36"/>
      <point x="1398" y="-15"/>
      <point x="1397" y="5" type="curve"/>
      <point x="1451" y="-4"/>
      <point x="1508" y="-9"/>
      <point x="1561" y="-9" type="curve" smooth="yes"/>
      <point x="1680" y="-9"/>
      <point x="1796" y="22"/>
      <point x="1861" y="70" type="curve"/>
      <point x="1955" y="23"/>
      <point x="2073" y="-4"/>
      <point x="2190" y="-4" type="curve" smooth="yes"/>
      <point x="2336" y="-4"/>
      <point x="2434" y="28"/>
      <point x="2490" y="96" type="curve"/>
      <point x="2557" y="34"/>
      <point x="2645" y="0"/>
      <point x="2741" y="0" type="curve" smooth="yes"/>
      <point x="2864" y="0" type="line"/>
      <point x="2907" y="39"/>
      <point x="2929" y="86"/>
      <point x="2929" y="137" type="curve" smooth="yes"/>
      <point x="2929" y="188"/>
      <point x="2907" y="233"/>
      <point x="2864" y="273" type="curve"/>
    </contour>
    <contour>
      <point x="705" y="674" type="move" name="top"/>
    </contour>
    <contour>
      <point x="631" y="-729" type="move" name="bottom"/>
    </contour>
  </outline>
</glyph>
<glyph name="seen-ar.init" format="1">
  <advance width="1828"/>
  <unicode hex="FEB3"/>
  <outline>
    <contour>
      <point x="1685" y="459"/>
      <point x="1634" y="740"/>
      <point x="1592" y="902" type="curve"/>
      <point x="1361" y="753" type="line"/>
      <point x="1480" y="273" type="line"/>
      <point x="1373" y="249"/>
      <point x="1288" y="259"/>
      <point x="1151" y="309" type="curve"/>
      <point x="1191" y="634" type="line"/>
      <point x="979" y="660" type="line"/>
      <point x="940" y="395" type="line" smooth="yes"/>
      <point x="927" y="304"/>
      <point x="878" y="274"/>
      <point x="728" y="274" type="curve" smooth="yes"/>
      <point x="658" y="274"/>
      <point x="578" y="283"/>
      <point x="516" y="298" type="curve"/>
      <point x="554" y="635" type="line"/>
      <point x="339" y="653" type="line"/>
      <point x="316" y="480" type="line" smooth="yes"/>
      <point x="292" y="300"/>
      <point x="273" y="282"/>
      <point x="113" y="273" type="curve"/>
      <point x="-30" y="273" type="line" smooth="yes"/>
      <point x="-102" y="273"/>
      <point x="-160" y="212"/>
      <point x="-160" y="137" type="curve" smooth="yes"/>
      <point x="-160" y="61"/>
      <point x="-102" y="0"/>
      <point x="-30" y="0" type="curve" smooth="yes"/>
      <point x="119" y="0" type="line" smooth="yes"/>
      <point x="199" y="0"/>
      <point x="293" y="31"/>
      <point x="353" y="77" type="curve"/>
      <point x="432" y="28"/>
      <point x="567" y="0"/>
      <point x="719" y="0" type="curve" smooth="yes"/>
      <point x="838" y="0"/>
      <point x="953" y="30"/>
      <point x="1019" y="78" type="curve"/>
      <point x="1114" y="27"/>
      <point x="1232" y="-1"/>
      <point x="1346" y="-1" type="curve" smooth="yes"/>
      <point x="1597" y="-1"/>
      <point x="1695" y="100"/>
      <point x="1688" y="350" type="curve" smooth="yes"/>
    </contour>
    <contour>
      <point x="1046" y="903" type="move" name="top"/>
    </contour>
    <contour>
      <point x="1012" y="-231" type="move" name="bottom"/>
    </contour>
  </outline>
</glyph>
<glyph name="seen-ar.medi" format="1">
  <advance width="1978"/>
  <unicode hex="FEB4"/>
  <outline>
    <contour>
      <point x="1887" y="273" type="line" smooth="yes"/>
      <point x="1750" y="273"/>
      <point x="1717" y="318"/>
      <point x="1699" y="556" type="curve" smooth="yes"/>
      <point x="1685" y="738" type="line"/>
      <point x="1444" y="636" type="line"/>
      <point x="1492" y="283" type="line"/>
      <point x="1449" y="276"/>
      <point x="1403" y="272"/>
      <point x="1356" y="272" type="curve" smooth="yes"/>
      <point x="1278" y="272"/>
      <point x="1206" y="283"/>
      <point x="1139" y="306" type="curve"/>
      <point x="1181" y="634" type="line"/>
      <point x="967" y="655" type="line"/>
      <point x="927" y="374" type="line" smooth="yes"/>
      <point x="916" y="297"/>
      <point x="871" y="273"/>
      <point x="716" y="273" type="curve" smooth="yes"/>
      <point x="654" y="273"/>
      <point x="577" y="282"/>
      <point x="514" y="296" type="curve"/>
      <point x="543" y="636" type="line"/>
      <point x="328" y="653" type="line"/>
      <point x="302" y="462" type="line" smooth="yes"/>
      <point x="278" y="283"/>
      <point x="266" y="273"/>
      <point x="124" y="273" type="curve" smooth="yes"/>
      <point x="-30" y="273" type="line" smooth="yes"/>
      <point x="-102" y="273"/>
      <point x="-160" y="212"/>
      <point x="-160" y="137" type="curve" smooth="yes"/>
      <point x="-160" y="61"/>
      <point x="-102" y="0"/>
      <point x="-30" y="0" type="curve" smooth="yes"/>
      <point x="108" y="0" type="line" smooth="yes"/>
      <point x="189" y="0"/>
      <point x="282" y="31"/>
      <point x="341" y="75" type="curve"/>
      <point x="417" y="25"/>
      <point x="542" y="0"/>
      <point x="708" y="0" type="curve" smooth="yes"/>
      <point x="827" y="0"/>
      <point x="942" y="30"/>
      <point x="1007" y="79" type="curve"/>
      <point x="1102" y="28"/>
      <point x="1219" y="-1"/>
      <point x="1330" y="-1" type="curve" smooth="yes"/>
      <point x="1471" y="-1"/>
      <point x="1574" y="35"/>
      <point x="1633" y="105" type="curve"/>
      <point x="1693" y="39"/>
      <point x="1786" y="0"/>
      <point x="1887" y="0" type="curve" smooth="yes"/>
      <point x="2008" y="0" type="line"/>
      <point x="2051" y="39"/>
      <point x="2073" y="86"/>
      <point x="2073" y="137" type="curve" smooth="yes"/>
      <point x="2073" y="188"/>
      <point x="2051" y="233"/>
      <point x="2008" y="273" type="curve"/>
    </contour>
    <contour>
      <point x="1053" y="883" type="move" name="top"/>
    </contour>
    <contour>
      <point x="1013" y="-211" type="move" name="bottom"/>
    </contour>
  </outline>
</glyph>
<glyph name="sheen-ar.init" format="1">
  <advance width="1828"/>
  <unicode hex="FEB7"/>
  <outline>
    <component base="seen-ar.init"/>
    <component base="threedotsupabove-ar" xOffset="705" yOffset="293"/>
    <contour>
      <point x="1106" y="-210" type="move" name="bottom"/>
    </contour>
  </outline>
</glyph>
<glyph name="sad-ar.fina" format="1">
  <advance width="2823"/>
  <unicode hex="FEBA"/>
  <outline>
    <contour>
      <point x="2734" y="273" type="line" smooth="yes"/>
      <point x="2685" y="273"/>
      <point x="2601" y="276"/>
      <point x="2531" y="286" type="curve"/>
      <point x="2537" y="313"/>
      <point x="2540" y="342"/>
      <point x="2540" y="372" type="curve" smooth="yes"/>
      <point x="2540" y="624"/>
      <point x="2321" y="860"/>
      <point x="2084" y="862" type="curve" smooth="yes"/>
      <point x="1888" y="864"/>
      <point x="1656" y="702"/>
      <point x="1359" y="357" type="curve"/>
      <point x="1351" y="394"/>
      <point x="1340" y="474"/>
      <point x="1317" y="646" type="curve"/>
      <point x="1067" y="523" type="line"/>
      <point x="1169" y="-102" type="line"/>
      <point x="1083" y="-138"/>
      <point x="868" y="-216"/>
      <point x="654" y="-216" type="curve" smooth="yes"/>
      <point x="480" y="-216"/>
      <point x="397" y="-143"/>
      <point x="397" y="8" type="curve" smooth="yes"/>
      <point x="397" y="60"/>
      <point x="404" y="84"/>
      <point x="444" y="304" type="curve"/>
      <point x="231" y="329" type="line"/>
      <point x="185" y="75"/>
      <point x="173" y="31"/>
      <point x="173" y="-54" type="curve" smooth="yes"/>
      <point x="173" y="-342"/>
      <point x="341" y="-510"/>
      <point x="628" y="-510" type="curve" smooth="yes"/>
      <point x="852" y="-510"/>
      <point x="1212" y="-413"/>
      <point x="1338" y="-239" type="curve" smooth="yes"/>
      <point x="1380" y="-181"/>
      <point x="1394" y="-131"/>
      <point x="1394" y="-43" type="curve" smooth="yes"/>
      <point x="1394" y="-18"/>
      <point x="1393" y="9"/>
      <point x="1391" y="36" type="curve"/>
      <point x="1497" y="9"/>
      <point x="1623" y="-6"/>
      <point x="1755" y="-6" type="curve" smooth="yes"/>
      <point x="1975" y="-6"/>
      <point x="2225" y="30"/>
      <point x="2369" y="83" type="curve"/>
      <point x="2438" y="22"/>
      <point x="2538" y="0"/>
      <point x="2734" y="0" type="curve" smooth="yes"/>
      <point x="2853" y="0" type="line"/>
      <point x="2896" y="39"/>
      <point x="2918" y="86"/>
      <point x="2918" y="137" type="curve" smooth="yes"/>
      <point x="2918" y="188"/>
      <point x="2896" y="233"/>
      <point x="2853" y="273" type="curve"/>
    </contour>
    <contour>
      <point x="1741" y="261"/>
      <point x="1651" y="267"/>
      <point x="1559" y="279" type="curve"/>
      <point x="1749" y="494"/>
      <point x="1902" y="590"/>
      <point x="2047" y="590" type="curve" smooth="yes"/>
      <point x="2188" y="590"/>
      <point x="2287" y="426"/>
      <point x="2322" y="340" type="curve"/>
      <point x="2172" y="287"/>
      <point x="2008" y="261"/>
      <point x="1831" y="261" type="curve" smooth="yes"/>
    </contour>
    <contour>
      <point x="735" y="620" type="move" name="top"/>
    </contour>
    <contour>
      <point x="633" y="-730" type="move" name="bottom"/>
    </contour>
  </outline>
</glyph>
<glyph name="sad-ar.init" format="1">
  <advance width="1776"/>
  <unicode hex="FEBB"/>
  <outline>
    <contour>
      <point x="963" y="863"/>
      <point x="725" y="695"/>
      <point x="427" y="343" type="curve"/>
      <point x="427" y="361"/>
      <point x="430" y="394"/>
      <point x="435" y="457" type="curve" smooth="yes"/>
      <point x="453" y="639" type="line"/>
      <point x="245" y="656" type="line"/>
      <point x="210" y="412" type="line" smooth="yes"/>
      <point x="193" y="293"/>
      <point x="171" y="273"/>
      <point x="44" y="273" type="curve" smooth="yes"/>
      <point x="-30" y="273" type="line" smooth="yes"/>
      <point x="-102" y="273"/>
      <point x="-160" y="212"/>
      <point x="-160" y="137" type="curve" smooth="yes"/>
      <point x="-160" y="61"/>
      <point x="-102" y="0"/>
      <point x="-30" y="0" type="curve" smooth="yes"/>
      <point x="44" y="0" type="line" smooth="yes"/>
      <point x="138" y="0"/>
      <point x="230" y="33"/>
      <point x="300" y="91" type="curve"/>
      <point x="424" y="27"/>
      <point x="600" y="-8"/>
      <point x="792" y="-6" type="curve" smooth="yes"/>
      <point x="1019" y="-4"/>
      <point x="1315" y="39"/>
      <point x="1490" y="157" type="curve" smooth="yes"/>
      <point x="1588" y="223"/>
      <point x="1641" y="312"/>
      <point x="1641" y="412" type="curve" smooth="yes"/>
      <point x="1641" y="642"/>
      <point x="1408" y="861"/>
      <point x="1163" y="862" type="curve" smooth="yes"/>
    </contour>
    <contour>
      <point x="765" y="267"/>
      <point x="700" y="271"/>
      <point x="638" y="278" type="curve"/>
      <point x="827" y="495"/>
      <point x="957" y="579"/>
      <point x="1096" y="579" type="curve" smooth="yes"/>
      <point x="1257" y="579"/>
      <point x="1367" y="461"/>
      <point x="1416" y="386" type="curve"/>
      <point x="1260" y="309"/>
      <point x="1053" y="267"/>
      <point x="830" y="267" type="curve" smooth="yes"/>
    </contour>
    <contour>
      <point x="1164" y="1073" type="move" name="top"/>
    </contour>
    <contour>
      <point x="819" y="-216" type="move" name="bottom"/>
    </contour>
  </outline>
</glyph>
<glyph name="sad-ar.medi" format="1">
  <advance width="1880"/>
  <unicode hex="FEBC"/>
  <outline>
    <contour>
      <point x="1790" y="273" type="line" smooth="yes"/>
      <point x="1742" y="273"/>
      <point x="1658" y="276"/>
      <point x="1587" y="286" type="curve"/>
      <point x="1593" y="313"/>
      <point x="1596" y="341"/>
      <point x="1596" y="371" type="curve" smooth="yes"/>
      <point x="1596" y="624"/>
      <point x="1377" y="860"/>
      <point x="1140" y="862" type="curve" smooth="yes"/>
      <point x="943" y="864"/>
      <point x="712" y="703"/>
      <point x="424" y="366" type="curve"/>
      <point x="430" y="403"/>
      <point x="440" y="478"/>
      <point x="453" y="637" type="curve"/>
      <point x="244" y="653" type="line"/>
      <point x="210" y="402" type="line" smooth="yes"/>
      <point x="195" y="290"/>
      <point x="174" y="273"/>
      <point x="44" y="273" type="curve" smooth="yes"/>
      <point x="-30" y="273" type="line" smooth="yes"/>
      <point x="-102" y="273"/>
      <point x="-160" y="212"/>
      <point x="-160" y="137" type="curve" smooth="yes"/>
      <point x="-160" y="61"/>
      <point x="-102" y="0"/>
      <point x="-30" y="0" type="curve" smooth="yes"/>
      <point x="44" y="0" type="line" smooth="yes"/>
      <point x="150" y="0"/>
      <point x="243" y="30"/>
      <point x="308" y="85" type="curve"/>
      <point x="431" y="30"/>
      <point x="615" y="-2"/>
      <point x="808" y="-2" type="curve" smooth="yes"/>
      <point x="1014" y="-2"/>
      <point x="1276" y="30"/>
      <point x="1429" y="98" type="curve"/>
      <point x="1503" y="31"/>
      <point x="1618" y="0"/>
      <point x="1790" y="0" type="curve" smooth="yes"/>
      <point x="1910" y="0" type="line"/>
      <point x="1953" y="39"/>
      <point x="1975" y="86"/>
      <point x="1975" y="137" type="curve" smooth="yes"/>
      <point x="1975" y="188"/>
      <point x="1953" y="233"/>
      <point x="1910" y="273" type="curve"/>
    </contour>
    <contour>
      <point x="805" y="259"/>
      <point x="712" y="268"/>
      <point x="615" y="283" type="curve"/>
      <point x="803" y="494"/>
      <point x="956" y="590"/>
      <point x="1103" y="590" type="curve" smooth="yes"/>
      <point x="1245" y="590"/>
      <point x="1343" y="431"/>
      <point x="1379" y="347" type="curve"/>
      <point x="1218" y="287"/>
      <point x="1065" y="259"/>
      <point x="900" y="259" type="curve" smooth="yes"/>
    </contour>
    <contour>
      <point x="1135" y="1078" type="move" name="top"/>
    </contour>
    <contour>
      <point x="861" y="-218" type="move" name="bottom"/>
    </contour>
  </outline>
</glyph>
<glyph name="tah-ar.fina" format="1">
  <advance width="1765"/>
  <unicode hex="FEC2"/>
  <outline>
    <contour>
      <point x="1696" y="273" type="line" smooth="yes"/>
      <point x="1666" y="273"/>
      <point x="1615" y="275"/>
      <point x="1564" y="278" type="curve"/>
      <point x="1604" y="333"/>
      <point x="1624" y="393"/>
      <point x="1624" y="459" type="curve" smooth="yes"/>
      <point x="1624" y="685"/>
      <point x="1398" y="905"/>
      <point x="1166" y="907" type="curve" smooth="yes"/>
      <point x="1019" y="908"/>
      <point x="855" y="828"/>
      <point x="686" y="673" type="curve"/>
      <point x="688" y="704"/>
      <point x="689" y="738"/>
      <point x="689" y="778" type="curve"/>
      <point x="668" y="1537" type="line"/>
      <point x="393" y="1429" type="line"/>
      <point x="443" y="595" type="line" smooth="yes"/>
      <point x="453" y="435"/>
      <point x="427" y="385"/>
      <point x="305" y="262" type="curve"/>
      <point x="259" y="265"/>
      <point x="252" y="266"/>
      <point x="173" y="276" type="curve"/>
      <point x="214" y="1" type="line"/>
      <point x="301" y="-8"/>
      <point x="492" y="-18"/>
      <point x="571" y="-18" type="curve" smooth="yes"/>
      <point x="786" y="-18"/>
      <point x="1068" y="11"/>
      <point x="1284" y="91" type="curve"/>
      <point x="1385" y="55"/>
      <point x="1529" y="0"/>
      <point x="1696" y="0" type="curve" smooth="yes"/>
      <point x="1795" y="0" type="line"/>
      <point x="1838" y="39"/>
      <point x="1860" y="86"/>
      <point x="1860" y="137" type="curve" smooth="yes"/>
      <point x="1860" y="188"/>
      <point x="1838" y="233"/>
      <point x="1795" y="273" type="curve"/>
    </contour>
    <contour>
      <point x="865" y="560"/>
      <point x="957" y="621"/>
      <point x="1088" y="621" type="curve" smooth="yes"/>
      <point x="1166" y="621"/>
      <point x="1300" y="530"/>
      <point x="1391" y="419" type="curve"/>
      <point x="1167" y="314"/>
      <point x="892" y="263"/>
      <point x="583" y="274" type="curve"/>
    </contour>
    <contour>
      <point x="1166" y="1117" type="move" name="top"/>
    </contour>
    <contour>
      <point x="716" y="-221" type="move" name="bottom"/>
    </contour>
  </outline>
</glyph>
<glyph name="tah-ar.init" format="1">
  <advance width="1663"/>
  <unicode hex="FEC3"/>
  <outline>
    <contour>
      <point x="923" y="908"/>
      <point x="761" y="828"/>
      <point x="591" y="674" type="curve"/>
      <point x="593" y="704"/>
      <point x="594" y="737"/>
      <point x="594" y="774" type="curve"/>
      <point x="573" y="1541" type="line"/>
      <point x="305" y="1437" type="line"/>
      <point x="340" y="651" type="line"/>
      <point x="340" y="458"/>
      <point x="319" y="397"/>
      <point x="203" y="273" type="curve"/>
      <point x="-30" y="273" type="line" smooth="yes"/>
      <point x="-102" y="273"/>
      <point x="-160" y="212"/>
      <point x="-160" y="137" type="curve" smooth="yes"/>
      <point x="-160" y="61"/>
      <point x="-102" y="0"/>
      <point x="-30" y="0" type="curve" smooth="yes"/>
      <point x="353" y="0" type="line" smooth="yes"/>
      <point x="839" y="0"/>
      <point x="1528" y="40"/>
      <point x="1528" y="459" type="curve" smooth="yes"/>
      <point x="1528" y="685"/>
      <point x="1302" y="905"/>
      <point x="1069" y="907" type="curve" smooth="yes"/>
    </contour>
    <contour>
      <point x="770" y="577"/>
      <point x="862" y="637"/>
      <point x="992" y="637" type="curve" smooth="yes"/>
      <point x="1070" y="637"/>
      <point x="1216" y="552"/>
      <point x="1308" y="440" type="curve"/>
      <point x="1051" y="318"/>
      <point x="781" y="303"/>
      <point x="494" y="295" type="curve"/>
    </contour>
    <contour>
      <point x="1069" y="1117" type="move" name="top"/>
    </contour>
    <contour>
      <point x="792" y="-215" type="move" name="bottom"/>
    </contour>
  </outline>
</glyph>
<glyph name="tah-ar.medi" format="1">
  <advance width="1646"/>
  <unicode hex="FEC4"/>
  <outline>
    <contour>
      <point x="1585" y="273" type="line" smooth="yes"/>
      <point x="1556" y="273"/>
      <point x="1501" y="275"/>
      <point x="1449" y="278" type="curve"/>
      <point x="1503" y="340"/>
      <point x="1528" y="397"/>
      <point x="1528" y="459" type="curve" smooth="yes"/>
      <point x="1528" y="685"/>
      <point x="1302" y="905"/>
      <point x="1069" y="907" type="curve" smooth="yes"/>
      <point x="923" y="908"/>
      <point x="761" y="828"/>
      <point x="591" y="674" type="curve"/>
      <point x="593" y="704"/>
      <point x="594" y="737"/>
      <point x="594" y="773" type="curve"/>
      <point x="573" y="1541" type="line"/>
      <point x="305" y="1437" type="line"/>
      <point x="340" y="651" type="line"/>
      <point x="340" y="458"/>
      <point x="319" y="397"/>
      <point x="203" y="273" type="curve"/>
      <point x="-30" y="273" type="line" smooth="yes"/>
      <point x="-102" y="273"/>
      <point x="-160" y="212"/>
      <point x="-160" y="137" type="curve" smooth="yes"/>
      <point x="-160" y="61"/>
      <point x="-102" y="0"/>
      <point x="-30" y="0" type="curve" smooth="yes"/>
      <point x="353" y="0" type="line" smooth="yes"/>
      <point x="605" y="0"/>
      <point x="918" y="1"/>
      <point x="1165" y="86" type="curve"/>
      <point x="1240" y="28"/>
      <point x="1379" y="0"/>
      <point x="1585" y="0" type="curve" smooth="yes"/>
      <point x="1676" y="0" type="line"/>
      <point x="1719" y="39"/>
      <point x="1741" y="86"/>
      <point x="1741" y="137" type="curve" smooth="yes"/>
      <point x="1741" y="188"/>
      <point x="1719" y="233"/>
      <point x="1676" y="273" type="curve"/>
    </contour>
    <contour>
      <point x="770" y="561"/>
      <point x="862" y="621"/>
      <point x="992" y="621" type="curve" smooth="yes"/>
      <point x="1070" y="621"/>
      <point x="1217" y="535"/>
      <point x="1308" y="424" type="curve"/>
      <point x="1051" y="302"/>
      <point x="781" y="287"/>
      <point x="494" y="279" type="curve"/>
    </contour>
    <contour>
      <point x="1070" y="1118" type="move" name="top"/>
    </contour>
    <contour>
      <point x="602" y="-219" type="move" name="bottom"/>
    </contour>
  </outline>
</glyph>
<glyph name="ain-ar.fina" format="1">
  <advance width="1304"/>
  <unicode hex="FECA"/>
  <outline>
    <contour>
      <point x="1257" y="273" type="line" smooth="yes"/>
      <point x="1057" y="273"/>
      <point x="957" y="350"/>
      <point x="850" y="458" type="curve"/>
      <point x="992" y="546"/>
      <point x="1224" y="664"/>
      <point x="1224" y="846" type="curve" smooth="yes"/>
      <point x="1224" y="1029"/>
      <point x="1005" y="1169"/>
      <point x="728" y="1169" type="curve" smooth="yes"/>
      <point x="577" y="1169"/>
      <point x="384" y="1108"/>
      <point x="280" y="1061" type="curve"/>
      <point x="173" y="744" type="line"/>
      <point x="285" y="667"/>
      <point x="379" y="593"/>
      <point x="476" y="507" type="curve"/>
      <point x="296" y="352"/>
      <point x="175" y="91"/>
      <point x="175" y="-149" type="curve" smooth="yes"/>
      <point x="175" y="-500"/>
      <point x="416" y="-697"/>
      <point x="845" y="-697" type="curve" smooth="yes"/>
      <point x="953" y="-697"/>
      <point x="1134" y="-680"/>
      <point x="1218" y="-649" type="curve"/>
      <point x="1290" y="-364" type="line"/>
      <point x="1166" y="-381"/>
      <point x="1031" y="-403"/>
      <point x="897" y="-403" type="curve" smooth="yes"/>
      <point x="577" y="-403"/>
      <point x="396" y="-296"/>
      <point x="396" y="-113" type="curve" smooth="yes"/>
      <point x="396" y="25"/>
      <point x="496" y="196"/>
      <point x="641" y="307" type="curve"/>
      <point x="906" y="12"/>
      <point x="1099" y="0"/>
      <point x="1261" y="0" type="curve" smooth="yes"/>
      <point x="1334" y="0" type="line"/>
      <point x="1377" y="39"/>
      <point x="1399" y="86"/>
      <point x="1399" y="137" type="curve" smooth="yes"/>
      <point x="1399" y="188"/>
      <point x="1377" y="233"/>
      <point x="1334" y="273" type="curve"/>
    </contour>
    <contour>
      <point x="602" y="741"/>
      <point x="521" y="811"/>
      <point x="467" y="856" type="curve"/>
      <point x="556" y="884"/>
      <point x="641" y="899"/>
      <point x="719" y="899" type="curve" smooth="yes"/>
      <point x="827" y="899"/>
      <point x="916" y="872"/>
      <point x="980" y="822" type="curve"/>
      <point x="687" y="655" type="line"/>
    </contour>
    <contour>
      <point x="728" y="1388" type="move" name="top"/>
    </contour>
    <contour>
      <point x="845" y="-907" type="move" name="bottom"/>
    </contour>
  </outline>
</glyph>
<glyph name="ain-ar.init" format="1">
  <advance width="1240"/>
  <unicode hex="FECB"/>
  <outline>
    <contour>
      <point x="462" y="453"/>
      <point x="404" y="568"/>
      <point x="370" y="701" type="curve"/>
      <point x="439" y="743"/>
      <point x="513" y="763"/>
      <point x="597" y="763" type="curve" smooth="yes"/>
      <point x="684" y="763"/>
      <point x="774" y="742"/>
      <point x="875" y="697" type="curve"/>
      <point x="855" y="970" type="line"/>
      <point x="769" y="1013"/>
      <point x="671" y="1036"/>
      <point x="575" y="1036" type="curve" smooth="yes"/>
      <point x="326" y="1036"/>
      <point x="143" y="885"/>
      <point x="129" y="666" type="curve"/>
      <point x="129" y="526"/>
      <point x="192" y="407"/>
      <point x="277" y="279" type="curve"/>
      <point x="219" y="275"/>
      <point x="142" y="273"/>
      <point x="44" y="273" type="curve" smooth="yes"/>
      <point x="-30" y="273" type="line" smooth="yes"/>
      <point x="-102" y="273"/>
      <point x="-160" y="212"/>
      <point x="-160" y="137" type="curve" smooth="yes"/>
      <point x="-160" y="61"/>
      <point x="-102" y="0"/>
      <point x="-30" y="0" type="curve" smooth="yes"/>
      <point x="44" y="0" type="line" smooth="yes"/>
      <point x="435" y="0"/>
      <point x="703" y="61"/>
      <point x="1084" y="197" type="curve"/>
      <point x="1105" y="484" type="line"/>
      <point x="558" y="330" type="line"/>
    </contour>
    <contour>
      <point x="565" y="1257" type="move" name="top"/>
    </contour>
    <contour>
      <point x="579" y="-198" type="move" name="bottom"/>
    </contour>
  </outline>
</glyph>
<glyph name="ain-ar.medi" format="1">
  <advance width="1187"/>
  <unicode hex="FECC"/>
  <outline>
    <contour>
      <point x="1126" y="273" type="line" smooth="yes"/>
      <point x="1042" y="273"/>
      <point x="924" y="280"/>
      <point x="843" y="290" type="curve"/>
      <point x="935" y="357"/>
      <point x="1104" y="496"/>
      <point x="1104" y="584" type="curve" smooth="yes"/>
      <point x="1104" y="812"/>
      <point x="823" y="924"/>
      <point x="635" y="924" type="curve" smooth="yes"/>
      <point x="485" y="924"/>
      <point x="293" y="859"/>
      <point x="189" y="813" type="curve"/>
      <point x="110" y="476" type="line"/>
      <point x="394" y="300" type="line"/>
      <point x="293" y="283"/>
      <point x="169" y="273"/>
      <point x="44" y="273" type="curve" smooth="yes"/>
      <point x="-30" y="273" type="line" smooth="yes"/>
      <point x="-102" y="273"/>
      <point x="-160" y="212"/>
      <point x="-160" y="137" type="curve" smooth="yes"/>
      <point x="-160" y="61"/>
      <point x="-102" y="0"/>
      <point x="-30" y="0" type="curve" smooth="yes"/>
      <point x="44" y="0" type="line" smooth="yes"/>
      <point x="204" y="0"/>
      <point x="446" y="36"/>
      <point x="608" y="132" type="curve"/>
      <point x="746" y="47"/>
      <point x="932" y="0"/>
      <point x="1126" y="0" type="curve" smooth="yes"/>
      <point x="1217" y="0" type="line"/>
      <point x="1260" y="39"/>
      <point x="1282" y="86"/>
      <point x="1282" y="137" type="curve" smooth="yes"/>
      <point x="1282" y="188"/>
      <point x="1260" y="233"/>
      <point x="1217" y="273" type="curve"/>
    </contour>
    <contour>
      <point x="465" y="635"/>
      <point x="546" y="652"/>
      <point x="606" y="652" type="curve" smooth="yes"/>
      <point x="696" y="652"/>
      <point x="803" y="619"/>
      <point x="863" y="575" type="curve"/>
      <point x="630" y="386" type="line"/>
      <point x="557" y="455"/>
      <point x="457" y="535"/>
      <point x="365" y="600" type="curve"/>
    </contour>
    <contour>
      <point x="635" y="1143" type="move" name="top"/>
    </contour>
    <contour>
      <point x="576" y="-200" type="move" name="bottom"/>
    </contour>
  </outline>
</glyph>
<glyph name="qaf-ar.fina" format="1">
  <advance width="1673"/>
  <unicode hex="FED6"/>
  <outline>
    <component base="qafDotless-ar.fina"/>
    <component base="twodotshorizontalabove-ar" xOffset="770" yOffset="259"/>
    <contour>
      <point x="730" y="-710" type="move" name="bottom"/>
    </contour>
  </outline>
</glyph>
<glyph name="qaf-ar.init" format="1">
  <advance width="1011"/>
  <unicode hex="FED7"/>
  <outline>
    <component base="fehDotless-ar.init"/>
    <component base="twodotshorizontalabove-ar" xOffset="123" yOffset="573"/>
    <contour>
      <point x="413" y="-210" type="move" name="bottom"/>
    </contour>
  </outline>
</glyph>
<glyph name="qaf-ar.medi" format="1">
  <advance width="1018"/>
  <unicode hex="FED8"/>
  <outline>
    <component base="fehDotless-ar.medi"/>
    <component base="twodotshorizontalabove-ar" xOffset="215" yOffset="451"/>
    <contour>
      <point x="412" y="-200" type="move" name="bottom"/>
    </contour>
  </outline>
</glyph>
<glyph name="kaf-ar.init" format="1">
  <advance width="869"/>
  <unicode hex="FEDB"/>
  <outline>
    <contour>
      <point x="131" y="1283" type="line"/>
      <point x="-3" y="918" type="line"/>
      <point x="332" y="747"/>
      <point x="484" y="513"/>
      <point x="534" y="348" type="curve"/>
      <point x="386" y="284"/>
      <point x="224" y="273"/>
      <point x="44" y="273" type="curve" smooth="yes"/>
      <point x="-30" y="273" type="line" smooth="yes"/>
      <point x="-102" y="273"/>
      <point x="-160" y="212"/>
      <point x="-160" y="137" type="curve" smooth="yes"/>
      <point x="-160" y="61"/>
      <point x="-102" y="0"/>
      <point x="-30" y="0" type="curve" smooth="yes"/>
      <point x="44" y="0" type="line" smooth="yes"/>
      <point x="490" y="0"/>
      <point x="734" y="127"/>
      <point x="734" y="365" type="curve" smooth="yes"/>
      <point x="734" y="618"/>
      <point x="545" y="897"/>
      <point x="267" y="1067" type="curve"/>
      <point x="791" y="1232" type="line"/>
      <point x="829" y="1517" type="line"/>
    </contour>
    <contour>
      <point x="465" y="1695" type="move" name="top"/>
    </contour>
    <contour>
      <point x="314" y="-207" type="move" name="bottom"/>
    </contour>
    <contour>
      <point x="679" y="1012" type="move" name="ring"/>
    </contour>
  </outline>
</glyph>
<glyph name="kaf-ar.medi" format="1">
  <advance width="1023"/>
  <unicode hex="FEDC"/>
  <outline>
    <contour>
      <point x="962" y="273" type="line" smooth="yes"/>
      <point x="873" y="273"/>
      <point x="820" y="310"/>
      <point x="770" y="407" type="curve" smooth="yes"/>
      <point x="656" y="628"/>
      <point x="569" y="846"/>
      <point x="286" y="1063" type="curve"/>
      <point x="909" y="1256" type="line"/>
      <point x="930" y="1538" type="line"/>
      <point x="166" y="1284" type="line"/>
      <point x="25" y="919" type="line"/>
      <point x="265" y="791"/>
      <point x="450" y="588"/>
      <point x="554" y="338" type="curve"/>
      <point x="435" y="295"/>
      <point x="261" y="273"/>
      <point x="44" y="273" type="curve" smooth="yes"/>
      <point x="-30" y="273" type="line" smooth="yes"/>
      <point x="-102" y="273"/>
      <point x="-160" y="212"/>
      <point x="-160" y="137" type="curve" smooth="yes"/>
      <point x="-160" y="61"/>
      <point x="-102" y="0"/>
      <point x="-30" y="0" type="curve" smooth="yes"/>
      <point x="44" y="0" type="line" smooth="yes"/>
      <point x="388" y="0"/>
      <point x="596" y="55"/>
      <point x="672" y="174" type="curve"/>
      <point x="761" y="59"/>
      <point x="858" y="0"/>
      <point x="962" y="0" type="curve" smooth="yes"/>
      <point x="1053" y="0" type="line"/>
      <point x="1096" y="39"/>
      <point x="1118" y="86"/>
      <point x="1118" y="137" type="curve" smooth="yes"/>
      <point x="1118" y="188"/>
      <point x="1096" y="233"/>
      <point x="1053" y="273" type="curve"/>
    </contour>
    <contour>
      <point x="522" y="1696" type="move" name="top"/>
    </contour>
    <contour>
      <point x="333" y="-203" type="move" name="bottom"/>
    </contour>
    <contour>
      <point x="793" y="1035" type="move" name="ring"/>
    </contour>
  </outline>
</glyph>
<glyph name="lam-ar.fina" format="1">
  <advance width="1608"/>
  <unicode hex="FEDE"/>
  <outline>
    <contour>
      <point x="1540" y="273" type="line" smooth="yes"/>
      <point x="1500" y="273"/>
      <point x="1422" y="287"/>
      <point x="1359" y="305" type="curve"/>
      <point x="1328" y="1557" type="line"/>
      <point x="1055" y="1421" type="line"/>
      <point x="1137" y="-126" type="line"/>
      <point x="1054" y="-155"/>
      <point x="856" y="-216"/>
      <point x="641" y="-216" type="curve" smooth="yes"/>
      <point x="483" y="-216"/>
      <point x="396" y="-147"/>
      <point x="396" y="-25" type="curve" smooth="yes"/>
      <point x="396" y="14"/>
      <point x="405" y="45"/>
      <point x="483" y="382" type="curve"/>
      <point x="277" y="429" type="line"/>
      <point x="187" y="65"/>
      <point x="173" y="8"/>
      <point x="173" y="-87" type="curve" smooth="yes"/>
      <point x="173" y="-349"/>
      <point x="332" y="-503"/>
      <point x="603" y="-503" type="curve" smooth="yes"/>
      <point x="873" y="-503"/>
      <point x="1361" y="-405"/>
      <point x="1368" y="-94" type="curve"/>
      <point x="1366" y="37" type="line"/>
      <point x="1411" y="12"/>
      <point x="1468" y="0"/>
      <point x="1540" y="0" type="curve" smooth="yes"/>
      <point x="1638" y="0" type="line"/>
      <point x="1681" y="39"/>
      <point x="1703" y="86"/>
      <point x="1703" y="137" type="curve" smooth="yes"/>
      <point x="1703" y="188"/>
      <point x="1681" y="233"/>
      <point x="1638" y="273" type="curve"/>
    </contour>
    <contour>
      <point x="712" y="644" type="move" name="top"/>
    </contour>
    <contour>
      <point x="615" y="-713" type="move" name="bottom"/>
    </contour>
  </outline>
</glyph>
<glyph name="lam-ar.init" format="1">
  <advance width="576"/>
  <unicode hex="FEDF"/>
  <outline>
    <contour>
      <point x="98" y="1431" type="line"/>
      <point x="228" y="301" type="line"/>
      <point x="167" y="286"/>
      <point x="87" y="273"/>
      <point x="44" y="273" type="curve" smooth="yes"/>
      <point x="-30" y="273" type="line" smooth="yes"/>
      <point x="-102" y="273"/>
      <point x="-160" y="212"/>
      <point x="-160" y="137" type="curve" smooth="yes"/>
      <point x="-160" y="61"/>
      <point x="-102" y="0"/>
      <point x="-30" y="0" type="curve" smooth="yes"/>
      <point x="44" y="0" type="line" smooth="yes"/>
      <point x="317" y="0"/>
      <point x="441" y="110"/>
      <point x="441" y="354" type="curve"/>
      <point x="363" y="1559" type="line"/>
    </contour>
    <contour>
      <point x="241" y="1764" type="move" name="top"/>
    </contour>
    <contour>
      <point x="151" y="-199" type="move" name="bottom"/>
    </contour>
  </outline>
</glyph>
<glyph name="lam-ar.medi" format="1">
  <advance width="698"/>
  <unicode hex="FEE0"/>
  <outline>
    <contour>
      <point x="630" y="273" type="line" smooth="yes"/>
      <point x="594" y="273"/>
      <point x="517" y="287"/>
      <point x="449" y="305" type="curve"/>
      <point x="429" y="1528" type="line"/>
      <point x="166" y="1414" type="line"/>
      <point x="219" y="300" type="line"/>
      <point x="157" y="282"/>
      <point x="97" y="273"/>
      <point x="44" y="273" type="curve" smooth="yes"/>
      <point x="-30" y="273" type="line" smooth="yes"/>
      <point x="-102" y="273"/>
      <point x="-160" y="212"/>
      <point x="-160" y="137" type="curve" smooth="yes"/>
      <point x="-160" y="61"/>
      <point x="-102" y="0"/>
      <point x="-30" y="0" type="curve" smooth="yes"/>
      <point x="44" y="0" type="line" smooth="yes"/>
      <point x="141" y="0"/>
      <point x="257" y="45"/>
      <point x="342" y="114" type="curve"/>
      <point x="430" y="35"/>
      <point x="518" y="0"/>
      <point x="630" y="0" type="curve" smooth="yes"/>
      <point x="728" y="0" type="line"/>
      <point x="771" y="39"/>
      <point x="793" y="86"/>
      <point x="793" y="137" type="curve" smooth="yes"/>
      <point x="793" y="188"/>
      <point x="771" y="233"/>
      <point x="728" y="273" type="curve"/>
    </contour>
    <contour>
      <point x="319" y="1739" type="move" name="top"/>
    </contour>
    <contour>
      <point x="264" y="-207" type="move" name="bottom"/>
    </contour>
  </outline>
</glyph>
<glyph name="meem-ar.fina" format="1">
  <advance width="1492"/>
  <unicode hex="FEE2"/>
  <outline>
    <contour>
      <point x="1418" y="273" type="line" smooth="yes"/>
      <point x="1287" y="273"/>
      <point x="1225" y="344"/>
      <point x="988" y="771" type="curve"/>
      <point x="469" y="684"/>
      <point x="172" y="468"/>
      <point x="173" y="173" type="curve"/>
      <point x="233" y="-628" type="line"/>
      <point x="494" y="-548" type="line"/>
      <point x="397" y="270" type="line"/>
      <point x="485" y="326" type="line"/>
      <point x="502" y="17"/>
      <point x="688" y="-218"/>
      <point x="940" y="-237" type="curve"/>
      <point x="1175" y="95" type="line"/>
      <point x="1248" y="28"/>
      <point x="1335" y="0"/>
      <point x="1462" y="0" type="curve" smooth="yes"/>
      <point x="1522" y="0" type="line"/>
      <point x="1565" y="39"/>
      <point x="1587" y="86"/>
      <point x="1587" y="137" type="curve" smooth="yes"/>
      <point x="1587" y="188"/>
      <point x="1565" y="233"/>
      <point x="1522" y="273" type="curve"/>
    </contour>
    <contour>
      <point x="774" y="97"/>
      <point x="691" y="232"/>
      <point x="689" y="400" type="curve"/>
      <point x="753" y="424"/>
      <point x="815" y="441"/>
      <point x="878" y="452" type="curve"/>
      <point x="926" y="360"/>
      <point x="968" y="294"/>
      <point x="1007" y="246" type="curve"/>
      <point x="905" y="41" type="line"/>
    </contour>
    <contour>
      <point x="941" y="977" type="move" name="top"/>
    </contour>
    <contour>
      <point x="376" y="-816" type="move" name="bottom"/>
    </contour>
  </outline>
</glyph>
<glyph name="meem-ar.init" format="1">
  <advance width="1276"/>
  <unicode hex="FEE3"/>
  <outline>
    <contour>
      <point x="472" y="906"/>
      <point x="355" y="597"/>
      <point x="235" y="416" type="curve" smooth="yes"/>
      <point x="152" y="291"/>
      <point x="126" y="273"/>
      <point x="30" y="273" type="curve" smooth="yes"/>
      <point x="-30" y="273" type="line" smooth="yes"/>
      <point x="-102" y="273"/>
      <point x="-160" y="212"/>
      <point x="-160" y="137" type="curve" smooth="yes"/>
      <point x="-160" y="61"/>
      <point x="-102" y="0"/>
      <point x="-30" y="0" type="curve" smooth="yes"/>
      <point x="30" y="0" type="line" smooth="yes"/>
      <point x="171" y="0"/>
      <point x="228" y="60"/>
      <point x="343" y="197" type="curve"/>
      <point x="987" y="-57" type="line"/>
      <point x="1141" y="268" type="line"/>
      <point x="1103" y="511"/>
      <point x="960" y="906"/>
      <point x="736" y="906" type="curve" smooth="yes"/>
    </contour>
    <contour>
      <point x="554" y="516"/>
      <point x="603" y="612"/>
      <point x="690" y="612" type="curve" smooth="yes"/>
      <point x="773" y="612"/>
      <point x="845" y="504"/>
      <point x="900" y="292" type="curve"/>
      <point x="509" y="429" type="line"/>
    </contour>
    <contour>
      <point x="736" y="1109" type="move" name="top"/>
    </contour>
    <contour>
      <point x="669" y="-263" type="move" name="bottom"/>
    </contour>
  </outline>
</glyph>
<glyph name="meem-ar.medi" format="1">
  <advance width="1312"/>
  <unicode hex="FEE4"/>
  <outline>
    <contour>
      <point x="1282" y="273" type="line" smooth="yes"/>
      <point x="1165" y="273"/>
      <point x="1083" y="325"/>
      <point x="1037" y="430" type="curve" smooth="yes"/>
      <point x="811" y="946" type="line"/>
      <point x="514" y="887"/>
      <point x="256" y="608"/>
      <point x="202" y="296" type="curve"/>
      <point x="145" y="280"/>
      <point x="92" y="273"/>
      <point x="30" y="273" type="curve" smooth="yes"/>
      <point x="-30" y="273" type="line" smooth="yes"/>
      <point x="-102" y="273"/>
      <point x="-160" y="212"/>
      <point x="-160" y="137" type="curve" smooth="yes"/>
      <point x="-160" y="61"/>
      <point x="-102" y="0"/>
      <point x="-30" y="0" type="curve" smooth="yes"/>
      <point x="30" y="0" type="line" smooth="yes"/>
      <point x="151" y="0"/>
      <point x="202" y="25"/>
      <point x="281" y="117" type="curve"/>
      <point x="949" y="-76" type="line"/>
      <point x="1024" y="99" type="line"/>
      <point x="1088" y="35"/>
      <point x="1163" y="0"/>
      <point x="1238" y="0" type="curve" smooth="yes"/>
      <point x="1342" y="0" type="line"/>
      <point x="1385" y="39"/>
      <point x="1407" y="86"/>
      <point x="1407" y="137" type="curve" smooth="yes"/>
      <point x="1407" y="188"/>
      <point x="1385" y="233"/>
      <point x="1342" y="273" type="curve"/>
    </contour>
    <contour>
      <point x="466" y="475"/>
      <point x="559" y="577"/>
      <point x="664" y="630" type="curve"/>
      <point x="836" y="257" type="line"/>
      <point x="423" y="364" type="line"/>
    </contour>
    <contour>
      <point x="778" y="1162" type="move" name="top"/>
    </contour>
    <contour>
      <point x="671" y="-256" type="move" name="bottom"/>
    </contour>
  </outline>
</glyph>
<glyph name="heh-ar.fina" format="1">
  <advance width="1163"/>
  <unicode hex="FEEA"/>
  <outline>
    <contour>
      <point x="1102" y="273" type="line" smooth="yes"/>
      <point x="973" y="273"/>
      <point x="924" y="319"/>
      <point x="914" y="452" type="curve" smooth="yes"/>
      <point x="862" y="1136" type="line"/>
      <point x="597" y="1029" type="line"/>
      <point x="628" y="833" type="line"/>
      <point x="340" y="684"/>
      <point x="189" y="493"/>
      <point x="173" y="256" type="curve"/>
      <point x="172" y="136"/>
      <point x="332" y="49"/>
      <point x="533" y="45" type="curve" smooth="yes"/>
      <point x="586" y="44"/>
      <point x="661" y="46"/>
      <point x="706" y="53" type="curve"/>
      <point x="749" y="223" type="line"/>
      <point x="807" y="54"/>
      <point x="931" y="0"/>
      <point x="1102" y="0" type="curve" smooth="yes"/>
      <point x="1193" y="0" type="line"/>
      <point x="1236" y="39"/>
      <point x="1258" y="86"/>
      <point x="1258" y="137" type="curve" smooth="yes"/>
      <point x="1258" y="188"/>
      <point x="1236" y="233"/>
      <point x="1193" y="273" type="curve"/>
    </contour>
    <contour>
      <point x="519" y="321"/>
      <point x="434" y="336"/>
      <point x="377" y="361" type="curve"/>
      <point x="428" y="443"/>
      <point x="534" y="528"/>
      <point x="665" y="593" type="curve"/>
      <point x="704" y="328" type="line"/>
      <point x="673" y="323"/>
      <point x="641" y="321"/>
      <point x="609" y="321" type="curve" smooth="yes"/>
    </contour>
    <contour>
      <point x="719" y="1278" type="move" name="top"/>
    </contour>
    <contour>
      <point x="546" y="-161" type="move" name="bottom"/>
    </contour>
  </outline>
</glyph>
<glyph name="heh-ar.init" format="1">
  <advance width="1448"/>
  <unicode hex="FEEB"/>
  <outline>
    <contour>
      <point x="1146" y="875"/>
      <point x="794" y="1122"/>
      <point x="628" y="1211" type="curve"/>
      <point x="585" y="1021" type="line"/>
      <point x="321" y="909"/>
      <point x="164" y="565"/>
      <point x="250" y="288" type="curve"/>
      <point x="198" y="277"/>
      <point x="135" y="273"/>
      <point x="44" y="273" type="curve" smooth="yes"/>
      <point x="-30" y="273" type="line" smooth="yes"/>
      <point x="-102" y="273"/>
      <point x="-160" y="212"/>
      <point x="-160" y="137" type="curve" smooth="yes"/>
      <point x="-160" y="61"/>
      <point x="-102" y="0"/>
      <point x="-30" y="0" type="curve" smooth="yes"/>
      <point x="44" y="0" type="line" smooth="yes"/>
      <point x="220" y="0"/>
      <point x="479" y="75"/>
      <point x="612" y="164" type="curve"/>
      <point x="1199" y="-12" type="line"/>
      <point x="1312" y="281"/>
      <point x="1355" y="456"/>
      <point x="1260" y="646" type="curve" smooth="yes"/>
    </contour>
    <contour>
      <point x="325" y="372"/>
      <point x="359" y="769"/>
      <point x="608" y="769" type="curve" smooth="yes"/>
      <point x="655" y="769"/>
      <point x="713" y="738"/>
      <point x="744" y="697" type="curve"/>
      <point x="588" y="398" type="line"/>
    </contour>
    <contour>
      <point x="911" y="644" type="line"/>
      <point x="1021" y="566"/>
      <point x="1091" y="444"/>
      <point x="1101" y="320" type="curve"/>
      <point x="821" y="401" type="line"/>
    </contour>
    <contour>
      <point x="652" y="1407" type="move" name="top"/>
    </contour>
    <contour>
      <point x="581" y="-184" type="move" name="bottom"/>
    </contour>
  </outline>
</glyph>
<glyph name="heh-ar.medi" format="1">
  <advance width="935"/>
  <unicode hex="FEEC"/>
  <outline>
    <contour>
      <point x="875" y="273" type="line" smooth="yes"/>
      <point x="814" y="273"/>
      <point x="767" y="270"/>
      <point x="714" y="263" type="curve"/>
      <point x="791" y="352"/>
      <point x="817" y="432"/>
      <point x="819" y="572" type="curve" smooth="yes"/>
      <point x="825" y="912" type="line"/>
      <point x="549" y="1026" type="line"/>
      <point x="331" y="839"/>
      <point x="186" y="591"/>
      <point x="107" y="273" type="curve"/>
      <point x="-30" y="273" type="line" smooth="yes"/>
      <point x="-102" y="273"/>
      <point x="-160" y="212"/>
      <point x="-160" y="137" type="curve" smooth="yes"/>
      <point x="-160" y="61"/>
      <point x="-102" y="0"/>
      <point x="-30" y="0" type="curve" smooth="yes"/>
      <point x="98" y="0" type="line"/>
      <point x="143" y="-373"/>
      <point x="360" y="-545"/>
      <point x="778" y="-540" type="curve"/>
      <point x="885" y="-287"/>
      <point x="887" y="-110"/>
      <point x="781" y="0" type="curve"/>
      <point x="965" y="0" type="line"/>
      <point x="1008" y="39"/>
      <point x="1030" y="86"/>
      <point x="1030" y="137" type="curve" smooth="yes"/>
      <point x="1030" y="188"/>
      <point x="1008" y="233"/>
      <point x="965" y="273" type="curve"/>
    </contour>
    <contour>
      <point x="578" y="396" type="line"/>
      <point x="356" y="271" type="line"/>
      <point x="395" y="432"/>
      <point x="476" y="589"/>
      <point x="576" y="699" type="curve"/>
    </contour>
    <contour>
      <point x="520" y="4"/>
      <point x="620" y="-86"/>
      <point x="671" y="-265" type="curve"/>
      <point x="492" y="-252"/>
      <point x="378" y="-149"/>
      <point x="353" y="21" type="curve"/>
    </contour>
    <contour>
      <point x="587" y="1233" type="move" name="top"/>
    </contour>
    <contour>
      <point x="663" y="-750" type="move" name="bottom"/>
    </contour>
  </outline>
</glyph>
<glyph name="waw-ar.fina" format="1">
  <advance width="1130"/>
  <unicode hex="FEEE"/>
  <outline>
    <contour>
      <point x="981" y="273" type="line"/>
      <point x="972" y="519"/>
      <point x="858" y="891"/>
      <point x="591" y="891" type="curve" smooth="yes"/>
      <point x="333" y="891"/>
      <point x="173" y="553"/>
      <point x="173" y="315" type="curve" smooth="yes"/>
      <point x="173" y="90"/>
      <point x="287" y="-5"/>
      <point x="554" y="-5" type="curve" smooth="yes"/>
      <point x="600" y="-5"/>
      <point x="701" y="-2"/>
      <point x="756" y="2" type="curve"/>
      <point x="669" y="-145"/>
      <point x="482" y="-216"/>
      <point x="288" y="-216" type="curve" smooth="yes"/>
      <point x="218" y="-216"/>
      <point x="141" y="-206"/>
      <point x="45" y="-185" type="curve"/>
      <point x="0" y="-394" type="line"/>
      <point x="157" y="-446"/>
      <point x="292" y="-472"/>
      <point x="403" y="-472" type="curve" smooth="yes"/>
      <point x="659" y="-472"/>
      <point x="868" y="-289"/>
      <point x="946" y="0" type="curve"/>
      <point x="1160" y="0" type="line"/>
      <point x="1203" y="39"/>
      <point x="1225" y="86"/>
      <point x="1225" y="137" type="curve" smooth="yes"/>
      <point x="1225" y="188"/>
      <point x="1203" y="233"/>
      <point x="1160" y="273" type="curve"/>
    </contour>
    <contour>
      <point x="513" y="272"/>
      <point x="438" y="279"/>
      <point x="378" y="299" type="curve"/>
      <point x="379" y="438"/>
      <point x="473" y="596"/>
      <point x="553" y="596" type="curve" smooth="yes"/>
      <point x="634" y="596"/>
      <point x="726" y="441"/>
      <point x="743" y="276" type="curve"/>
      <point x="620" y="274" type="line" smooth="yes"/>
    </contour>
    <contour>
      <point x="588" y="1104" type="move" name="top"/>
    </contour>
    <contour>
      <point x="429" y="-671" type="move" name="bottom"/>
    </contour>
  </outline>
</glyph>
<glyph name="alefMaksura-ar.fina" format="1">
  <advance width="1637"/>
  <unicode hex="FEF0"/>
  <outline>
    <contour>
      <point x="1092" y="273" type="line"/>
      <point x="944" y="-44" type="line"/>
      <point x="1303" y="-169" type="line"/>
      <point x="1104" y="-271"/>
      <point x="888" y="-320"/>
      <point x="718" y="-320" type="curve" smooth="yes"/>
      <point x="507" y="-320"/>
      <point x="403" y="-229"/>
      <point x="403" y="-44" type="curve" smooth="yes"/>
      <point x="403" y="44"/>
      <point x="414" y="75"/>
      <point x="488" y="362" type="curve"/>
      <point x="279" y="409" type="line"/>
      <point x="192" y="79"/>
      <point x="173" y="15"/>
      <point x="173" y="-124" type="curve" smooth="yes"/>
      <point x="173" y="-437"/>
      <point x="357" y="-612"/>
      <point x="685" y="-612" type="curve" smooth="yes"/>
      <point x="840" y="-612"/>
      <point x="1125" y="-541"/>
      <point x="1312" y="-423" type="curve" smooth="yes"/>
      <point x="1445" y="-339"/>
      <point x="1503" y="-251"/>
      <point x="1503" y="-132" type="curve" smooth="yes"/>
      <point x="1503" y="-88"/>
      <point x="1457" y="-29"/>
      <point x="1378" y="3" type="curve"/>
      <point x="1576" y="0" type="line"/>
      <point x="1667" y="0" type="line"/>
      <point x="1710" y="39"/>
      <point x="1732" y="86"/>
      <point x="1732" y="137" type="curve" smooth="yes"/>
      <point x="1732" y="188"/>
      <point x="1710" y="233"/>
      <point x="1667" y="273" type="curve"/>
    </contour>
    <contour>
      <point x="928" y="563" type="move" name="top"/>
    </contour>
    <contour>
      <point x="695" y="-812" type="move" name="bottom"/>
    </contour>
  </outline>
</glyph>
<glyph name="yeh-ar.init" format="1">
  <advance width="867"/>
  <unicode hex="FEF3"/>
  <outline>
    <component base="dotlessbeh2-ar.init"/>
    <component base="twodotshorizontalbelow-ar" xOffset="20" yOffset="-51"/>
    <contour>
      <point x="555" y="1179" type="move" name="top"/>
    </contour>
  </outline>
</glyph>
<glyph name="yeh-ar.medi" format="1">
  <advance width="893"/>
  <unicode hex="FEF4"/>
  <outline>
    <component base="behDotless-ar.medi"/>
    <component base="twodotshorizontalbelow-ar" xOffset="-52" yOffset="-30"/>
    <contour>
      <point x="508" y="860" type="move" name="top"/>
    </contour>
  </outline>
</glyph>
<glyph name="lam_alefHamzaabove-ar" format="1">
  <advance width="1312"/>
  <unicode hex="FEF7"/>
  <outline>
    <component base="lam_alef-ar"/>
    <component base="hamzaabove-ar" xOffset="45" yOffset="964"/>
    <contour>
      <point x="273" y="2478" type="move" name="top_2"/>
    </contour>
  </outline>
</glyph>
<glyph name="lam_alefHamzabelow-ar" format="1">
  <advance width="1312"/>
  <unicode hex="FEF9"/>
  <outline>
    <component base="lam_alef-ar"/>
    <component base="hamzabelow-ar" xOffset="205" yOffset="-30"/>
    <contour>
      <point x="483" y="-986" type="move" name="bottom_2"/>
    </contour>
    <contour>
      <point x="968" y="-193" type="move" name="bottom_1"/>
    </contour>
  </outline>
</glyph>
<glyph name="lam_alef-ar" format="1">
  <advance width="1312"/>
  <unicode hex="FEFB"/>
  <outline>
    <contour>
      <point x="795" y="526" type="line"/>
      <point x="887" y="426"/>
      <point x="963" y="327"/>
      <point x="986" y="289" type="curve"/>
      <point x="890" y="269"/>
      <point x="748" y="257"/>
      <point x="609" y="257" type="curve"/>
    </contour>
    <contour>
      <point x="284" y="-5" type="line"/>
      <point x="303" y="-5"/>
      <point x="417" y="-16"/>
      <point x="556" y="-16" type="curve" smooth="yes"/>
      <point x="908" y="-16"/>
      <point x="1113" y="42"/>
      <point x="1152" y="159" type="curve" smooth="yes"/>
      <point x="1169" y="210"/>
      <point x="1177" y="258"/>
      <point x="1177" y="306" type="curve" smooth="yes"/>
      <point x="1177" y="436"/>
      <point x="1115" y="559"/>
      <point x="967" y="724" type="curve"/>
      <point x="1057" y="926"/>
      <point x="1072" y="1003"/>
      <point x="1072" y="1245" type="curve"/>
      <point x="1070" y="1553" type="line"/>
      <point x="805" y="1430" type="line"/>
      <point x="815" y="1029"/>
      <point x="824" y="944"/>
      <point x="811" y="881" type="curve"/>
      <point x="310" y="1438" type="line"/>
      <point x="173" y="1184" type="line"/>
      <point x="648" y="664" type="line"/>
      <point x="361" y="264" type="line"/>
      <point x="261" y="275" type="line"/>
    </contour>
    <contour>
      <point x="594" y="1577" type="move" name="caret_1"/>
    </contour>
    <contour>
      <point x="999" y="-194" type="move" name="bottom_1"/>
    </contour>
    <contour>
      <point x="1007" y="1760" type="move" name="top_1"/>
    </contour>
    <contour>
      <point x="311" y="1666" type="move" name="top_2"/>
    </contour>
    <contour>
      <point x="334" y="-201" type="move" name="bottom_2"/>
    </contour>
  </outline>
</glyph>
<glyph name="lam_alef-ar.fina" format="1">
  <advance width="1422"/>
  <unicode hex="FEFC"/>
  <outline>
    <contour>
      <point x="1392" y="273" type="line" smooth="yes"/>
      <point x="1301" y="273"/>
      <point x="1255" y="286"/>
      <point x="1141" y="336" type="curve"/>
      <point x="1137" y="1521" type="line"/>
      <point x="873" y="1372" type="line"/>
      <point x="875" y="1118" type="line" smooth="yes"/>
      <point x="878" y="745"/>
      <point x="832" y="441"/>
      <point x="758" y="318" type="curve"/>
      <point x="659" y="639"/>
      <point x="467" y="1050"/>
      <point x="344" y="1251" type="curve"/>
      <point x="173" y="1056" type="line"/>
      <point x="577" y="198" type="line"/>
      <point x="235" y="120" type="line"/>
      <point x="344" y="-137" type="line"/>
      <point x="705" y="-90"/>
      <point x="882" y="20"/>
      <point x="965" y="267" type="curve"/>
      <point x="1022" y="60"/>
      <point x="1129" y="0"/>
      <point x="1392" y="0" type="curve" smooth="yes"/>
      <point x="1452" y="0" type="line"/>
      <point x="1495" y="39"/>
      <point x="1517" y="86"/>
      <point x="1517" y="137" type="curve" smooth="yes"/>
      <point x="1517" y="188"/>
      <point x="1495" y="233"/>
      <point x="1452" y="273" type="curve"/>
    </contour>
    <contour>
      <point x="674" y="1496" type="move" name="caret_1"/>
    </contour>
    <contour>
      <point x="1342" y="-211" type="move" name="bottom_1"/>
    </contour>
    <contour>
      <point x="1084" y="1717" type="move" name="top_1"/>
    </contour>
    <contour>
      <point x="340" y="1451" type="move" name="top_2"/>
    </contour>
    <contour>
      <point x="344" y="-328" type="move" name="bottom_2"/>
    </contour>
  </outline>
</glyph>
<glyph name="alef-ar.fina.short" format="1">
  <advance width="726"/>
  <outline>
    <contour>
      <point x="637" y="273" type="line" smooth="yes"/>
      <point x="583" y="273"/>
      <point x="507" y="292"/>
      <point x="457" y="319" type="curve"/>
      <point x="438" y="1349" type="line"/>
      <point x="173" y="1244" type="line"/>
      <point x="224" y="424" type="line" smooth="yes"/>
      <point x="243" y="117"/>
      <point x="343" y="0"/>
      <point x="591" y="0" type="curve" smooth="yes"/>
      <point x="756" y="0" type="line"/>
      <point x="799" y="39"/>
      <point x="821" y="86"/>
      <point x="821" y="137" type="curve" smooth="yes"/>
      <point x="821" y="188"/>
      <point x="799" y="233"/>
      <point x="756" y="273" type="curve"/>
    </contour>
    <contour>
      <point x="321" y="1542" type="move" name="top"/>
    </contour>
    <contour>
      <point x="592" y="-220" type="move" name="bottom"/>
    </contour>
  </outline>
</glyph>
<glyph name="behDotless-ar.fina" format="1">
  <advance width="2002"/>
  <outline>
    <contour>
      <point x="1932" y="273" type="line" smooth="yes"/>
      <point x="1795" y="273"/>
      <point x="1733" y="325"/>
      <point x="1716" y="454" type="curve" smooth="yes"/>
      <point x="1672" y="785" type="line"/>
      <point x="1428" y="654" type="line"/>
      <point x="1498" y="324" type="line"/>
      <point x="1344" y="279"/>
      <point x="1058" y="235"/>
      <point x="819" y="235" type="curve" smooth="yes"/>
      <point x="528" y="235"/>
      <point x="383" y="312"/>
      <point x="383" y="460" type="curve" smooth="yes"/>
      <point x="383" y="487"/>
      <point x="384" y="512"/>
      <point x="401" y="648" type="curve"/>
      <point x="198" y="666" type="line"/>
      <point x="175" y="484"/>
      <point x="173" y="441"/>
      <point x="173" y="396" type="curve" smooth="yes"/>
      <point x="173" y="100"/>
      <point x="353" y="-38"/>
      <point x="734" y="-38" type="curve" smooth="yes"/>
      <point x="1016" y="-38"/>
      <point x="1477" y="16"/>
      <point x="1636" y="146" type="curve"/>
      <point x="1702" y="37"/>
      <point x="1781" y="0"/>
      <point x="1932" y="0" type="curve" smooth="yes"/>
      <point x="2032" y="0" type="line"/>
      <point x="2075" y="39"/>
      <point x="2097" y="86"/>
      <point x="2097" y="137" type="curve" smooth="yes"/>
      <point x="2097" y="188"/>
      <point x="2075" y="233"/>
      <point x="2032" y="273" type="curve"/>
    </contour>
    <contour>
      <point x="925" y="796" type="move" name="top"/>
    </contour>
    <contour>
      <point x="926" y="-237" type="move" name="bottom"/>
    </contour>
    <contour>
      <point x="374" y="-171" type="move" name="ring"/>
    </contour>
  </outline>
</glyph>
<glyph name="behDotless-ar.init" format="1">
  <advance width="788"/>
  <outline>
    <contour>
      <point x="296" y="855" type="line"/>
      <point x="428" y="334" type="line"/>
      <point x="328" y="293"/>
      <point x="234" y="273"/>
      <point x="30" y="273" type="curve" smooth="yes"/>
      <point x="-30" y="273" type="line" smooth="yes"/>
      <point x="-102" y="273"/>
      <point x="-160" y="212"/>
      <point x="-160" y="137" type="curve" smooth="yes"/>
      <point x="-160" y="61"/>
      <point x="-102" y="0"/>
      <point x="-30" y="0" type="curve" smooth="yes"/>
      <point x="30" y="0" type="line" smooth="yes"/>
      <point x="455" y="0"/>
      <point x="653" y="133"/>
      <point x="653" y="424" type="curve" smooth="yes"/>
      <point x="653" y="523"/>
      <point x="576" y="835"/>
      <point x="538" y="999" type="curve"/>
    </contour>
    <contour>
      <point x="453" y="1182" type="move" name="top"/>
    </contour>
    <contour>
      <point x="295" y="-201" type="move" name="bottom"/>
    </contour>
    <contour>
      <point x="396" y="-140" type="move" name="ring"/>
    </contour>
  </outline>
</glyph>
<glyph name="behDotless-ar.medi" format="1">
  <advance width="893"/>
  <outline>
    <contour>
      <point x="832" y="273" type="line" smooth="yes"/>
      <point x="763" y="273"/>
      <point x="657" y="287"/>
      <point x="588" y="305" type="curve"/>
      <point x="613" y="639" type="line"/>
      <point x="412" y="656" type="line"/>
      <point x="381" y="399" type="line" smooth="yes"/>
      <point x="371" y="314"/>
      <point x="268" y="273"/>
      <point x="49" y="273" type="curve" smooth="yes"/>
      <point x="-30" y="273" type="line" smooth="yes"/>
      <point x="-102" y="273"/>
      <point x="-160" y="212"/>
      <point x="-160" y="137" type="curve" smooth="yes"/>
      <point x="-160" y="61"/>
      <point x="-102" y="0"/>
      <point x="-30" y="0" type="curve" smooth="yes"/>
      <point x="42" y="0" type="line" smooth="yes"/>
      <point x="212" y="0"/>
      <point x="338" y="34"/>
      <point x="432" y="106" type="curve"/>
      <point x="517" y="37"/>
      <point x="662" y="0"/>
      <point x="848" y="0" type="curve" smooth="yes"/>
      <point x="923" y="0" type="line"/>
      <point x="966" y="39"/>
      <point x="988" y="86"/>
      <point x="988" y="137" type="curve" smooth="yes"/>
      <point x="988" y="188"/>
      <point x="966" y="233"/>
      <point x="923" y="273" type="curve"/>
    </contour>
    <contour>
      <point x="518" y="864" type="move" name="top"/>
    </contour>
    <contour>
      <point x="295" y="-200" type="move" name="bottom"/>
    </contour>
    <contour>
      <point x="236" y="-166" type="move" name="ring"/>
    </contour>
  </outline>
</glyph>
<glyph name="dotlessbeh2-ar.init" format="1">
  <advance width="867"/>
  <outline>
    <contour>
      <point x="368" y="855" type="line"/>
      <point x="500" y="334" type="line"/>
      <point x="400" y="293"/>
      <point x="294" y="273"/>
      <point x="90" y="273" type="curve" smooth="yes"/>
      <point x="-31" y="273" type="line" smooth="yes"/>
      <point x="-103" y="273"/>
      <point x="-161" y="212"/>
      <point x="-161" y="137" type="curve" smooth="yes"/>
      <point x="-161" y="61"/>
      <point x="-103" y="0"/>
      <point x="-31" y="0" type="curve" smooth="yes"/>
      <point x="90" y="0" type="line" smooth="yes"/>
      <point x="515" y="0"/>
      <point x="725" y="133"/>
      <point x="725" y="424" type="curve" smooth="yes"/>
      <point x="725" y="523"/>
      <point x="648" y="835"/>
      <point x="610" y="999" type="curve"/>
    </contour>
    <contour>
      <point x="525" y="1212" type="move" name="top"/>
    </contour>
    <contour>
      <point x="367" y="-221" type="move" name="bottom"/>
    </contour>
    <contour>
      <point x="618" y="-60" type="move" name="ring"/>
    </contour>
  </outline>
</glyph>
<glyph name="dotlesskaf-ar.fina" format="1">
  <advance width="1599"/>
  <outline>
    <contour>
      <point x="1626" y="273" type="line" smooth="yes"/>
      <point x="1495" y="273"/>
      <point x="1457" y="275"/>
      <point x="1350" y="305" type="curve"/>
      <point x="1330" y="1528" type="line"/>
      <point x="1067" y="1414" type="line"/>
      <point x="1123" y="323" type="line"/>
      <point x="878" y="212"/>
      <point x="457" y="225"/>
      <point x="173" y="293" type="curve"/>
      <point x="195" y="7" type="line"/>
      <point x="409" y="-74"/>
      <point x="1023" y="-48"/>
      <point x="1193" y="98" type="curve" smooth="yes"/>
      <point x="1207" y="110"/>
      <point x="1219" y="119"/>
      <point x="1230" y="132" type="curve"/>
      <point x="1322" y="43"/>
      <point x="1422" y="0"/>
      <point x="1531" y="0" type="curve" smooth="yes"/>
      <point x="1629" y="0" type="line"/>
      <point x="1672" y="39"/>
      <point x="1694" y="86"/>
      <point x="1694" y="137" type="curve" smooth="yes"/>
      <point x="1694" y="188"/>
      <point x="1672" y="233"/>
      <point x="1629" y="273" type="curve"/>
    </contour>
    <contour>
      <point x="655" y="1019" type="move" name="top"/>
    </contour>
    <contour>
      <point x="632" y="-256" type="move" name="bottom"/>
    </contour>
  </outline>
</glyph>
